<svg id="Capa_1" enable-background="new 0 0 502 502" height="512" viewBox="0 0 502 502" width="512" xmlns="http://www.w3.org/2000/svg" xmlns:xlink="http://www.w3.org/1999/xlink"><linearGradient id="lg1"><stop offset=".0223" stop-color="#a4e6ff"/><stop offset=".9994" stop-color="#5bd6fd"/></linearGradient><linearGradient id="SVGID_1_" gradientUnits="userSpaceOnUse" x1="99.953" x2="99.953" xlink:href="#lg1" y1="431.617" y2="282.558"/><linearGradient id="SVGID_2_" gradientUnits="userSpaceOnUse" x1="402.047" x2="402.047" xlink:href="#lg1" y1="431.617" y2="282.558"/><linearGradient id="SVGID_3_" gradientUnits="userSpaceOnUse" x1="204.133" x2="456.059" xlink:href="#lg1" y1="136.219" y2="136.219"/><linearGradient id="lg2"><stop offset=".0223" stop-color="#f9f2ab"/><stop offset=".9994" stop-color="#f6e66a"/></linearGradient><linearGradient id="SVGID_4_" gradientUnits="userSpaceOnUse" x1="231.879" x2="477.112" xlink:href="#lg2" y1="240.373" y2="240.373"/><linearGradient id="lg3"><stop offset=".0005580357" stop-color="#5bd6fd"/><stop offset=".9777" stop-color="#a4e6ff"/></linearGradient><linearGradient id="SVGID_5_" gradientUnits="userSpaceOnUse" x1="45.172" x2="297.867" xlink:href="#lg3" y1="136.219" y2="136.219"/><linearGradient id="SVGID_6_" gradientUnits="userSpaceOnUse" x1="24.914" x2="270.972" xlink:href="#lg2" y1="242.027" y2="242.027"/><linearGradient id="SVGID_7_" gradientUnits="userSpaceOnUse" x1="81.17" x2="81.17" xlink:href="#lg3" y1="390.915" y2="478.826"/><linearGradient id="SVGID_8_" gradientUnits="userSpaceOnUse" x1="420.83" x2="420.83" xlink:href="#lg3" y1="390.915" y2="478.826"/><g><path d="m145.968 294.363-42.328-11.804s-6.524 75.581-49.701 109.876l30.942 39.182 46.754-17.515c-19.198-51.69 14.333-119.739 14.333-119.739z" fill="url(#SVGID_1_)"/><path d="m356.032 294.363 42.328-11.804s6.524 75.581 49.701 109.876l-30.942 39.182-46.754-17.515c19.198-51.69-14.333-119.739-14.333-119.739z" fill="url(#SVGID_2_)"/><path d="m430.164 43.62c-4.145-14.864-19.552-23.559-34.425-19.412l-171.16 47.733c-14.873 4.147-23.557 19.562-19.412 34.425l26.712 95.784 134.387 47.115 89.793-112.789z" fill="url(#SVGID_3_)"/><g><path d="m420.288 124.888c-4.404 0-8.438-2.931-9.645-7.385-1.826-6.734-3.316-11.826-4.833-16.508-1.701-5.254 1.179-10.893 6.434-12.594 5.254-1.701 10.893 1.179 12.594 6.434 1.619 5.001 3.194 10.378 5.108 17.435 1.445 5.33-1.704 10.823-7.035 12.268-.876.236-1.757.35-2.623.35z" fill="#bfe7f8"/></g><g><path d="m406.021 78.748c-4.376 0-8.394-2.895-9.627-7.316l-2.927-10.496c-1.483-5.32 1.627-10.835 6.947-12.319 5.32-1.483 10.835 1.627 12.319 6.947l2.927 10.496c1.484 5.32-1.626 10.835-6.946 12.319-.9.25-1.804.369-2.693.369z" fill="#bfe7f8"/></g><path d="m398.361 282.558-42.328 11.804s18.914 38.388 20.197 79.4c7.913-.873 15.771-2.377 23.493-4.53 7.774-2.168 15.273-4.941 22.458-8.263-20.137-35.76-23.82-78.411-23.82-78.411z" fill="#5bd6fd"/><path d="m472.789 196.464-16.729-59.988c-116.802-6.91-112.152 80.734-224.18 65.674l15.913 57.06c8.665 31.071 29.097 55.685 55.134 70.359 26.03 14.686 57.666 19.431 88.737 10.766 62.133-17.327 98.453-81.737 81.125-143.871z" fill="url(#SVGID_4_)"/><path d="m260.906 96.943 20.488 41.385c2.661 5.374 7.51 9.34 13.306 10.88 11.015 2.927 22.335-3.551 25.392-14.531l5.638-20.252c4.157-14.907 2.261-30.541-5.338-44.021-4.615-8.187-11.006-14.973-18.647-19.981l-77.166 21.52z" fill="#5bd6fd"/><path d="m277.421 71.941-171.16-47.733c-14.873-4.147-30.28 4.548-34.425 19.412l-26.664 95.769 90.563 109.876 135.237-50.005 25.861-92.894c4.145-14.864-4.539-30.278-19.412-34.425z" fill="url(#SVGID_5_)"/><path d="m103.639 282.558s-3.683 42.647-23.817 78.408c7.182 3.321 14.677 6.095 22.449 8.264 7.722 2.155 15.583 3.661 23.5 4.536 1.282-41.013 20.197-79.404 20.197-79.404z" fill="#5bd6fd"/><path d="m45.172 139.389-15.926 57.056c-8.672 31.07-3.934 62.706 10.745 88.74 14.668 26.041 39.277 46.479 70.346 55.151 62.13 17.342 126.549-18.961 143.891-81.091l16.744-59.984c-96.355-66.382-137.75 11.01-225.8-59.872z" fill="url(#SVGID_6_)"/><path d="m162.319 462.383-.543-10.621c-.906-17.728-13.043-32.892-30.142-37.66l-77.696-21.668c-17.099-4.768-35.331 1.927-45.281 16.627l-5.961 8.807c-5.986 8.844-1.54 20.954 8.747 23.823l131.062 36.55c10.288 2.869 20.359-5.192 19.814-15.858z" fill="url(#SVGID_7_)"/><g><ellipse cx="54.277" cy="235.45" fill="#fd9bae" rx="11.223" ry="13.966" transform="matrix(.269 -.963 .963 .269 -187.1 224.486)"/><ellipse cx="212.584" cy="279.598" fill="#fd9bae" rx="11.223" ry="13.966" transform="matrix(.269 -.963 .963 .269 -113.842 409.264)"/><circle cx="84.779" cy="215.207" fill="#fff" r="27.693"/><ellipse cx="95.555" cy="218.212" fill="#383842" rx="16.505" ry="16.505" transform="matrix(.483 -.876 .876 .483 -141.675 196.555)"/><circle cx="196.961" cy="246.491" fill="#fff" r="27.693"/><g fill="#383842"><ellipse cx="207.682" cy="249.481" rx="16.505" ry="16.505" transform="matrix(.871 -.491 .491 .871 -95.76 134.174)"/><ellipse cx="135.231" cy="251.071" rx="16.224" ry="12.391" transform="matrix(.269 -.963 .963 .269 -142.938 313.888)"/></g></g><path d="m499.304 417.868-5.961-8.807c-9.95-14.7-28.182-21.395-45.281-16.626l-77.696 21.667c-17.099 4.768-29.235 19.932-30.142 37.66l-.543 10.621c-.545 10.666 9.526 18.727 19.813 15.858l131.062-36.55c10.288-2.868 14.734-14.978 8.748-23.823z" fill="url(#SVGID_8_)"/><g><ellipse cx="447.723" cy="235.45" fill="#fd9bae" rx="13.966" ry="11.223" transform="matrix(.963 -.269 .269 .963 -46.791 128.921)"/><ellipse cx="289.416" cy="279.598" fill="#fd9bae" rx="13.966" ry="11.223" transform="matrix(.963 -.269 .269 .963 -64.469 88.019)"/><circle cx="417.221" cy="215.207" fill="#fff" r="27.693"/><ellipse cx="406.445" cy="218.212" fill="#383842" rx="16.505" ry="16.505" transform="matrix(.876 -.483 .483 .876 -54.845 223.32)"/><circle cx="305.039" cy="246.491" fill="#fff" r="27.693"/><g fill="#383842"><ellipse cx="294.318" cy="249.481" rx="16.505" ry="16.505" transform="matrix(.491 -.871 .871 .491 -67.556 383.313)"/><ellipse cx="366.769" cy="251.071" rx="12.391" ry="16.224" transform="matrix(.963 -.269 .269 .963 -53.963 107.75)"/></g></g></g></svg>