<svg id="Capa_1" enable-background="new 0 0 502 502" height="512" viewBox="0 0 502 502" width="512" xmlns="http://www.w3.org/2000/svg" xmlns:xlink="http://www.w3.org/1999/xlink"><linearGradient id="lg1"><stop offset="0" stop-color="#fbba99"/><stop offset="1" stop-color="#fbcfb9"/></linearGradient><linearGradient id="SVGID_1_" gradientUnits="userSpaceOnUse" x1="262.14" x2="-20.472" xlink:href="#lg1" y1="451.981" y2="288.815"/><linearGradient id="SVGID_2_" gradientUnits="userSpaceOnUse" x1="135.659" x2="230.27" xlink:href="#lg1" y1="373.926" y2="373.926"/><linearGradient id="SVGID_3_" gradientUnits="userSpaceOnUse" x1="54.286" x2="148.897" xlink:href="#lg1" y1="292.552" y2="292.552"/><linearGradient id="SVGID_4_" gradientUnits="userSpaceOnUse" x1="94.973" x2="189.583" xlink:href="#lg1" y1="333.239" y2="333.239"/><linearGradient id="lg2"><stop offset=".0005103643" stop-color="#c7856a"/><stop offset="1" stop-color="#da9d81"/></linearGradient><linearGradient id="SVGID_5_" gradientUnits="userSpaceOnUse" x1="502" x2="232.306" xlink:href="#lg2" y1="157.955" y2="157.955"/><linearGradient id="SVGID_6_" gradientUnits="userSpaceOnUse" x1="292.552" x2="292.552" xlink:href="#lg2" y1="148.897" y2="54.285"/><linearGradient id="SVGID_7_" gradientUnits="userSpaceOnUse" x1="373.926" x2="373.926" xlink:href="#lg2" y1="230.271" y2="135.659"/><linearGradient id="SVGID_8_" gradientUnits="userSpaceOnUse" x1="333.239" x2="333.239" xlink:href="#lg2" y1="189.584" y2="94.972"/><g><path d="m307.483 330.782c-11.236-11.235-29.452-11.235-40.687 0l-44.952 44.952-81.374-81.374-82.93 14.41v-47.694c0-15.889-12.881-28.77-28.77-28.77s-28.77 12.881-28.77 28.77v63.571 52.229c0 33.185 13.183 65.01 36.648 88.476 48.864 48.864 128.087 48.864 176.951 0l48.932-48.932 44.952-44.952c11.235-11.235 11.235-29.451 0-40.686z" fill="url(#SVGID_1_)"/><g><path d="m92.49 473.639c-.995 0-2.007-.15-3.006-.464-4.933-1.554-9.789-3.494-14.432-5.769-4.96-2.429-7.011-8.419-4.582-13.379 2.43-4.96 8.42-7.011 13.379-4.582 3.745 1.834 7.662 3.4 11.642 4.653 5.268 1.659 8.193 7.274 6.535 12.542-1.344 4.268-5.286 6.999-9.536 6.999z" fill="#ffdcce"/></g><g><path d="m127.062 482.305c-1.887 0-3.77-.06-5.648-.181-5.511-.355-9.691-5.111-9.336-10.622s5.108-9.691 10.622-9.336c7.043.453 14.212-.197 21.313-1.934 5.366-1.313 10.778 1.973 12.09 7.337 1.312 5.365-1.973 10.777-7.337 12.09-7.199 1.759-14.476 2.646-21.704 2.646z" fill="#ffdcce"/></g><path d="m221.844 335.047c-11.235-11.235-29.452-11.235-40.687 0l-34.938-5.748-2.133 42.819c-11.235 11.235-11.235 29.452 0 40.687 11.235 11.235 29.451 11.235 40.687 0l37.071-37.071c11.235-11.236 11.235-29.452 0-40.687z" fill="url(#SVGID_2_)"/><path d="m140.47 253.673c-11.236-11.235-29.452-11.235-40.687 0l-37.071 37.071c-11.235 11.235-11.235 29.452 0 40.687 11.235 11.235 29.452 11.235 40.687 0l42.819-2.132-5.748-34.939c11.236-11.236 11.236-29.452 0-40.687z" fill="url(#SVGID_3_)"/><path d="m181.157 294.36c-11.235-11.235-29.451-11.235-40.687 0l-37.071 37.071c-11.235 11.235-11.235 29.452 0 40.687 11.235 11.235 29.451 11.235 40.687 0l37.071-37.071c11.235-11.236 11.235-29.452 0-40.687z" fill="url(#SVGID_4_)"/><path d="m465.352 36.648c-23.465-23.465-55.291-36.648-88.475-36.648h-52.229-63.571c-15.889 0-28.77 12.881-28.77 28.77s12.881 28.77 28.77 28.77h47.694l-14.41 82.93 81.374 81.374-44.952 44.952c-11.235 11.235-11.235 29.452 0 40.687 11.235 11.235 29.452 11.235 40.687 0l44.952-44.952 48.932-48.932c48.862-48.863 48.862-128.087-.002-176.951z" fill="url(#SVGID_5_)"/><g><path d="m423.885 52.429c-1.68 0-3.382-.424-4.945-1.315-5.891-3.36-12.15-6.003-18.604-7.856-5.309-1.524-8.377-7.062-6.853-12.371s7.064-8.376 12.371-6.853c7.985 2.292 15.722 5.558 22.996 9.707 4.797 2.736 6.468 8.844 3.732 13.641-1.846 3.234-5.223 5.047-8.697 5.047z" fill="#da9d81"/></g><g><path d="m371.906 40h-12.361c-5.523 0-10-4.477-10-10s4.477-10 10-10h12.361c5.523 0 10 4.477 10 10s-4.477 10-10 10z" fill="#da9d81"/></g><path d="m331.431 62.712c-11.235-11.235-29.452-11.235-40.687 0l-37.071 37.071c-11.236 11.235-11.235 29.452 0 40.687 11.235 11.235 29.451 11.235 40.687 0l34.938 5.748 2.132-42.819c11.237-11.236 11.237-29.452.001-40.687z" fill="url(#SVGID_6_)"/><path d="m412.805 144.086c-11.235-11.235-29.452-11.235-40.687 0l-42.819 2.132 5.748 34.939c-11.235 11.235-11.235 29.452 0 40.687 11.236 11.235 29.452 11.235 40.687 0l37.071-37.071c11.235-11.236 11.235-29.452 0-40.687z" fill="url(#SVGID_7_)"/><path d="m372.118 103.399c-11.235-11.235-29.451-11.235-40.687 0l-37.071 37.071c-11.236 11.235-11.235 29.452 0 40.687 11.235 11.235 29.451 11.235 40.687 0l37.071-37.071c11.235-11.236 11.235-29.452 0-40.687z" fill="url(#SVGID_8_)"/></g></svg>