<svg id="Capa_1" enable-background="new 0 0 502 502" height="512" viewBox="0 0 502 502" width="512" xmlns="http://www.w3.org/2000/svg" xmlns:xlink="http://www.w3.org/1999/xlink"><linearGradient id="lg1"><stop offset="0" stop-color="#4f4c5f"/><stop offset=".9783" stop-color="#6a647f"/></linearGradient><linearGradient id="SVGID_1_" gradientUnits="userSpaceOnUse" x1="235.097" x2="266.903" xlink:href="#lg1" y1="133.979" y2="133.979"/><linearGradient id="SVGID_2_" gradientUnits="userSpaceOnUse" x1="139.308" x2="214.928" xlink:href="#lg1" y1="200.306" y2="156.647"/><linearGradient id="SVGID_3_" gradientUnits="userSpaceOnUse" x1="140.575" x2="237.384" xlink:href="#lg1" y1="257.281" y2="257.281"/><linearGradient id="SVGID_4_" gradientUnits="userSpaceOnUse" x1="272.884" x2="376.879" xlink:href="#lg1" y1="178.476" y2="178.476"/><linearGradient id="SVGID_5_" gradientUnits="userSpaceOnUse" x1="285.028" x2="341.013" xlink:href="#lg1" y1="273.442" y2="241.119"/><radialGradient id="SVGID_6_" cx="251" cy="207.651" gradientUnits="userSpaceOnUse" r="197.06"><stop offset=".0223" stop-color="#6d36ab"/><stop offset="1" stop-color="#a47cd1"/></radialGradient><linearGradient id="lg2"><stop offset=".0212" stop-color="#ffb3dd"/><stop offset="1" stop-color="#ff88ca"/></linearGradient><linearGradient id="SVGID_7_" gradientUnits="userSpaceOnUse" x1="251" x2="251" xlink:href="#lg2" y1="105.599" y2="17.199"/><linearGradient id="lg3"><stop offset="0" stop-color="#d0d7d7"/><stop offset="1" stop-color="#efefef"/></linearGradient><linearGradient id="SVGID_8_" gradientUnits="userSpaceOnUse" x1="251" x2="251" xlink:href="#lg3" y1="0" y2="34.398"/><linearGradient id="lg4"><stop offset=".0005580357" stop-color="#5bd6fd"/><stop offset=".9777" stop-color="#a4e6ff"/></linearGradient><linearGradient id="SVGID_9_" gradientUnits="userSpaceOnUse" x1="91.311" x2="91.311" xlink:href="#lg4" y1="193.092" y2="104.692"/><linearGradient id="SVGID_10_" gradientUnits="userSpaceOnUse" x1="91.311" x2="91.311" xlink:href="#lg3" y1="87.493" y2="121.891"/><linearGradient id="SVGID_11_" gradientUnits="userSpaceOnUse" x1="103.344" x2="103.344" xlink:href="#lg2" y1="341.14" y2="252.74"/><linearGradient id="SVGID_12_" gradientUnits="userSpaceOnUse" x1="103.344" x2="103.344" xlink:href="#lg3" y1="235.541" y2="269.939"/><linearGradient id="SVGID_13_" gradientUnits="userSpaceOnUse" x1="410.689" x2="410.689" xlink:href="#lg4" y1="193.092" y2="104.692"/><linearGradient id="SVGID_14_" gradientUnits="userSpaceOnUse" x1="410.689" x2="410.689" xlink:href="#lg3" y1="87.493" y2="121.891"/><linearGradient id="SVGID_15_" gradientUnits="userSpaceOnUse" x1="398.656" x2="398.656" xlink:href="#lg2" y1="341.14" y2="252.74"/><linearGradient id="SVGID_16_" gradientUnits="userSpaceOnUse" x1="398.656" x2="398.656" xlink:href="#lg3" y1="235.541" y2="269.939"/><linearGradient id="lg5"><stop offset=".0223" stop-color="#c3c1c7"/><stop offset="1" stop-color="#8f8a9f"/></linearGradient><radialGradient id="SVGID_17_" cx="251" cy="340.264" gradientUnits="userSpaceOnUse" r="130.93" xlink:href="#lg5"/><radialGradient id="SVGID_18_" cx="251" cy="207.651" gradientUnits="userSpaceOnUse" r="39.993" xlink:href="#lg5"/><linearGradient id="SVGID_19_" gradientUnits="userSpaceOnUse" x1="251" x2="251" y1="502" y2="431.72"><stop offset="0" stop-color="#78c7e8"/><stop offset=".9788" stop-color="#bde5f6"/></linearGradient><g><path d="m235.097 84.397h31.806v99.164h-31.806z" fill="url(#SVGID_1_)"/><path d="m229.116 181.22-11.297 29.733-92.698-35.221 11.296-29.732z" fill="url(#SVGID_2_)"/><path d="m217.19 213.515 20.194 24.574-76.615 62.957-20.194-24.574z" fill="url(#SVGID_3_)"/><path d="m272.884 181.22 11.297 29.733 92.698-35.221-11.296-29.732z" fill="url(#SVGID_4_)"/><path d="m284.81 213.515-20.194 24.574 76.615 62.957 20.194-24.574z" fill="url(#SVGID_5_)"/><path d="m251 10.591c-108.833 0-197.06 88.227-197.06 197.06s88.227 197.059 197.06 197.059 197.06-88.227 197.06-197.06-88.227-197.059-197.06-197.059zm0 344.806c-81.598 0-147.747-66.148-147.747-147.747s66.149-147.746 147.747-147.746 147.747 66.148 147.747 147.747-66.149 147.746-147.747 147.746z" fill="url(#SVGID_6_)"/><circle cx="251" cy="207.651" fill="none" r="17.235" stroke="#fff" stroke-miterlimit="10"/><path d="m186.654 17.199v24.054c0 35.537 28.809 64.346 64.346 64.346 35.537 0 64.346-28.809 64.346-64.346v-24.054z" fill="url(#SVGID_7_)"/><path d="m315.346 0h-128.692c-9.499 0-17.199 7.7-17.199 17.199s7.7 17.199 17.199 17.199h128.692c9.499 0 17.199-7.7 17.199-17.199s-7.7-17.199-17.199-17.199z" fill="url(#SVGID_8_)"/><path d="m155.657 104.692v24.054c0 35.537-28.809 64.346-64.346 64.346-35.537 0-64.346-28.809-64.346-64.346v-24.054z" fill="url(#SVGID_9_)"/><path d="m26.965 87.493h128.692c9.499 0 17.199 7.7 17.199 17.199s-7.7 17.199-17.199 17.199h-128.692c-9.499 0-17.199-7.7-17.199-17.199s7.7-17.199 17.199-17.199z" fill="url(#SVGID_10_)"/><path d="m167.69 252.74v24.054c0 35.537-28.809 64.346-64.346 64.346-35.537 0-64.346-28.809-64.346-64.346v-24.054z" fill="url(#SVGID_11_)"/><path d="m38.998 235.541h128.692c9.499 0 17.199 7.7 17.199 17.199s-7.7 17.199-17.199 17.199h-128.692c-9.499 0-17.199-7.7-17.199-17.199s7.7-17.199 17.199-17.199z" fill="url(#SVGID_12_)"/><path d="m346.343 104.692v24.054c0 35.537 28.809 64.346 64.346 64.346 35.537 0 64.346-28.809 64.346-64.346v-24.054z" fill="url(#SVGID_13_)"/><g><path d="m414.074 174.798c-4.932 0-9.225-3.649-9.899-8.672-.734-5.474 3.108-10.506 8.582-11.241 1.176-.158 2.35-.404 3.488-.732 5.307-1.53 10.849 1.532 12.378 6.839s-1.532 10.849-6.839 12.378c-2.079.599-4.222 1.049-6.368 1.337-.45.062-.899.091-1.342.091z" fill="#bfe7f8"/></g><g><path d="m440.485 155.759c-1.698 0-3.417-.432-4.993-1.343-4.782-2.763-6.419-8.879-3.657-13.661.857-1.483 1.552-3.051 2.067-4.661 1.683-5.26 7.312-8.16 12.572-6.477s8.16 7.312 6.477 12.572c-.95 2.969-2.228 5.852-3.798 8.57-1.852 3.208-5.213 5-8.668 5z" fill="#bfe7f8"/></g><path d="m475.035 87.493h-128.692c-9.499 0-17.199 7.7-17.199 17.199s7.7 17.199 17.199 17.199h128.692c9.499 0 17.199-7.7 17.199-17.199s-7.7-17.199-17.199-17.199z" fill="url(#SVGID_14_)"/><path d="m334.31 252.74v24.054c0 35.537 28.809 64.346 64.346 64.346 35.537 0 64.346-28.809 64.346-64.346v-24.054z" fill="url(#SVGID_15_)"/><path d="m463.002 235.541h-128.692c-9.499 0-17.199 7.7-17.199 17.199s7.7 17.199 17.199 17.199h128.692c9.499 0 17.199-7.7 17.199-17.199s-7.7-17.199-17.199-17.199z" fill="url(#SVGID_16_)"/><path d="m251 274.148s69.631 180.028 76.139 198.728h53.085l-99.28-265.226h-59.888l-99.28 265.226h53.085z" fill="url(#SVGID_17_)"/><circle cx="251" cy="207.651" fill="url(#SVGID_18_)" r="39.993"/><path d="m459.865 471.743-1.445-5.063c-5.904-20.691-24.813-34.959-46.33-34.959h-322.18c-21.517 0-40.426 14.268-46.33 34.959l-1.445 5.063c-4.327 15.165 7.06 30.257 22.831 30.257h372.068c15.771 0 27.158-15.092 22.831-30.257z" fill="url(#SVGID_19_)"/><g fill="#ff75c0"><path d="m230.083 34.398h-43.429v6.854c0 7.039 1.146 13.807 3.235 20.146h40.194c7.456 0 13.5-6.044 13.5-13.5s-6.044-13.5-13.5-13.5z"/><path d="m82.426 269.939h-43.428v6.854c0 7.039 1.146 13.807 3.235 20.146h40.194c7.456 0 13.5-6.044 13.5-13.5s-6.045-13.5-13.501-13.5z"/><path d="m377.739 269.939h-43.429v6.854c0 7.039 1.146 13.807 3.235 20.146h40.194c7.456 0 13.5-6.044 13.5-13.5s-6.044-13.5-13.5-13.5z"/></g><path d="m70.394 121.891h-43.429v6.854c0 7.039 1.146 13.807 3.235 20.146h40.194c7.456 0 13.5-6.044 13.5-13.5s-6.044-13.5-13.5-13.5z" fill="#5bd6fd"/></g></svg>