<svg id="Capa_1" enable-background="new 0 0 502 502" height="512" viewBox="0 0 502 502" width="512" xmlns="http://www.w3.org/2000/svg" xmlns:xlink="http://www.w3.org/1999/xlink"><linearGradient id="lg1"><stop offset="0" stop-color="#4f4c5f"/><stop offset=".9783" stop-color="#6a647f"/></linearGradient><linearGradient id="SVGID_1_" gradientUnits="userSpaceOnUse" x1="266.814" x2="266.814" xlink:href="#lg1" y1="502" y2="0"/><linearGradient id="lg2"><stop offset=".0212" stop-color="#ba99db"/><stop offset="1" stop-color="#8959c3"/></linearGradient><radialGradient id="SVGID_2_" cx="266.814" cy="334.026" gradientUnits="userSpaceOnUse" r="122.293" xlink:href="#lg2"/><linearGradient id="SVGID_3_" gradientUnits="userSpaceOnUse" x1="266.814" x2="266.814" xlink:href="#lg1" y1="409.053" y2="258.999"/><radialGradient id="SVGID_4_" cx="266.814" cy="102.148" gradientUnits="userSpaceOnUse" r="69" xlink:href="#lg2"/><linearGradient id="SVGID_5_" gradientUnits="userSpaceOnUse" x1="266.814" x2="266.814" xlink:href="#lg1" y1="131.478" y2="72.817"/><linearGradient id="SVGID_6_" gradientUnits="userSpaceOnUse" x1="415.282" x2="415.282" y1="28.329" y2="211.468"><stop offset=".0212" stop-color="#ffb3dd"/><stop offset="1" stop-color="#ff88ca"/></linearGradient><linearGradient id="SVGID_7_" gradientUnits="userSpaceOnUse" x1="54.006" x2="54.006" y1="337.211" y2="165.396"><stop offset="0" stop-color="#8959c3"/><stop offset=".9788" stop-color="#ba99db"/></linearGradient><g><path d="m382.592 0h-231.555c-40.676 0-73.65 32.974-73.65 73.65v354.7c0 40.676 32.974 73.65 73.65 73.65h231.555c40.676 0 73.65-32.974 73.65-73.65v-354.7c0-40.676-32.974-73.65-73.65-73.65z" fill="url(#SVGID_1_)"/><g><path d="m403.746 476.477c-3.511 0-6.917-1.853-8.747-5.138-2.686-4.826-.952-10.915 3.874-13.601 4.309-2.399 8.101-5.742 10.967-9.669 3.256-4.462 9.512-5.438 13.973-2.183 4.461 3.256 5.439 9.511 2.183 13.973-4.56 6.248-10.575 11.558-17.395 15.354-1.541.857-3.209 1.264-4.855 1.264z" fill="#77718a"/></g><g><path d="m426.21 431.971c-.039 0-.077 0-.116-.001-5.522-.063-9.948-4.591-9.885-10.113.076-6.653.095-13.848.061-22.642-.021-5.523 4.438-10.017 9.961-10.039 5.567-.033 10.018 4.438 10.039 9.961.035 8.899.015 16.191-.062 22.949-.064 5.483-4.529 9.885-9.998 9.885z" fill="#77718a"/></g><circle cx="266.814" cy="334.026" fill="url(#SVGID_2_)" r="122.293"/><circle cx="266.814" cy="334.026" fill="url(#SVGID_3_)" r="75.027"/><circle cx="266.814" cy="102.148" fill="url(#SVGID_4_)" r="69"/><circle cx="266.814" cy="102.148" fill="url(#SVGID_5_)" r="29.331"/><g><path d="m497.674 34.876c0-4.339-4.146-7.476-8.321-6.296l-111.176 16.956c-4.731 1.336-7.997 5.653-7.997 10.568v105.525c-3.378-1.59-7.148-2.484-11.129-2.484-14.448 0-26.161 11.713-26.161 26.161 0 14.449 11.713 26.161 26.161 26.161 14.287 0 25.891-11.454 26.149-25.68h.012v-97.162l97.429-13.074v74.836c-3.378-1.59-7.148-2.484-11.129-2.484-14.448 0-26.161 11.713-26.161 26.161 0 14.449 11.713 26.161 26.161 26.161 14.287 0 25.891-11.454 26.149-25.68h.012v-139.669z" fill="url(#SVGID_6_)"/></g><path d="m89.285 138.397c-2.09 0-4.201.16-6.275.477l-5.622.857v.001 97.175c26.046-7.046 53.298-30.287 53.298-57.078-.001-22.846-18.573-41.432-41.401-41.432z" fill="#4f4c5f"/><path d="m87.08 165.564-37.466 5.714c-4.731 1.336-7.997 5.653-7.997 10.568v105.525c-3.583-1.687-7.609-2.59-11.859-2.474-13.422.367-24.579 11.134-25.383 24.537-.911 15.18 11.13 27.775 26.113 27.775 14.287 0 25.891-11.454 26.149-25.68h.012v-97.163l19.06-2.557c16.019-2.15 27.977-15.819 27.977-31.982-.001-8.834-7.871-15.595-16.606-14.263z" fill="url(#SVGID_7_)"/></g></svg>