<svg id="Capa_1" enable-background="new 0 0 502 502" height="512" viewBox="0 0 502 502" width="512" xmlns="http://www.w3.org/2000/svg" xmlns:xlink="http://www.w3.org/1999/xlink"><linearGradient id="lg1"><stop offset="0" stop-color="#d86743"/><stop offset=".9788" stop-color="#e99780"/></linearGradient><linearGradient id="SVGID_1_" gradientUnits="userSpaceOnUse" x1="412.836" x2="269.758" xlink:href="#lg1" y1="403.09" y2="403.09"/><linearGradient id="SVGID_2_" gradientUnits="userSpaceOnUse" x1="248.763" x2="247.415" xlink:href="#lg1" y1="497.367" y2="497.367"/><radialGradient id="SVGID_3_" cx="335.657" cy="170.941" gradientUnits="userSpaceOnUse" r="166.343"><stop offset=".0206" stop-color="#76e6d5"/><stop offset="1" stop-color="#00c4a2"/></radialGradient><linearGradient id="lg2"><stop offset=".0212" stop-color="#f5385d"/><stop offset="1" stop-color="#ff889e"/></linearGradient><linearGradient id="SVGID_4_" gradientUnits="userSpaceOnUse" x1="309.718" x2="237.254" xlink:href="#lg2" y1="264.285" y2="264.285"/><linearGradient id="SVGID_5_" gradientUnits="userSpaceOnUse" x1="434.061" x2="361.596" xlink:href="#lg2" y1="264.285" y2="264.285"/><linearGradient id="lg3"><stop offset=".0223" stop-color="#fccb88"/><stop offset=".9994" stop-color="#f7ac3e"/></linearGradient><linearGradient id="SVGID_6_" gradientUnits="userSpaceOnUse" x1="152.16" x2="152.16" xlink:href="#lg3" y1="241.718" y2="396.385"/><linearGradient id="SVGID_7_" gradientUnits="userSpaceOnUse" x1="45.06" x2="45.06" xlink:href="#lg3" y1="497.402" y2="396.385"/><linearGradient id="SVGID_8_" gradientUnits="userSpaceOnUse" x1="259.26" x2="259.26" xlink:href="#lg3" y1="497.402" y2="396.385"/><linearGradient id="SVGID_9_" gradientUnits="userSpaceOnUse" x1="309.718" x2="237.254" xlink:href="#lg2" y1="91.265" y2="91.265"/><linearGradient id="SVGID_10_" gradientUnits="userSpaceOnUse" x1="434.061" x2="361.596" xlink:href="#lg2" y1="91.265" y2="91.265"/><linearGradient id="SVGID_11_" gradientUnits="userSpaceOnUse" x1="152.16" x2="152.16" y1="431.208" y2="361.563"><stop offset=".0223" stop-color="#f9f2ab"/><stop offset=".9994" stop-color="#f6e66a"/></linearGradient><g><g><path d="m282.331 308.777h105.404c0 71.398 13.391 125.747 23.876 157.359 5.107 15.398-6.398 31.266-22.621 31.266h-119.232v-151.859z" fill="url(#SVGID_1_)"/><path d="m247.415 497.402h1.348c-.447 0-.888-.025-1.322-.07-.016.043-.026.07-.026.07z" fill="url(#SVGID_2_)"/></g><path d="m335.312 331.127-61.504-30.894-67.565 8.543c14.087 26.037 41.597 43.233 72.455 43.233.715 0 1.43-.009 2.143-.028 4.13-.108 8.185.966 11.705 3.128 9.742 5.984 20.589 9.85 31.841 11.4 11.253 1.55 21.27-7.25 21.27-18.61 0-7.096-4.003-13.586-10.345-16.772z" fill="#da6743"/><path d="m483.788 210.647.069-.059c24.19-20.896 24.191-58.398 0-79.294l-.069-.059c10.524-30.22-8.265-62.732-39.703-68.702l-.016-.003-.003-.017c-5.97-31.438-38.481-50.227-68.701-39.703h-.001l-.059-.069c-20.896-24.19-58.398-24.19-79.294 0l-.059.069c-30.22-10.524-62.732 8.265-68.702 39.703l-.003.016-.017.003c-31.438 5.97-50.227 38.481-39.703 68.701v.001l-.069.059c-24.19 20.896-24.19 58.398 0 79.294l.069.059c-10.524 30.22 8.265 62.732 39.703 68.702l.016.003.003.017c5.97 31.438 38.481 50.227 68.701 39.703h.001l.059.069c20.896 24.19 58.398 24.19 79.294 0l.059-.069c30.22 10.524 62.732-8.265 68.702-39.703l.003-.016.017-.003c31.438-5.97 50.227-38.481 39.703-68.701z" fill="url(#SVGID_3_)"/><g fill="#e7886e"><path d="m282.738 47.591c-3.099-3.098-8.309-2.549-10.625 1.171-3.561 5.72-5.465 12.332-5.465 19.236v3.639h13.676v-3.639c0-4.289 1.175-8.397 3.374-11.957 1.672-2.708 1.29-6.201-.96-8.45z"/><path d="m407.08 47.591c-3.099-3.098-8.309-2.549-10.625 1.171-3.561 5.72-5.465 12.332-5.465 19.236v3.639h13.676v-3.639c0-4.289 1.175-8.397 3.374-11.957 1.672-2.708 1.29-6.201-.96-8.45z"/><path d="m282.738 220.61c-3.099-3.098-8.309-2.549-10.625 1.171-3.561 5.72-5.465 12.332-5.465 19.236v3.639h13.676v-3.639c0-4.289 1.175-8.397 3.374-11.957 1.672-2.708 1.29-6.2-.96-8.45z"/><path d="m407.08 220.61c-3.099-3.098-8.309-2.549-10.625 1.171-3.561 5.72-5.465 12.332-5.465 19.236v3.639h13.676v-3.639c0-4.289 1.175-8.397 3.374-11.957 1.672-2.708 1.29-6.2-.96-8.45z"/></g><path d="m273.486 240.421c-25.004-15.792-50.009 17.18-27.379 40.419 14.849 15.249 39.909 15.249 54.758 0 22.63-23.239-2.374-56.211-27.379-40.419z" fill="url(#SVGID_4_)"/><path d="m397.828 240.421c-25.004-15.792-50.009 17.18-27.379 40.419 14.849 15.249 39.909 15.249 54.758 0 22.63-23.239-2.374-56.211-27.379-40.419z" fill="url(#SVGID_5_)"/><path d="m237.875 241.718h-171.429c-24.553 0-44.457 19.904-44.457 44.457v110.211h260.342v-110.211c0-24.553-19.904-44.457-44.456-44.457z" fill="url(#SVGID_6_)"/><path d="m21.989 396.385v88.443c0 6.944 5.629 12.573 12.573 12.573h20.996c6.944 0 12.573-5.629 12.573-12.573v-88.443z" fill="url(#SVGID_7_)"/><path d="m282.331 396.385v88.443c0 6.944-5.629 12.573-12.573 12.573h-20.996c-6.944 0-12.573-5.629-12.573-12.573v-88.443z" fill="url(#SVGID_8_)"/><g><ellipse cx="64.881" cy="329.647" fill="#ff75c0" rx="14.833" ry="11.921"/><ellipse cx="239.44" cy="329.647" fill="#ff75c0" rx="14.833" ry="11.921"/><circle cx="90.311" cy="300.234" fill="#fff" r="29.413"/><circle cx="214.009" cy="300.234" fill="#fff" r="29.413"/><g fill="#383842"><g><circle cx="90.311" cy="300.234" r="17.531"/><circle cx="214.009" cy="300.234" r="17.531"/></g><path d="m152.16 330.617c-5.22 0-10.438-1.974-14.697-5.922-2.025-1.877-2.145-5.041-.268-7.066 1.878-2.025 5.041-2.145 7.066-.267 4.651 4.312 11.147 4.311 15.797 0 2.023-1.876 5.188-1.759 7.065.267 1.878 2.025 1.759 5.188-.267 7.066-4.256 3.948-9.476 5.922-14.696 5.922z"/></g></g><g><ellipse cx="248.378" cy="196.019" fill="#ff75c0" rx="14.833" ry="11.921"/><ellipse cx="422.937" cy="196.019" fill="#ff75c0" rx="14.833" ry="11.921"/><path d="m273.808 170.544c7.133 0 13.717 1.578 19.026 4.244 4.512 2.265 9.893-.796 10.294-5.829.113-1.413.125-2.855.029-4.318-.984-15.041-13.508-27.052-28.576-27.439-16.598-.425-30.186 12.902-30.186 29.404 0 .837.035 1.667.104 2.486.419 4.975 5.816 7.939 10.278 5.699 5.31-2.667 11.896-4.247 19.031-4.247z" fill="#fff"/><path d="m335.657 206.135c-6.403 0-12.805-2.14-18.147-6.42-4.955-3.97-5.754-11.204-1.784-16.159 3.97-4.956 11.204-5.753 16.159-1.784 2.221 1.78 5.324 1.78 7.545 0 4.953-3.969 12.188-3.171 16.159 1.784 3.97 4.955 3.171 12.189-1.784 16.159-5.343 4.28-11.745 6.42-18.148 6.42z" fill="#383842"/><path d="m273.808 170.544c5.885 0 11.394 1.075 16.125 2.947.905-2.115 1.405-4.439 1.405-6.885 0-9.682-7.849-17.531-17.531-17.531s-17.531 7.849-17.531 17.531c0 2.446.501 4.77 1.405 6.885 4.733-1.872 10.242-2.947 16.127-2.947z" fill="#383842"/><path d="m397.506 170.544c7.133 0 13.717 1.578 19.026 4.244 4.512 2.265 9.893-.796 10.294-5.829.113-1.413.125-2.855.029-4.318-.984-15.041-13.508-27.052-28.576-27.439-16.598-.425-30.186 12.902-30.186 29.404 0 .837.035 1.667.104 2.486.419 4.975 5.816 7.939 10.278 5.699 5.31-2.667 11.896-4.247 19.031-4.247z" fill="#fff"/><path d="m397.506 170.544c5.885 0 11.394 1.075 16.125 2.947.905-2.115 1.405-4.439 1.405-6.885 0-9.682-7.849-17.531-17.531-17.531s-17.531 7.849-17.531 17.531c0 2.446.501 4.77 1.405 6.885 4.733-1.872 10.243-2.947 16.127-2.947z" fill="#383842"/></g><path d="m273.486 67.402c-25.004-15.792-50.009 17.18-27.379 40.419 14.849 15.249 39.909 15.249 54.758 0 22.63-23.239-2.374-56.211-27.379-40.419z" fill="url(#SVGID_9_)"/><path d="m397.828 67.402c-25.004-15.792-50.009 17.18-27.379 40.419 14.849 15.249 39.909 15.249 54.758 0 22.63-23.239-2.374-56.211-27.379-40.419z" fill="url(#SVGID_10_)"/><path d="m236.189 396.385h46.142v64.823h-46.142z" fill="#f7ac3e"/><path d="m21.989 396.385h46.142v64.823h-46.142z" fill="#f7ac3e"/><path d="m282.331 361.563h-260.342c-12.144 0-21.989 9.845-21.989 21.989v25.667c0 12.144 9.845 21.989 21.989 21.989h260.342c12.144 0 21.989-9.845 21.989-21.989v-25.667c.001-12.144-9.844-21.989-21.989-21.989z" fill="url(#SVGID_11_)"/><g><path d="m264.434 401.781c-3.129 0-6.305-.075-10.52-.224-5.519-.196-9.835-4.829-9.639-10.348.196-5.52 4.828-9.836 10.348-9.639 7.951.282 11.744.282 19.326.001 5.517-.21 10.159 4.103 10.365 9.622.205 5.519-4.103 10.159-9.622 10.364-4.038.149-7.125.224-10.258.224z" fill="#fffcdc"/></g><g><path d="m209.452 401.617c-5.505 0-9.978-4.452-9.999-9.962-.021-5.523 4.439-10.017 9.961-10.038l13.117-.055c5.517-.046 10.02 4.432 10.045 9.955s-4.433 10.02-9.955 10.045l-13.129.055c-.014 0-.028 0-.04 0z" fill="#fffcdc"/></g></g></svg>