<svg id="Capa_1" enable-background="new 0 0 502 502" height="512" viewBox="0 0 502 502" width="512" xmlns="http://www.w3.org/2000/svg" xmlns:xlink="http://www.w3.org/1999/xlink"><linearGradient id="SVGID_1_" gradientUnits="userSpaceOnUse" x1="243.409" x2="243.409" y1="502" y2="359.989"><stop offset=".0212" stop-color="#ba99db"/><stop offset="1" stop-color="#8959c3"/></linearGradient><linearGradient id="SVGID_2_" gradientUnits="userSpaceOnUse" x1="24.068" x2="456.73" y1="108.166" y2="108.166"><stop offset=".0217" stop-color="#6a647f"/><stop offset="1" stop-color="#4f4c5f"/></linearGradient><linearGradient id="lg1"><stop offset="0" stop-color="#fed2a4"/><stop offset=".9788" stop-color="#ffbd86"/></linearGradient><linearGradient id="SVGID_3_" gradientUnits="userSpaceOnUse" x1="14.503" x2="102.453" xlink:href="#lg1" y1="216.331" y2="216.331"/><linearGradient id="lg2"><stop offset=".0212" stop-color="#ffbd86"/><stop offset="1" stop-color="#fed2a4"/></linearGradient><linearGradient id="SVGID_4_" gradientUnits="userSpaceOnUse" x1="466.296" x2="378.346" xlink:href="#lg2" y1="216.331" y2="216.331"/><linearGradient id="SVGID_5_" gradientUnits="userSpaceOnUse" x1="58.479" x2="422.32" xlink:href="#lg1" y1="242.638" y2="242.638"/><linearGradient id="SVGID_6_" gradientUnits="userSpaceOnUse" x1="397.1" x2="397.1" y1="148.173" y2="0"><stop offset=".0212" stop-color="#f5385d"/><stop offset="1" stop-color="#ff889e"/></linearGradient><linearGradient id="SVGID_7_" gradientUnits="userSpaceOnUse" x1="87.517" x2="203.823" xlink:href="#lg2" y1="385.171" y2="385.171"/><linearGradient id="SVGID_8_" gradientUnits="userSpaceOnUse" x1="276.976" x2="393.282" xlink:href="#lg1" y1="385.171" y2="385.171"/><g><path d="m127.133 423.457s-19.25 28.051-19.25 78.543h271.053c0-50.492-19.25-78.543-19.25-78.543l-47.043-63.468h-138.427z" fill="url(#SVGID_1_)"/><path d="m24.068 216.331h432.662c0-119.285-97.046-216.331-216.331-216.331h-133.44c-34.485 0-65.314 22.602-74.539 55.83-4.378 15.769-3.657 33.251 8.411 50.168 4.555 6.385 5.419 14.667 2.198 21.819-12.174 27.033-18.961 56.994-18.961 88.514z" fill="url(#SVGID_2_)"/><circle cx="58.478" cy="216.331" fill="url(#SVGID_3_)" r="43.975"/><circle cx="422.321" cy="216.331" fill="url(#SVGID_4_)" r="43.975"/><path d="m174.216 359.989-32.671 44.041c30.073 15.823 63.785 24.222 98.815 24.222 1.176 0 2.355-.009 3.536-.028 35.416-.574 69.424-9.813 99.577-26.64l-30.83-41.594h-138.427z" fill="#986acb"/><path d="m422.32 216.331c0 99.47-79.824 180.289-178.911 181.896-101.712 1.65-184.517-79.42-184.929-181.144-.177-43.833 15.149-84.08 40.806-115.573 12.57-15.428 34.741-19.017 51.589-8.425 89.767 56.439 99.037-6.697 221.76-1.692 30.802 32.586 49.685 76.556 49.685 124.938z" fill="url(#SVGID_5_)"/><path d="m397.1 18.097c-61.106-59.719-161.428 40.315-13.602 126.401 8.416 4.901 18.789 4.901 27.205 0 147.826-86.087 47.503-186.12-13.603-126.401z" fill="url(#SVGID_6_)"/><g><path d="m439.98 97.698c-2.445 0-4.896-.891-6.824-2.692-4.036-3.77-4.252-10.098-.482-14.134 2.435-2.607 4.666-5.277 6.631-7.937 3.282-4.442 9.544-5.381 13.985-2.099 4.442 3.282 5.381 9.544 2.099 13.985-2.419 3.273-5.144 6.538-8.1 9.702-1.968 2.109-4.635 3.175-7.309 3.175z" fill="#ffb2c1"/></g><g><path d="m457.367 60.461c-.014 0-.028 0-.042 0-5.523-.023-9.982-4.518-9.959-10.041.015-3.765-1.352-7.065-3.659-8.825-4.39-3.351-5.232-9.627-1.881-14.017s9.627-5.232 14.017-1.881c7.256 5.539 11.564 14.812 11.523 24.804-.023 5.509-4.496 9.96-9.999 9.96z" fill="#ffb2c1"/></g><g><ellipse cx="127.133" cy="250.735" fill="#fd9bae" rx="19.25" ry="15.47"/><ellipse cx="353.666" cy="250.735" fill="#fd9bae" rx="19.25" ry="15.47"/><path d="m160.135 217.675c9.257 0 17.801 2.048 24.691 5.507 5.856 2.94 12.839-1.033 13.359-7.565.146-1.834.162-3.705.038-5.604-1.277-19.52-17.53-35.107-37.085-35.608-21.539-.552-39.174 16.744-39.174 38.159 0 1.087.046 2.163.135 3.226.543 6.457 7.548 10.303 13.338 7.395 6.891-3.46 15.438-5.51 24.698-5.51z" fill="#fff"/><path d="m240.399 263.863c-8.309 0-16.618-2.777-23.551-8.332-6.43-5.152-7.467-14.54-2.315-20.97 5.151-6.431 14.54-7.466 20.97-2.315 2.883 2.31 6.909 2.31 9.792 0 6.428-5.151 15.817-4.115 20.97 2.315 5.151 6.43 4.115 15.819-2.315 20.97-6.933 5.555-15.242 8.332-23.551 8.332z" fill="#383842"/><path d="m160.135 217.675c7.637 0 14.787 1.394 20.926 3.824 1.174-2.744 1.824-5.761 1.824-8.935 0-12.565-10.186-22.75-22.75-22.75s-22.75 10.186-22.75 22.75c0 3.174.65 6.191 1.824 8.935 6.139-2.429 13.289-3.824 20.926-3.824z" fill="#383842"/><path d="m320.664 217.675c9.257 0 17.801 2.048 24.691 5.507 5.856 2.94 12.839-1.033 13.359-7.565.146-1.834.162-3.705.038-5.604-1.277-19.52-17.53-35.107-37.085-35.608-21.539-.552-39.174 16.744-39.174 38.159 0 1.087.046 2.163.135 3.226.543 6.457 7.548 10.303 13.338 7.395 6.891-3.46 15.438-5.51 24.698-5.51z" fill="#fff"/><path d="m320.664 217.675c7.637 0 14.787 1.394 20.926 3.824 1.174-2.744 1.824-5.761 1.824-8.935 0-12.565-10.186-22.75-22.75-22.75-12.565 0-22.75 10.186-22.75 22.75 0 3.174.65 6.191 1.824 8.935 6.139-2.429 13.289-3.824 20.926-3.824z" fill="#383842"/></g><path d="m201.012 344.223c-9.483-22.791-38.422-29.887-57.258-13.932-16.789 14.221-35.957 35.064-51.858 64.556-9.566 17.74-2.938 39.877 14.803 49.443 5.508 2.969 11.44 4.379 17.288 4.379 12.987 0 25.559-6.95 32.155-19.182 10.885-20.188 24.012-34.226 34.844-43.425 12.092-10.269 16.121-27.193 10.026-41.839z" fill="url(#SVGID_7_)"/><path d="m279.787 344.223c9.483-22.791 38.422-29.887 57.258-13.932 16.789 14.221 35.957 35.064 51.858 64.556 9.566 17.74 2.938 39.877-14.803 49.443-5.508 2.969-11.44 4.379-17.288 4.379-12.987 0-25.559-6.95-32.155-19.182-10.885-20.188-24.012-34.226-34.844-43.425-12.092-10.269-16.121-27.193-10.026-41.839z" fill="url(#SVGID_8_)"/></g></svg>