<svg id="Capa_1" enable-background="new 0 0 502 502" height="512" viewBox="0 0 502 502" width="512" xmlns="http://www.w3.org/2000/svg" xmlns:xlink="http://www.w3.org/1999/xlink"><linearGradient id="SVGID_1_" gradientUnits="userSpaceOnUse" x1="251" x2="251" y1="17.672" y2="332.048"><stop offset="0" stop-color="#ff889e"/><stop offset=".9788" stop-color="#f5385d"/></linearGradient><linearGradient id="SVGID_2_" gradientUnits="userSpaceOnUse" x1="243.667" x2="502" y1="355.162" y2="355.162"><stop offset=".0212" stop-color="#ffb3dd"/><stop offset="1" stop-color="#ff88ca"/></linearGradient><linearGradient id="SVGID_3_" gradientUnits="userSpaceOnUse" x1="258.333" x2="0" y1="355.162" y2="355.162"><stop offset=".0212" stop-color="#ba99db"/><stop offset="1" stop-color="#8959c3"/></linearGradient><g><path d="m251 56.067c-129.647-126.704-342.5 85.535-28.86 268.182 17.857 10.399 39.863 10.399 57.72 0 313.64-182.647 100.787-394.886-28.86-268.182z" fill="url(#SVGID_1_)"/><circle cx="372.834" cy="355.162" fill="url(#SVGID_2_)" r="129.166"/><g><path d="m444.181 296.209c-2.616 0-5.229-1.02-7.191-3.049-3.115-3.222-6.483-6.185-10.01-8.807-4.433-3.294-5.355-9.558-2.061-13.991s9.558-5.355 13.991-2.061c4.398 3.269 8.59 6.955 12.459 10.958 3.839 3.971 3.732 10.302-.239 14.14-1.94 1.876-4.446 2.81-6.949 2.81z" fill="#ffc8e5"/></g><g><path d="m406.751 270.724c-1.205 0-2.43-.219-3.621-.682-6.633-2.579-13.62-4.361-20.767-5.296-5.476-.717-9.334-5.737-8.618-11.213.717-5.476 5.737-9.334 11.213-8.618 8.739 1.144 17.291 3.326 25.419 6.487 5.147 2.001 7.698 7.797 5.697 12.944-1.538 3.955-5.319 6.378-9.323 6.378z" fill="#ffc8e5"/></g><path d="m190.169 208.155c-18.795-7.832-39.402-12.159-61.002-12.159-15.496 0-30.478 2.235-44.65 6.384 12.438 20.07 29.87 40.806 53.174 61.675l50.637-15.845c5.711-1.787 10.409-5.891 12.947-11.31 5.151-10.995.102-24.075-11.106-28.745z" fill="#f5385d"/><circle cx="129.166" cy="355.162" fill="url(#SVGID_3_)" r="129.166"/><g><ellipse cx="42.505" cy="378.449" fill="#fdaece" rx="14.728" ry="11.836"/><ellipse cx="215.827" cy="378.449" fill="#fdaece" rx="14.728" ry="11.836"/><circle cx="67.756" cy="349.244" fill="#fff" r="29.205"/><ellipse cx="79.554" cy="349.244" fill="#383842" rx="17.406" ry="17.406" transform="matrix(.23 -.973 .973 .23 -278.625 346.431)"/><circle cx="190.577" cy="349.244" fill="#fff" r="29.205"/><g fill="#383842"><ellipse cx="202.315" cy="349.244" rx="17.406" ry="17.406" transform="matrix(.707 -.707 .707 .707 -187.696 245.349)"/><ellipse cx="129.166" cy="371.383" rx="13.067" ry="17.11"/></g></g><g><ellipse cx="286.173" cy="378.449" fill="#ff748f" rx="14.728" ry="11.836"/><ellipse cx="459.495" cy="378.449" fill="#ff748f" rx="14.728" ry="11.836"/><circle cx="311.423" cy="349.244" fill="#fff" r="29.205"/><ellipse cx="299.624" cy="349.244" fill="#383842" rx="17.406" ry="17.406" transform="matrix(.707 -.707 .707 .707 -159.195 314.157)"/><circle cx="434.244" cy="349.244" fill="#fff" r="29.205"/><g fill="#383842"><ellipse cx="422.446" cy="349.244" rx="17.406" ry="17.406" transform="matrix(.23 -.973 .973 .23 -14.514 680.149)"/><path d="m380.318 356.338h-14.969c-2.965 0-5.579 1.949-6.415 4.794-2.635 8.963-5.662 27.362 13.9 27.362s16.535-18.399 13.9-27.362c-.837-2.845-3.45-4.794-6.416-4.794z"/></g></g><g><ellipse cx="156.852" cy="158.663" fill="#fdaece" rx="16.001" ry="12.859"/><ellipse cx="345.148" cy="158.663" fill="#fdaece" rx="16.001" ry="12.859"/><path d="m184.283 131.183c7.695 0 14.797 1.702 20.524 4.578 4.867 2.444 10.672-.859 11.104-6.288.121-1.524.134-3.08.031-4.658-1.061-16.225-14.571-29.181-30.825-29.598-17.904-.459-32.562 13.918-32.562 31.718 0 .903.038 1.798.112 2.682.452 5.367 6.274 8.564 11.087 6.147 5.728-2.877 12.832-4.581 20.529-4.581z" fill="#fff"/><path d="m251 169.575c-6.907 0-13.813-2.308-19.576-6.925-5.345-4.282-6.207-12.086-1.925-17.431 4.282-5.346 12.086-6.206 17.431-1.925 2.396 1.92 5.743 1.92 8.139 0 5.343-4.282 13.147-3.421 17.431 1.925 4.282 5.345 3.42 13.149-1.925 17.431-5.762 4.617-12.668 6.925-19.575 6.925z" fill="#383842"/><path d="m184.283 131.183c6.348 0 12.291 1.159 17.394 3.178.976-2.281 1.516-4.789 1.516-7.427 0-10.444-8.466-18.91-18.91-18.91s-18.91 8.466-18.91 18.91c0 2.638.54 5.146 1.516 7.427 5.104-2.019 11.047-3.178 17.394-3.178z" fill="#383842"/><path d="m317.717 131.183c7.695 0 14.797 1.702 20.524 4.578 4.868 2.444 10.672-.859 11.104-6.288.121-1.524.134-3.08.031-4.658-1.061-16.225-14.571-29.181-30.825-29.598-17.904-.459-32.562 13.918-32.562 31.718 0 .903.038 1.798.112 2.682.452 5.367 6.274 8.564 11.087 6.147 5.727-2.877 12.832-4.581 20.529-4.581z" fill="#fff"/><path d="m317.717 131.183c6.348 0 12.291 1.159 17.394 3.178.976-2.281 1.516-4.789 1.516-7.427 0-10.444-8.466-18.91-18.91-18.91s-18.91 8.466-18.91 18.91c0 2.638.54 5.146 1.516 7.427 5.103-2.019 11.046-3.178 17.394-3.178z" fill="#383842"/></g></g></svg>