<svg id="Capa_1" enable-background="new 0 0 502 502" height="512" viewBox="0 0 502 502" width="512" xmlns="http://www.w3.org/2000/svg" xmlns:xlink="http://www.w3.org/1999/xlink"><linearGradient id="SVGID_1_" gradientUnits="userSpaceOnUse" x1="251" x2="251" y1="256.965" y2="105.83"><stop offset="0" stop-color="#ff889e"/><stop offset=".9788" stop-color="#f5385d"/></linearGradient><linearGradient id="lg1"><stop offset=".0212" stop-color="#ffb3dd"/><stop offset="1" stop-color="#ff88ca"/></linearGradient><linearGradient id="SVGID_2_" gradientUnits="userSpaceOnUse" x1="89.692" x2="89.692" xlink:href="#lg1" y1="225.04" y2="54.746"/><linearGradient id="SVGID_3_" gradientUnits="userSpaceOnUse" x1="412.308" x2="412.308" y1="54.746" y2="225.04"><stop offset=".0005580357" stop-color="#5bd6fd"/><stop offset=".9777" stop-color="#a4e6ff"/></linearGradient><linearGradient id="SVGID_4_" gradientUnits="userSpaceOnUse" x1="251" x2="251" y1="488.271" y2="337.136"><stop offset=".0206" stop-color="#76e6d5"/><stop offset="1" stop-color="#00c4a2"/></linearGradient><linearGradient id="SVGID_5_" gradientUnits="userSpaceOnUse" x1="89.692" x2="89.692" y1="456.346" y2="286.052"><stop offset=".0223" stop-color="#f9f2ab"/><stop offset=".9994" stop-color="#f6e66a"/></linearGradient><linearGradient id="SVGID_6_" gradientUnits="userSpaceOnUse" x1="412.308" x2="412.308" xlink:href="#lg1" y1="456.346" y2="286.052"/><linearGradient id="lg2"><stop offset=".0217" stop-color="#6a647f"/><stop offset="1" stop-color="#4f4c5f"/></linearGradient><linearGradient id="SVGID_7_" gradientUnits="userSpaceOnUse" x1="251" x2="251" xlink:href="#lg2" y1="13.729" y2="128.325"/><linearGradient id="SVGID_8_" gradientUnits="userSpaceOnUse" x1="251" x2="251" xlink:href="#lg2" y1="245.035" y2="359.631"/><g><path d="m164.35 105.83 63.375 136.289c9.204 19.794 37.347 19.794 46.551 0l63.374-136.289z" fill="url(#SVGID_1_)"/><path d="m6.452 54.746 23.019 148.53c3.343 21.572 30.378 29.39 44.719 12.932l98.741-113.319z" fill="url(#SVGID_2_)"/><path d="m495.548 54.746-23.019 148.53c-3.343 21.572-30.378 29.39-44.719 12.932l-98.741-113.319z" fill="url(#SVGID_3_)"/><path d="m164.35 337.136 63.375 136.289c9.204 19.794 37.347 19.794 46.551 0l63.375-136.289z" fill="url(#SVGID_4_)"/><path d="m6.452 286.052 23.019 148.53c3.343 21.572 30.378 29.39 44.719 12.932l98.741-113.319z" fill="url(#SVGID_5_)"/><path d="m495.548 286.052-23.019 148.53c-3.343 21.572-30.378 29.39-44.719 12.932l-98.741-113.319z" fill="url(#SVGID_6_)"/><g><path d="m446.43 414.618c-.519 0-1.043-.04-1.571-.124-5.455-.861-9.18-5.981-8.319-11.437.611-3.87 1.214-7.741 1.811-11.614.841-5.458 5.948-9.201 11.407-8.359 5.458.842 9.201 5.949 8.359 11.407-.601 3.896-1.207 7.791-1.822 11.684-.777 4.927-5.03 8.443-9.865 8.443z" fill="#ffc8e5"/></g><g><path d="m453.41 372.555c-.497 0-.999-.037-1.505-.114-5.461-.824-9.22-5.92-8.395-11.381 1.276-8.452 2.555-16.903 3.864-25.35.846-5.458 5.956-9.194 11.414-8.35 5.458.846 9.196 5.956 8.35 11.414-1.305 8.421-2.58 16.847-3.852 25.272-.748 4.955-5.013 8.509-9.876 8.509z" fill="#ffc8e5"/></g><path d="m84.316 97.46-39.046-37.062-38.818-5.653 7.543 48.674c16.796 8.532 34.334 16.125 52.452 22.744 11.286 4.123 23.244-4.172 23.244-16.188.001-4.732-1.943-9.257-5.375-12.515z" fill="#ff75c0"/><path d="m502 13.729c-1.617 1.165-3.247 2.324-4.903 3.472-31.869 22.088-68.759 39.576-109.646 51.98-43.58 13.222-89.489 19.925-136.451 19.925s-92.871-6.704-136.451-19.925c-40.886-12.403-77.776-29.892-109.646-51.98-1.656-1.148-3.286-2.307-4.903-3.472v47.593c67.129 40.864 154.92 67.003 251 67.003s183.871-26.139 251-67.003z" fill="url(#SVGID_7_)"/><path d="m228.906 356-64.556-18.864 22.673 48.758c12.057 1.41 24.204 2.422 36.404 3.034 9.571.479 17.574-7.21 17.574-16.794-.001-7.467-4.927-14.039-12.095-16.134z" fill="#00ad8d"/><path d="m502 245.035c-1.617 1.165-3.247 2.324-4.903 3.472-31.869 22.088-68.759 39.576-109.646 51.98-43.58 13.221-89.489 19.925-136.451 19.925s-92.871-6.704-136.451-19.925c-40.886-12.404-77.776-29.892-109.646-51.98-1.656-1.148-3.286-2.307-4.903-3.472v47.593c67.129 40.864 154.92 67.003 251 67.003s183.871-26.139 251-67.003z" fill="url(#SVGID_8_)"/></g></svg>