<svg id="Capa_1" enable-background="new 0 0 502 502" height="512" viewBox="0 0 502 502" width="512" xmlns="http://www.w3.org/2000/svg" xmlns:xlink="http://www.w3.org/1999/xlink"><linearGradient id="SVGID_1_" gradientUnits="userSpaceOnUse" x1="0" x2="217.428" y1="374.217" y2="374.217"><stop offset=".0223" stop-color="#f9f2ab"/><stop offset=".9994" stop-color="#f6e66a"/></linearGradient><linearGradient id="lg1"><stop offset=".0206" stop-color="#76e6d5"/><stop offset="1" stop-color="#00c4a2"/></linearGradient><linearGradient id="SVGID_2_" gradientUnits="userSpaceOnUse" x1="263.31" x2="502" xlink:href="#lg1" y1="373.386" y2="373.386"/><linearGradient id="SVGID_3_" gradientUnits="userSpaceOnUse" x1="284.572" x2="502" y1="127.783" y2="127.783"><stop offset=".0212" stop-color="#ba99db"/><stop offset="1" stop-color="#8959c3"/></linearGradient><linearGradient id="SVGID_4_" gradientUnits="userSpaceOnUse" x1="0" x2="238.691" xlink:href="#lg1" y1="126.953" y2="126.953"/><g><circle cx="108.714" cy="374.217" fill="url(#SVGID_1_)" r="108.714"/><g><path d="m113.448 464.643c-5.136 0-9.504-3.933-9.952-9.144-.473-5.503 3.605-10.347 9.107-10.82 4.123-.354 8.218-1.08 12.17-2.158 5.328-1.452 10.825 1.689 12.279 7.017 1.453 5.328-1.689 10.825-7.017 12.278-5.111 1.394-10.4 2.332-15.719 2.789-.292.026-.581.038-.868.038z" fill="#fffcdc"/></g><g><path d="m155.514 447.447c-3.06 0-6.08-1.399-8.042-4.047-3.288-4.437-2.357-10.7 2.081-13.988 4.683-3.47 8.906-7.505 12.553-11.993 3.483-4.286 9.781-4.937 14.067-1.454s4.937 9.781 1.454 14.067c-4.701 5.786-10.141 10.983-16.167 15.449-1.79 1.325-3.877 1.966-5.946 1.966z" fill="#fffcdc"/></g><g><ellipse cx="31.977" cy="388.453" fill="#fd9bae" rx="12.935" ry="10.395"/><ellipse cx="184.198" cy="388.453" fill="#fd9bae" rx="12.935" ry="10.395"/><circle cx="54.153" cy="362.804" fill="#fff" r="25.65"/><ellipse cx="64.516" cy="362.804" fill="#383842" rx="15.287" ry="15.287" transform="matrix(.23 -.973 .973 .23 -303.406 342.239)"/><circle cx="162.022" cy="362.804" fill="#fff" r="25.65"/><g fill="#383842"><ellipse cx="172.331" cy="362.804" rx="15.287" ry="15.287" transform="matrix(.707 -.707 .707 .707 -206.067 228.119)"/><ellipse cx="108.088" cy="382.248" rx="11.476" ry="15.027"/></g></g><path d="m406.303 277.689h-42.41c-52.852 0-95.697 42.845-95.697 95.697 0 19.632 5.916 37.881 16.056 53.069l-16.415 16.415c-9.673 9.673-2.822 26.213 10.858 26.213h127.608c52.852 0 95.697-42.845 95.697-95.697 0-52.852-42.845-95.697-95.697-95.697z" fill="url(#SVGID_2_)"/><g fill="#fff"><circle cx="385.098" cy="373.386" r="8.862"/><circle cx="342.856" cy="373.386" r="8.862"/><circle cx="427.34" cy="373.386" r="8.862"/></g><circle cx="393.286" cy="127.783" fill="url(#SVGID_3_)" r="108.714"/><g><path d="m449.48 82.765c-2.598 0-5.194-1.006-7.154-3.011-4.89-5.005-10.444-9.205-16.509-12.482-4.859-2.626-6.669-8.693-4.043-13.552 2.625-4.859 8.693-6.669 13.552-4.043 7.838 4.236 15.006 9.653 21.305 16.1 3.86 3.95 3.786 10.281-.164 14.141-1.944 1.9-4.467 2.847-6.987 2.847z" fill="#d5c3e9"/></g><g><path d="m401.75 56.904c-.478 0-.962-.034-1.449-.105-3.299-.479-6.673-.724-10.03-.729-5.523-.009-9.993-4.492-9.985-10.015s4.494-9.967 10.015-9.985c4.305.007 8.636.322 12.873.937 5.466.793 9.253 5.867 8.459 11.333-.722 4.978-4.996 8.564-9.883 8.564z" fill="#d5c3e9"/></g><g><ellipse cx="470.023" cy="142.02" fill="#fd9bae" rx="12.935" ry="10.395"/><ellipse cx="317.802" cy="142.02" fill="#fd9bae" rx="12.935" ry="10.395"/><circle cx="447.847" cy="116.371" fill="#fff" r="25.65"/><ellipse cx="437.484" cy="116.371" fill="#383842" rx="15.287" ry="15.287" transform="matrix(.973 -.23 .23 .973 -15.033 103.626)"/><circle cx="339.978" cy="116.371" fill="#fff" r="25.65"/><g fill="#383842"><ellipse cx="329.669" cy="116.371" rx="15.287" ry="15.287" transform="matrix(.707 -.707 .707 .707 14.272 267.196)"/><ellipse cx="393.912" cy="135.815" rx="11.476" ry="15.027"/></g></g><path d="m95.697 31.256h42.41c52.852 0 95.697 42.845 95.697 95.697 0 19.632-5.916 37.881-16.056 53.069l16.415 16.415c9.673 9.673 2.822 26.213-10.858 26.213h-127.608c-52.852-.001-95.697-42.846-95.697-95.697 0-52.853 42.845-95.697 95.697-95.697z" fill="url(#SVGID_4_)"/><circle cx="116.902" cy="126.952" fill="#fff" r="8.862"/><circle cx="159.144" cy="126.952" fill="#fff" r="8.862"/><circle cx="74.66" cy="126.952" fill="#fff" r="8.862"/></g></svg>