<svg id="Capa_1" enable-background="new 0 0 502 502" height="512" viewBox="0 0 502 502" width="512" xmlns="http://www.w3.org/2000/svg" xmlns:xlink="http://www.w3.org/1999/xlink"><linearGradient id="lg1"><stop offset=".0212" stop-color="#e99780"/><stop offset="1" stop-color="#d86743"/></linearGradient><linearGradient id="SVGID_1_" gradientUnits="userSpaceOnUse" x1="251" x2="251" xlink:href="#lg1" y1="462.744" y2="39.256"/><linearGradient id="SVGID_2_" gradientUnits="userSpaceOnUse" x1="251" x2="251" xlink:href="#lg1" y1="502" y2="423.487"/><linearGradient id="lg2"><stop offset="0" stop-color="#d86743"/><stop offset=".9788" stop-color="#e99780"/></linearGradient><linearGradient id="SVGID_3_" gradientUnits="userSpaceOnUse" x1="251" x2="251" xlink:href="#lg2" y1="78.513" y2="0"/><linearGradient id="SVGID_4_" gradientUnits="userSpaceOnUse" x1="251" x2="251" y1="296.741" y2="78.513"><stop offset=".0005580357" stop-color="#5bd6fd"/><stop offset=".9777" stop-color="#a4e6ff"/></linearGradient><linearGradient id="SVGID_5_" gradientUnits="userSpaceOnUse" x1="304.817" x2="304.817" y1="238.895" y2="127.355"><stop offset="0" stop-color="#4f4c5f"/><stop offset=".9783" stop-color="#6a647f"/></linearGradient><linearGradient id="SVGID_6_" gradientUnits="userSpaceOnUse" x1="321.361" x2="321.361" y1="423.487" y2="322.624"><stop offset="0" stop-color="#ff889e"/><stop offset=".9788" stop-color="#f5385d"/></linearGradient><linearGradient id="SVGID_7_" gradientUnits="userSpaceOnUse" x1="325.063" x2="325.063" y1="394.625" y2="329.112"><stop offset="0" stop-color="#da9d81"/><stop offset=".9995" stop-color="#c7856a"/></linearGradient><linearGradient id="SVGID_8_" gradientUnits="userSpaceOnUse" x1="316.026" x2="316.026" y1="369.144" y2="179.275"><stop offset=".0005103643" stop-color="#c7856a"/><stop offset="1" stop-color="#da9d81"/></linearGradient><linearGradient id="lg3"><stop offset=".0005580357" stop-color="#f7ac3e"/><stop offset=".9777" stop-color="#fccb88"/></linearGradient><linearGradient id="SVGID_9_" gradientUnits="userSpaceOnUse" x1="114.283" x2="114.283" xlink:href="#lg3" y1="248.6" y2="192.126"/><linearGradient id="SVGID_10_" gradientUnits="userSpaceOnUse" x1="188.557" x2="188.557" xlink:href="#lg3" y1="340.714" y2="220.098"/><linearGradient id="lg4"><stop offset="0" stop-color="#fbba99"/><stop offset="1" stop-color="#fbcfb9"/></linearGradient><linearGradient id="SVGID_11_" gradientUnits="userSpaceOnUse" x1="292.092" x2="250.162" xlink:href="#lg4" y1="340.714" y2="340.714"/><linearGradient id="SVGID_12_" gradientUnits="userSpaceOnUse" x1="180.244" x2="180.244" xlink:href="#lg4" y1="423.487" y2="271.488"/><linearGradient id="SVGID_13_" gradientUnits="userSpaceOnUse" x1="412.639" x2="486.206" xlink:href="#lg1" y1="251" y2="251"/><linearGradient id="SVGID_14_" gradientUnits="userSpaceOnUse" x1="15.794" x2="89.361" xlink:href="#lg2" y1="251" y2="251"/><g><path d="m89.361 423.487 157.884 39.257 165.394-39.257 36.784-171.286-36.784-173.688-161.639-39.257-161.639 39.257-36.784 173.688z" fill="url(#SVGID_1_)"/><path d="m468.905 479.753c-12.302 13.664-30.133 22.247-49.969 22.247h-335.872c-19.836 0-37.667-8.583-49.969-22.247l19.483-44.988 36.783-11.278h323.278l36.783 14.673z" fill="url(#SVGID_2_)"/><path d="m468.905 22.247-15.963 41.767-40.303 14.499h-323.278l-36.784-15.137-19.483-41.13c12.303-13.663 30.134-22.246 49.97-22.246h335.872c19.836 0 37.667 8.583 49.969 22.247z" fill="url(#SVGID_3_)"/><g><g><path d="m402.789 78.513h-303.578-9.85v9.84 107.825l157.884 100.563 165.394-135.559v-72.829-9.84z" fill="url(#SVGID_4_)"/><path d="m412.639 161.182v43.174l-14.724 31.1-196.48 3.439c-10.692-17.602-1.174-40.524 18.849-45.377l-.01-.104c-3.138-20.335 14.381-37.854 34.716-34.716l.104.01c3.471-14.339 16.22-23.286 29.635-23.286 5.32 0 10.744 1.403 15.742 4.437l.042-.052c12.157-16.604 36.95-16.604 49.107 0l.042.052c4.998-3.034 10.422-4.437 15.742-4.437 13.415 0 26.164 8.947 29.635 23.286l.104-.01c6.274-.966 12.28.032 17.496 2.484z" fill="url(#SVGID_5_)"/><path d="m270.306 353.869-40.223 69.618h172.706 9.85v-9.84-91.023z" fill="url(#SVGID_6_)"/><circle cx="325.063" cy="361.869" fill="url(#SVGID_7_)" r="32.756"/><path d="m412.393 203.993c-14.622-21.424-42.069-30.083-66.495-21.355-1.736.62-3.371 1.239-4.903 1.846-10.241 4.057-21.617 4.058-31.858.001-1.53-.606-3.164-1.224-4.899-1.844-24.581-8.783-52.121.101-66.747 21.722-11.413 16.871-18.079 37.219-18.079 59.128 0 3.117.135 6.204.405 9.248 2.982 34.425 22.465 64.111 50.489 81.131 15.971 9.695 34.716 15.275 54.76 15.275 36.44 0 68.569-18.444 87.573-46.52v-118.269c-.081-.121-.164-.242-.246-.363z" fill="url(#SVGID_8_)"/><g><ellipse cx="258.009" cy="252.201" fill="#fd9bae" rx="11.396" ry="9.158"/><ellipse cx="392.117" cy="252.201" fill="#fd9bae" rx="11.396" ry="9.158"/><circle cx="277.546" cy="229.603" fill="#fff" r="22.598"/><ellipse cx="268.417" cy="229.603" fill="#383842" rx="13.468" ry="13.468" transform="matrix(.707 -.707 .707 .707 -83.737 257.049)"/><circle cx="372.58" cy="229.603" fill="#fff" r="22.598"/><g fill="#383842"><ellipse cx="363.451" cy="229.603" rx="13.468" ry="13.468" transform="matrix(.23 -.973 .973 .23 56.485 530.579)"/><path d="m330.854 235.092h-11.583c-2.294 0-4.317 1.508-4.964 3.709-2.039 6.935-4.381 21.171 10.755 21.171s12.794-14.236 10.755-21.171c-.646-2.201-2.668-3.709-4.963-3.709z"/></g></g><path d="m89.361 248.6v-52.422c4.78-2.587 10.256-4.052 16.064-4.052 17.831 0 32.44 13.768 33.78 31.245z" fill="url(#SVGID_9_)"/><path d="m104.756 213.881c-5.299 2.605-10.443 5.545-15.395 8.812v25.907l18.935-3.55 10.915-10.922c4.019-4.022 4.849-10.237 2.025-15.172-3.3-5.766-10.519-8.006-16.48-5.075z" fill="#f7ac3e"/><path d="m89.361 281.57v-32.97c21.01-17.779 48.161-28.502 77.775-28.502 66.511 0 120.616 54.105 120.616 120.616h-16.625z" fill="url(#SVGID_10_)"/><circle cx="271.127" cy="340.714" fill="url(#SVGID_11_)" r="20.965"/><path d="m271.127 340.714c0 4.458-.281 8.853-.821 13.155-3.585 28.346-18.568 53.139-40.223 69.618h-140.722v-141.917c7.357-5.071 15.96-8.406 25.239-9.456 7.959-.914 15.233-.769 21.81.062 15.202 1.922 26.621 7.513 33.947 12.292 5.819 3.793 13.363 3.803 19.171.021 6.671-4.354 16.729-9.383 29.946-11.7.114-.021.229-.042.343-.052 16.075-2.681 32.056 5.518 39.599 19.981 7.482 14.361 11.711 30.685 11.711 47.996z" fill="url(#SVGID_12_)"/><g><ellipse cx="112.673" cy="357.472" fill="#fd9bae" rx="11.435" ry="9.19"/><ellipse cx="247.245" cy="357.472" fill="#fd9bae" rx="11.435" ry="9.19"/><circle cx="132.278" cy="334.796" fill="#fff" r="22.676"/><circle cx="227.64" cy="334.796" fill="#fff" r="22.676"/><g fill="#383842"><g><circle cx="132.278" cy="334.796" r="13.515"/><circle cx="227.64" cy="334.796" r="13.515"/></g><path d="m179.959 359.374c-4.3 0-8.601-1.626-12.109-4.879-2.025-1.877-2.145-5.041-.267-7.066 1.877-2.025 5.042-2.145 7.066-.267 3.177 2.945 7.445 2.946 10.621 0 2.025-1.876 5.188-1.759 7.066.267 1.877 2.025 1.758 5.188-.267 7.066-3.509 3.252-7.809 4.879-12.11 4.879z"/></g></g></g></g><path d="m486.206 67.28v367.44c0 17.321-6.536 33.105-17.301 45.034l-56.266-56.266v-344.975l56.266-56.266c10.765 11.928 17.301 27.712 17.301 45.033z" fill="url(#SVGID_13_)"/><g><path d="m456.206 178.627c-5.523 0-10-4.477-10-10v-23.255c0-5.523 4.477-10 10-10s10 4.477 10 10v23.255c0 5.523-4.477 10-10 10z" fill="#f5ccc2"/></g><g><path d="m456.206 123.627c-5.523 0-10-4.477-10-10v-10.255c0-5.523 4.477-10 10-10s10 4.477 10 10v10.255c0 5.523-4.477 10-10 10z" fill="#f5ccc2"/></g><path d="m89.361 78.513v344.974l-56.266 56.266c-10.765-11.929-17.301-27.712-17.301-45.034v-367.439c0-17.321 6.536-33.105 17.301-45.034z" fill="url(#SVGID_14_)"/></g></svg>