<svg id="Capa_1" enable-background="new 0 0 502 502" height="512" viewBox="0 0 502 502" width="512" xmlns="http://www.w3.org/2000/svg" xmlns:xlink="http://www.w3.org/1999/xlink"><linearGradient id="lg1"><stop offset="0" stop-color="#ff88ca"/><stop offset=".9788" stop-color="#ffb3dd"/></linearGradient><linearGradient id="SVGID_1_" gradientUnits="userSpaceOnUse" x1="251" x2="251" xlink:href="#lg1" y1="389.04" y2="0"/><linearGradient id="SVGID_2_" gradientUnits="userSpaceOnUse" x1="235.246" x2="235.246" xlink:href="#lg1" y1="502" y2="340.646"/><linearGradient id="SVGID_3_" gradientUnits="userSpaceOnUse" x1="239.406" x2="239.406" xlink:href="#lg1" y1="446.14" y2="235.151"/><linearGradient id="SVGID_4_" gradientUnits="userSpaceOnUse" x1="251" x2="251" xlink:href="#lg1" y1="362.421" y2="0"/><linearGradient id="lg2"><stop offset="0" stop-color="#ffdcce"/><stop offset=".9788" stop-color="#ffd3bc"/></linearGradient><linearGradient id="SVGID_5_" gradientUnits="userSpaceOnUse" x1="92.665" x2="161.41" xlink:href="#lg2" y1="168.219" y2="168.219"/><linearGradient id="SVGID_6_" gradientUnits="userSpaceOnUse" x1="357.775" x2="392.153" y1="138.446" y2="197.991"><stop offset=".0212" stop-color="#ffd3bc"/><stop offset="1" stop-color="#ffdcce"/></linearGradient><linearGradient id="SVGID_7_" gradientUnits="userSpaceOnUse" x1="251.001" x2="251.001" xlink:href="#lg2" y1="288.182" y2="46.255"/><linearGradient id="lg3"><stop offset="0" stop-color="#ff889e"/><stop offset=".9788" stop-color="#f5385d"/></linearGradient><linearGradient id="SVGID_8_" gradientUnits="userSpaceOnUse" x1="169.499" x2="241.79" xlink:href="#lg3" y1="46.255" y2="46.255"/><linearGradient id="SVGID_9_" gradientUnits="userSpaceOnUse" x1="260.211" x2="332.502" y1="46.255" y2="46.255"><stop offset=".0212" stop-color="#f5385d"/><stop offset="1" stop-color="#ff889e"/></linearGradient><linearGradient id="SVGID_10_" gradientUnits="userSpaceOnUse" x1="251.001" x2="251.001" xlink:href="#lg3" y1="27.257" y2="65.254"/><g><path d="m76.861 235.151-6.06-33.27c-10.16-55.73 9.13-109.229 46.62-147.139 30.79-31.14 73.86-51.76 122.989-54.45 7.05-.39 14.13-.39 21.18 0 108.93 5.971 188.11 100.08 169.61 201.59l-29.25 160.539-57.038 26.619-217.874-48.394z" fill="url(#SVGID_1_)"/><path d="m100.631 365.611 3.57 19.6c12.29 67.479 74.27 116.789 146.8 116.789 36.26 0 69.89-12.33 95.99-33.09 8.48-6.74 16.16-14.38 22.87-22.77l-24.948-57.1-217.874-48.394z" fill="url(#SVGID_2_)"/><path d="m176.262 400.931-49.225-60.285-26.406 24.965 3.57 19.6c1.282 7.038 3.111 13.875 5.43 20.482 14.826 8.152 30.243 15.643 46.198 22.457 11.549 4.932 24.383-3.576 24.383-16.134 0-4.041-1.395-7.956-3.95-11.085z" fill="#ff75c0"/><path d="m401.95 362.421-4.15 22.79c-4.15 22.78-13.96 43.49-27.94 60.93-46.04-2.83-89.77-9.8-130.629-20.84-49.63-13.41-95.209-32.83-135.469-57.73-1.05-.65-2.1-1.3-3.13-1.96l-23.77-130.459c27.219 32.419 121.179 122.829 325.088 127.269z" fill="url(#SVGID_3_)"/><path d="m261.591.293c-7.05-.39-14.13-.39-21.18 0-49.129 2.69-92.199 23.31-122.989 54.45-37.49 37.91-56.78 91.41-46.62 147.139l6.06 33.27c27.22 32.42 121.18 122.829 325.089 127.27l29.25-160.54c18.499-101.51-60.681-195.619-169.61-201.589z" fill="url(#SVGID_4_)"/><g><path d="m381.738 306.776c-.608 0-1.224-.056-1.844-.171-5.429-1.012-9.01-6.234-7.999-11.663 1.381-7.411 2.79-14.817 4.199-22.223l.192-1.01c1.032-5.425 6.268-8.987 11.693-7.955 5.426 1.032 8.987 6.267 7.955 11.693l-.192 1.011c-1.404 7.381-2.809 14.762-4.186 22.149-.896 4.809-5.097 8.169-9.818 8.169z" fill="#ffc8e5"/></g><g><path d="m393.341 252.791c-.598 0-1.204-.054-1.814-.166-5.432-.995-9.029-6.206-8.034-11.638.578-3.154 1.149-6.309 1.711-9.466.968-5.437 6.161-9.06 11.598-8.092s9.06 6.161 8.092 11.598c-.568 3.189-1.145 6.377-1.729 9.563-.882 4.824-5.089 8.201-9.824 8.201z" fill="#ffc8e5"/></g><circle cx="127.037" cy="168.219" fill="url(#SVGID_5_)" r="34.372"/><circle cx="374.964" cy="168.219" fill="url(#SVGID_6_)" r="34.372"/><path d="m376.964 172.219c0 69.568-56.396 115.963-125.963 115.963s-125.963-46.396-125.963-115.963 56.395-125.964 125.963-125.964 125.963 56.396 125.963 125.964z" fill="url(#SVGID_7_)"/><path d="m225.289 85.361c-1.922-4.391-5.485-7.855-9.928-9.655l-28.874-11.692c-12.083 7.221-22.854 16.409-31.875 27.121.453.918.919 1.82 1.411 2.688 7.767 13.705 20.862 21.565 35.93 21.565 7.753 0 15.821-1.998 24.34-6.045 8.981-4.266 12.984-14.874 8.996-23.982z" fill="#ffcabd"/><path d="m241.79 60.622s-72.291 80.259-72.291-14.367 72.291-14.367 72.291-14.367z" fill="url(#SVGID_8_)"/><path d="m260.211 60.622s72.291 80.259 72.291-14.367-72.291-14.367-72.291-14.367z" fill="url(#SVGID_9_)"/><path d="m255.484 27.257h-8.967c-10.492 0-18.998 8.506-18.998 18.998 0 10.492 8.506 18.998 18.998 18.998h8.967c10.492 0 18.998-8.506 18.998-18.998 0-10.492-8.506-18.998-18.998-18.998z" fill="url(#SVGID_10_)"/><g><ellipse cx="157.089" cy="196.454" fill="#fd9bae" rx="15.961" ry="12.826"/><ellipse cx="344.912" cy="196.454" fill="#fd9bae" rx="15.96" ry="12.826"/><circle cx="184.452" cy="164.805" fill="#fff" r="31.648"/><circle cx="317.549" cy="164.805" fill="#fff" r="31.648"/><path d="m194.905 175.437c-2.647 0-5.214-1.404-6.579-3.889-1.137-2.067-3.088-2.291-3.875-2.291-.786 0-2.737.224-3.874 2.291-1.995 3.629-6.556 4.955-10.185 2.959-3.63-1.995-4.955-6.556-2.959-10.186 3.413-6.208 9.934-10.065 17.019-10.065s13.606 3.857 17.019 10.065c1.996 3.63.67 8.19-2.959 10.186-1.146.63-2.385.93-3.607.93z" fill="#383842"/><path d="m328.003 175.437c-2.647 0-5.213-1.404-6.579-3.888-1.137-2.068-3.088-2.292-3.875-2.292s-2.738.224-3.875 2.292c-1.996 3.629-6.558 4.955-10.186 2.959-3.63-1.996-4.955-6.556-2.959-10.186 3.413-6.208 9.935-10.065 17.019-10.065s13.606 3.857 17.019 10.065c1.996 3.63.671 8.19-2.959 10.186-1.145.629-2.384.929-3.605.929z" fill="#383842"/><g><path d="m263.472 207.339h-24.942c-6.955 0-12.592-5.638-12.592-12.592 0-6.955 5.638-12.592 12.592-12.592h24.942c6.955 0 12.592 5.638 12.592 12.592 0 6.954-5.638 12.592-12.592 12.592z" fill="#383842"/></g></g></g></svg>