<svg id="Capa_1" enable-background="new 0 0 502 502" height="512" viewBox="0 0 502 502" width="512" xmlns="http://www.w3.org/2000/svg" xmlns:xlink="http://www.w3.org/1999/xlink"><linearGradient id="lg1"><stop offset="0" stop-color="#fbba99"/><stop offset="1" stop-color="#fbcfb9"/></linearGradient><linearGradient id="SVGID_1_" gradientUnits="userSpaceOnUse" x1="159.156" x2="159.156" xlink:href="#lg1" y1="436.364" y2="309.181"/><linearGradient id="lg2"><stop offset="0" stop-color="#fbcfb9"/><stop offset="1" stop-color="#fbba99"/></linearGradient><linearGradient id="SVGID_2_" gradientUnits="userSpaceOnUse" x1="256.117" x2="429.57" xlink:href="#lg2" y1="372.773" y2="372.773"/><linearGradient id="SVGID_3_" gradientUnits="userSpaceOnUse" x1="251" x2="251" y1="459.795" y2="298.562"><stop offset=".0206" stop-color="#76e6d5"/><stop offset="1" stop-color="#00c4a2"/></linearGradient><linearGradient id="SVGID_4_" gradientUnits="userSpaceOnUse" x1="251" x2="251" xlink:href="#lg2" y1="384.937" y2="305.903"/><linearGradient id="SVGID_5_" gradientUnits="userSpaceOnUse" x1="348.679" x2="229.468" xlink:href="#lg2" y1="460.321" y2="460.321"/><linearGradient id="SVGID_6_" gradientUnits="userSpaceOnUse" x1="272.532" x2="153.321" xlink:href="#lg2" y1="460.321" y2="460.321"/><linearGradient id="lg3"><stop offset="0" stop-color="#4f4c5f"/><stop offset=".9783" stop-color="#6a647f"/></linearGradient><linearGradient id="SVGID_7_" gradientUnits="userSpaceOnUse" x1="155.716" x2="155.716" xlink:href="#lg3" y1="502" y2="418.642"/><linearGradient id="SVGID_8_" gradientUnits="userSpaceOnUse" x1="346.284" x2="346.284" xlink:href="#lg3" y1="502" y2="418.642"/><linearGradient id="SVGID_9_" gradientUnits="userSpaceOnUse" x1="251.001" x2="251.001" y1="188.404" y2="0"><stop offset=".0005580357" stop-color="#f7ac3e"/><stop offset=".9777" stop-color="#fccb88"/></linearGradient><linearGradient id="lg4"><stop offset=".0223" stop-color="#fccb88"/><stop offset=".9994" stop-color="#f7ac3e"/></linearGradient><linearGradient id="SVGID_10_" gradientUnits="userSpaceOnUse" x1="55.592" x2="152.745" xlink:href="#lg4" y1="238.111" y2="238.111"/><linearGradient id="SVGID_11_" gradientUnits="userSpaceOnUse" x1="349.255" x2="446.408" xlink:href="#lg4" y1="238.111" y2="238.111"/><linearGradient id="SVGID_12_" gradientUnits="userSpaceOnUse" x1="131.335" x2="55.041" xlink:href="#lg1" y1="187.63" y2="187.63"/><linearGradient id="SVGID_13_" gradientUnits="userSpaceOnUse" x1="375.77" x2="441.854" xlink:href="#lg1" y1="168.553" y2="206.707"/><linearGradient id="SVGID_14_" gradientUnits="userSpaceOnUse" x1="251" x2="251" xlink:href="#lg1" y1="345.441" y2="72.036"/><g><g><path d="m108.38 436.364c-17.258 0-32.495-12.45-35.448-30.035-3.292-19.6 9.931-38.159 29.532-41.449 49.768-8.356 84.864-55.226 85.213-55.699l-.094.13 58.3 42.209c-2.095 2.894-52.226 71.032-131.501 84.341-2.016.338-4.024.503-6.002.503z" fill="url(#SVGID_1_)"/></g><g><path d="m393.62 436.364c17.258 0 32.495-12.45 35.448-30.035 3.292-19.6-9.931-38.159-29.532-41.449-49.768-8.356-84.865-55.226-85.213-55.699l.094.13-58.3 42.209c2.095 2.894 52.226 71.032 131.501 84.341 2.016.338 4.024.503 6.002.503z" fill="url(#SVGID_2_)"/></g><path d="m356.351 459.795c8.791-90.42-43.395-161.233-43.395-161.233h-123.912s-52.186 70.813-43.395 161.233z" fill="url(#SVGID_3_)"/><path d="m235.271 340.308-46.227-41.747s-13.879 18.833-26.116 49.476c18.293 10.04 38.211 16.845 59.034 20.126 9.774 1.54 18.618-6.013 18.618-15.908 0-4.553-1.929-8.895-5.309-11.947z" fill="#00c4a2"/><circle cx="251" cy="345.42" fill="url(#SVGID_4_)" r="39.517"/><path d="m229.468 460.326c0 23.012 18.662 41.674 41.674 41.674h41.818l35.72-42.205-35.72-41.153h-41.818c-11.506 0-21.922 4.668-29.469 12.205-7.537 7.547-12.205 17.963-12.205 29.479z" fill="url(#SVGID_5_)"/><path d="m272.532 460.326c0 23.012-18.662 41.674-41.674 41.674h-41.818l-35.72-42.205 35.72-41.153h41.818c11.506 0 21.922 4.668 29.469 12.205 7.537 7.547 12.205 17.963 12.205 29.479z" fill="url(#SVGID_6_)"/><path d="m189.041 418.642v83.358h-24.965c-11.516 0-21.932-4.668-29.479-12.205-7.537-7.547-12.205-17.963-12.205-29.469 0-23.022 18.662-41.684 41.684-41.684z" fill="url(#SVGID_7_)"/><path d="m312.959 418.642v83.358h24.965c11.516 0 21.932-4.668 29.479-12.205 7.537-7.547 12.205-17.963 12.205-29.469 0-23.022-18.662-41.684-41.684-41.684z" fill="url(#SVGID_8_)"/><path d="m63.373 188.404v-1.547c.203-50.163 19.799-97.17 55.179-132.36 35.332-35.143 82.357-54.497 132.415-54.497 1.04 0 2.083.009 3.128.026 49.471.802 95.851 20.673 130.594 55.951 34.784 35.319 53.94 82.075 53.94 131.653z" fill="url(#SVGID_9_)"/><g><path d="m345.072 71.131c-2.08 0-4.177-.646-5.972-1.985-6.987-5.213-14.444-9.817-22.162-13.682-4.938-2.473-6.937-8.481-4.463-13.419 2.473-4.938 8.481-6.936 13.419-4.463 8.77 4.392 17.237 9.619 25.166 15.535 4.427 3.303 5.338 9.568 2.035 13.995-1.963 2.63-4.974 4.019-8.023 4.019z" fill="#ffe9cc"/></g><g><path d="m290.506 43.774c-.885 0-1.785-.118-2.68-.367-3.819-1.06-7.745-1.98-11.67-2.736-5.423-1.044-8.974-6.286-7.93-11.71s6.287-8.973 11.71-7.93c4.451.857 8.905 1.901 13.24 3.104 5.322 1.477 8.438 6.989 6.961 12.31-1.23 4.428-5.251 7.329-9.631 7.329z" fill="#ffe9cc"/></g><path d="m115.566 188.404h-52.193c0 21.094-2.928 39.7-6.714 54.94-5.62 22.625 11.678 44.475 34.991 44.475h61.095z" fill="url(#SVGID_10_)"/><path d="m386.434 188.404h52.193c0 21.094 2.928 39.7 6.714 54.94 5.62 22.625-11.678 44.475-34.991 44.475h-61.095z" fill="url(#SVGID_11_)"/><circle cx="93.188" cy="187.63" fill="url(#SVGID_12_)" r="38.147"/><circle cx="408.812" cy="187.63" fill="url(#SVGID_13_)" r="38.147"/><path d="m217.584 324.336c-3.859 6.103-6.102 13.33-6.102 21.084 0 8.194 2.495 15.806 6.766 22.118 1.235.22 2.473.43 3.714.626 9.774 1.54 18.618-6.013 18.618-15.908 0-4.554-1.929-8.896-5.309-11.948z" fill="#ffbe9c"/><path d="m402.633 143.779c-6.021-20.843-25.015-35.253-46.711-35.253h-38.916c-12.535 0-24.551-5.011-33.371-13.918l-15.118-15.266c-4.63-4.675-10.937-7.306-17.517-7.306s-12.887 2.63-17.517 7.306l-15.118 15.266c-8.821 8.907-20.836 13.918-33.371 13.918h-38.975c-21.696 0-40.737 14.397-46.712 35.254-3.926 13.704-6.055 28.191-6.116 43.198v1.306c.357 88.243 72.189 158.568 160.421 157.137 85.955-1.394 155.2-71.503 155.2-157.79-.002-15.218-2.158-29.931-6.179-43.852z" fill="url(#SVGID_14_)"/><g><ellipse cx="140.348" cy="228.614" fill="#fd9bae" rx="18.806" ry="15.113"/><ellipse cx="361.652" cy="228.614" fill="#fd9bae" rx="18.806" ry="15.113"/><circle cx="172.588" cy="191.324" fill="#fff" r="37.29"/><circle cx="329.412" cy="191.324" fill="#fff" r="37.29"/><g fill="#383842"><g><circle cx="172.588" cy="191.324" r="22.225"/><circle cx="329.412" cy="191.324" r="22.225"/></g><path d="m251 228.495c-6.294 0-12.588-2.38-17.723-7.141-2.025-1.877-2.145-5.041-.268-7.066 1.878-2.025 5.041-2.145 7.066-.267 6.432 5.963 15.416 5.963 21.848 0 2.024-1.876 5.188-1.758 7.066.267 1.877 2.025 1.758 5.188-.268 7.066-5.133 4.761-11.427 7.141-17.721 7.141z"/></g></g></g></svg>