<svg id="Capa_1" enable-background="new 0 0 502.076 502.076" height="512" viewBox="0 0 502.076 502.076" width="512" xmlns="http://www.w3.org/2000/svg" xmlns:xlink="http://www.w3.org/1999/xlink"><linearGradient id="SVGID_1_" gradientUnits="userSpaceOnUse" x1="106.392" x2="242.481" y1="69.536" y2="69.536"><stop offset="0" stop-color="#ff889e"/><stop offset=".9788" stop-color="#f5385d"/></linearGradient><linearGradient id="lg1"><stop offset=".0212" stop-color="#f5385d"/><stop offset="1" stop-color="#ff889e"/></linearGradient><linearGradient id="SVGID_2_" gradientUnits="userSpaceOnUse" x1="259.595" x2="395.684" xlink:href="#lg1" y1="69.536" y2="69.536"/><linearGradient id="SVGID_3_" gradientUnits="userSpaceOnUse" x1="251.038" x2="251.038" xlink:href="#lg1" y1="117.162" y2="52.1"/><linearGradient id="lg2"><stop offset=".0223" stop-color="#fccb88"/><stop offset=".9994" stop-color="#f7ac3e"/></linearGradient><linearGradient id="SVGID_4_" gradientUnits="userSpaceOnUse" x1="51.374" x2="180.436" xlink:href="#lg2" y1="126.685" y2="126.685"/><linearGradient id="SVGID_5_" gradientUnits="userSpaceOnUse" x1="36.349" x2="130.122" y1="162.017" y2="162.017"><stop offset=".0212" stop-color="#fdb0bf"/><stop offset="1" stop-color="#fd869c"/></linearGradient><linearGradient id="lg3"><stop offset=".0005580357" stop-color="#f7ac3e"/><stop offset=".9777" stop-color="#fccb88"/></linearGradient><linearGradient id="SVGID_6_" gradientUnits="userSpaceOnUse" x1="321.64" x2="450.702" xlink:href="#lg3" y1="126.685" y2="126.685"/><linearGradient id="SVGID_7_" gradientUnits="userSpaceOnUse" x1="371.954" x2="465.727" y1="162.017" y2="162.017"><stop offset="0" stop-color="#fd869c"/><stop offset=".9788" stop-color="#fdb0bf"/></linearGradient><linearGradient id="SVGID_8_" gradientUnits="userSpaceOnUse" x1="205.642" x2="205.642" xlink:href="#lg2" y1="502.076" y2="351.423"/><linearGradient id="SVGID_9_" gradientUnits="userSpaceOnUse" x1="251.038" x2="251.038" y1="380.398" y2="207.793"><stop offset="0" stop-color="#d0d7d7"/><stop offset="1" stop-color="#efefef"/></linearGradient><linearGradient id="SVGID_10_" gradientUnits="userSpaceOnUse" x1="251.038" x2="251.038" xlink:href="#lg3" y1="306.867" y2="97.949"/><g><path d="m154.546 0c-37.58 0-48.154 33.448-48.154 71.028s30.465 68.044 68.044 68.044c37.58 0 68.044-30.465 68.044-68.044.001-37.58-50.354-71.028-87.934-71.028z" fill="url(#SVGID_1_)"/><path d="m347.53 0c37.58 0 48.154 33.448 48.154 71.028s-30.465 68.044-68.044 68.044c-37.58 0-68.044-30.465-68.044-68.044-.001-37.58 50.354-71.028 87.934-71.028z" fill="url(#SVGID_2_)"/><g><path d="m217.864 93.447c-.447-1.049-11.416-25.69-51.551-25.69-5.493 0-9.945-4.453-9.945-9.945s4.453-9.945 9.945-9.945c54.119 0 69.356 36.538 69.979 38.094l-18.468 7.387z" fill="#f5385d"/></g><g><path d="m284.212 93.447c.447-1.049 11.416-25.69 51.551-25.69 5.493 0 9.945-4.453 9.945-9.945s-4.453-9.945-9.945-9.945c-54.119 0-69.356 36.538-69.979 38.094l18.468 7.387z" fill="#f5385d"/></g><path d="m251.038 52.1c-21.689 0-39.271 17.582-39.271 39.271v25.791h78.542v-25.791c0-21.689-17.582-39.271-39.271-39.271z" fill="url(#SVGID_3_)"/><path d="m51.374 84.861c7.31-6.673 16.887-10.9 27.409-11.407 70.921-3.411 101.652 40.06 101.652 40.06l-50.314 66.594z" fill="url(#SVGID_4_)"/><path d="m130.122 180.108-44.625 59.066c-48.056-33.516-51.706-90.085-48.136-126.356 1.094-11.079 6.285-20.885 14.013-27.956 37.654 19.571 66.445 53.863 78.748 95.246z" fill="url(#SVGID_5_)"/><path d="m450.702 84.861c-7.31-6.673-16.887-10.9-27.409-11.407-70.921-3.411-101.652 40.06-101.652 40.06l50.314 66.594z" fill="url(#SVGID_6_)"/><path d="m371.954 180.108 44.625 59.066c48.056-33.516 51.706-90.085 48.136-126.356-1.094-11.079-6.285-20.885-14.013-27.956-37.654 19.571-66.446 53.863-78.748 95.246z" fill="url(#SVGID_7_)"/><path d="m324.971 351.423-184.905 13.138s-37.494 18.409-51.388 54.849c-2.586 6.783-3.859 13.943-3.859 21.104 0 6.743 1.124 13.496 3.332 19.97 7.907 23.232 28.802 39.344 52.919 41.373l9.201-6.238 10.414 6.273 38.513.068 9.574-6.341 13.285 6.381 23.226.041 9.891-6.422 9.945 6.457h7.688c15.366 0 29.409-8.951 35.654-22.984 25.351-57.057 16.51-127.669 16.51-127.669z" fill="url(#SVGID_8_)"/><path d="m165.574 372.324-13.284-10.14-12.382 2.301s-12.763 6.277-26.155 18.734c11.015 7.947 23.011 14.237 35.679 18.755 11.138 3.973 22.858-4.251 22.858-16.076 0-5.324-2.483-10.343-6.716-13.574z" fill="#f59e18"/><path d="m86.492 292.033c4.963 21.084 15.744 39.921 30.562 54.729 20.786 20.786 49.488 33.635 81.204 33.635h105.56c54.312 0 99.822-37.703 111.766-88.365l-53.42-84.24h-203.366z" fill="url(#SVGID_9_)"/><path d="m418.658 265.568c0 9.11-1.064 17.971-3.073 26.465-117.704 56.162-115.774-65.242-164.546-65.242s-46.843 121.403-164.546 65.242c-2.009-8.493-3.073-17.355-3.073-26.465 0-92.582 75.048-167.62 167.62-167.62 46.286 0 88.196 18.757 118.529 49.09s49.089 72.234 49.089 118.53z" fill="url(#SVGID_10_)"/><g><path d="m318.929 155.792c-1.676 0-3.374-.422-4.935-1.31-4.562-2.595-9.345-4.926-14.218-6.929-5.108-2.1-7.547-7.943-5.447-13.051s7.944-7.547 13.051-5.447c5.654 2.324 11.206 5.03 16.503 8.043 4.801 2.731 6.479 8.836 3.748 13.636-1.843 3.241-5.224 5.058-8.702 5.058z" fill="#ffe9cc"/></g><g><path d="m275.059 138.414c-.62 0-1.249-.058-1.88-.178-2.43-.462-4.916-.862-7.387-1.188-5.475-.722-9.328-5.747-8.606-11.222.722-5.476 5.75-9.33 11.222-8.606 2.845.375 5.707.836 8.508 1.369 5.426 1.032 8.987 6.267 7.955 11.692-.912 4.794-5.106 8.133-9.812 8.133z" fill="#ffe9cc"/></g><g><ellipse cx="139.911" cy="316.2" fill="#fd9bae" rx="18.886" ry="15.178"/><ellipse cx="362.165" cy="316.2" fill="#fd9bae" rx="18.886" ry="15.178"/><circle cx="172.29" cy="278.75" fill="#fff" r="37.45"/><circle cx="329.786" cy="278.75" fill="#fff" r="37.45"/><g fill="#383842"><g><circle cx="172.29" cy="278.75" r="22.32"/><circle cx="329.786" cy="278.75" r="22.32"/></g><path d="m251.038 316.06c-6.315 0-12.632-2.389-17.784-7.166-2.025-1.877-2.145-5.041-.268-7.066 1.878-2.025 5.043-2.145 7.066-.267 6.469 5.997 15.502 5.997 21.971 0 2.023-1.876 5.188-1.758 7.066.267 1.877 2.025 1.758 5.188-.268 7.066-5.151 4.777-11.468 7.166-17.783 7.166z"/></g></g><path d="m266.411 278.343c0 5.515-6.883 9.986-15.373 9.986s-15.373-4.471-15.373-9.986 30.746-5.515 30.746 0z" fill="#383842"/><path d="m177.06 180.108h-24.67c-9.693 0-17.55 7.858-17.55 17.55 0 9.693 7.858 17.55 17.55 17.55h24.67c9.693 0 17.55-7.858 17.55-17.55 0-9.693-7.857-17.55-17.55-17.55z" fill="#fff"/><path d="m325.016 180.108h24.67c9.693 0 17.55 7.858 17.55 17.55 0 9.693-7.858 17.55-17.55 17.55h-24.67c-9.693 0-17.55-7.858-17.55-17.55 0-9.693 7.857-17.55 17.55-17.55z" fill="#fff"/><path d="m222.057 502-23.217-.041c-10.293-17.414-17.718-38.328-22.194-62.406-1.004-5.4 2.556-10.592 7.956-11.596 5.4-.995 10.592 2.566 11.596 7.966 4.724 25.42 12.979 46.743 24.535 63.392.588.845 1.026 1.75 1.324 2.685z" fill="#f7ac3e"/><g><path d="m264.962 434.749.158 67.327-19.837-.035-.212-67.292c0-5.49 4.456-9.945 9.945-9.945 5.5 0 9.946 4.455 9.946 9.945z" fill="#f7ac3e"/></g><path d="m133.117 437.919c-5.025-4.281-12.751-2.527-15.461 3.493-1.82 4.044-.717 8.778 2.659 11.655 7.412 6.319 19.221 20.681 20.756 48.791 1.711.149 3.273.143 5.013.143l14.744-.108c-1.576-35.645-16.898-54.76-27.711-63.974z" fill="#f7ac3e"/></g></svg>