<svg id="Capa_1" enable-background="new 0 0 502 502" height="512" viewBox="0 0 502 502" width="512" xmlns="http://www.w3.org/2000/svg" xmlns:xlink="http://www.w3.org/1999/xlink"><linearGradient id="lg1"><stop offset="0" stop-color="#ff88ca"/><stop offset=".9788" stop-color="#ffb3dd"/></linearGradient><linearGradient id="SVGID_1_" gradientUnits="userSpaceOnUse" x1="0" x2="193.934" xlink:href="#lg1" y1="90.094" y2="90.094"/><linearGradient id="SVGID_2_" gradientUnits="userSpaceOnUse" x1="308.066" x2="502" y1="90.094" y2="90.094"><stop offset=".0212" stop-color="#ffb3dd"/><stop offset="1" stop-color="#ff88ca"/></linearGradient><linearGradient id="SVGID_3_" gradientUnits="userSpaceOnUse" x1="251" x2="251" xlink:href="#lg1" y1="132.457" y2="11.997"/><linearGradient id="SVGID_4_" gradientUnits="userSpaceOnUse" x1="251" x2="251" y1="490.003" y2="331.668"><stop offset=".0223" stop-color="#a4e6ff"/><stop offset=".9994" stop-color="#5bd6fd"/></linearGradient><linearGradient id="SVGID_5_" gradientUnits="userSpaceOnUse" x1="251" x2="251" y1="325.028" y2="116.019"><stop offset=".0005580357" stop-color="#5bd6fd"/><stop offset=".9777" stop-color="#a4e6ff"/></linearGradient><linearGradient id="SVGID_6_" gradientUnits="userSpaceOnUse" x1="93.053" x2="219.926" y1="325.028" y2="325.028"><stop offset="0" stop-color="#a47cd1"/><stop offset=".9777" stop-color="#8b59c5"/></linearGradient><linearGradient id="lg2"><stop offset=".0223" stop-color="#8b59c5"/><stop offset="1" stop-color="#a47cd1"/></linearGradient><linearGradient id="SVGID_7_" gradientUnits="userSpaceOnUse" x1="282.074" x2="408.947" xlink:href="#lg2" y1="325.028" y2="325.028"/><linearGradient id="SVGID_8_" gradientUnits="userSpaceOnUse" x1="251" x2="251" xlink:href="#lg2" y1="358.826" y2="291.229"/><g><path d="m193.688 63.494c-1.212-14.707-11.095-27.269-25.042-32.088-11.051-3.818-23.313-.971-31.551 7.326-8.238 8.297-20.5 11.144-31.551 7.326-11.051-3.818-23.313-.971-31.551 7.326-8.238 8.297-20.5 11.144-31.551 7.326-11.051-3.818-23.313-.972-31.551 7.326-10.397 10.47-13.733 26.102-8.341 39.838 6.079 15.486 19.302 33.731 48.014 42.578l99.549-16.38 19.235-11.2c21.876-20.593 25.707-42.798 24.34-59.378z" fill="url(#SVGID_1_)"/><path d="m491.109 68.035c-8.238-8.297-20.5-11.144-31.551-7.326-11.051 3.818-23.313.971-31.551-7.326-8.238-8.297-20.5-11.144-31.551-7.326-11.051 3.818-23.313.971-31.551-7.326-8.238-8.297-20.5-11.144-31.551-7.326-13.948 4.819-23.83 17.381-25.042 32.088-1.367 16.58 2.464 38.785 24.341 59.377l18.478 9.585 100.306 17.995c28.712-8.846 41.936-27.091 48.014-42.578 5.391-13.734 2.055-29.366-8.342-39.837z" fill="url(#SVGID_2_)"/><path d="m354.86 17.979c-12.699-7.976-28.845-7.976-41.544 0-12.699 7.976-28.845 7.976-41.544 0-12.699-7.976-28.845-7.976-41.544 0-12.699 7.976-28.845 7.976-41.544 0-12.699-7.976-28.845-7.976-41.544 0-16.028 10.067-24.731 28.628-21.979 47.354 3.102 21.111 14.33 47.742 47.636 67.124h156.406c33.306-19.382 44.534-46.013 47.636-67.124 2.752-18.725-5.951-37.287-21.979-47.354z" fill="url(#SVGID_3_)"/><g><path d="m113.872 153.531c-4.209.977-8.412-1.642-9.389-5.851l-14.495-62.428c-.977-4.208 1.642-8.412 5.851-9.389 4.208-.977 8.412 1.642 9.389 5.851l14.495 62.428c.977 4.208-1.643 8.412-5.851 9.389z" fill="#ff75c0"/></g><g><path d="m89.629 169.766c2.283-.53 4.304-2.077 5.353-4.374 1.794-3.93.061-8.57-3.869-10.364-36.871-16.824-41.197-62.067-41.237-62.522-.372-4.298-4.153-7.492-8.452-7.129-4.297.36-7.493 4.128-7.139 8.428.183 2.227 5.007 54.774 50.333 75.456 1.632.745 3.388.881 5.011.505z" fill="#ff75c0"/></g><g><path d="m388.128 153.531c4.208.977 8.412-1.642 9.389-5.851l14.495-62.428c.977-4.208-1.642-8.412-5.851-9.389-4.208-.977-8.412 1.642-9.389 5.851l-14.495 62.428c-.977 4.208 1.643 8.412 5.851 9.389z" fill="#ff75c0"/></g><g><path d="m412.371 169.766c-2.283-.53-4.304-2.077-5.353-4.374-1.794-3.93-.061-8.57 3.869-10.364 36.871-16.824 41.197-62.067 41.237-62.522.372-4.298 4.153-7.492 8.452-7.129 4.297.36 7.493 4.128 7.139 8.428-.183 2.227-5.007 54.774-50.333 75.456-1.632.745-3.388.881-5.011.505z" fill="#ff75c0"/></g><path d="m345.086 431.087c-11.261-54.432-35.784-72.261-35.784-72.261l-58.302-27.158-58.301 27.158s-24.523 17.829-35.784 72.261c-6.288 30.392 16.86 58.916 47.895 58.916h92.38c31.036 0 54.183-28.523 47.896-58.916z" fill="url(#SVGID_4_)"/><g><path d="m251 154.669c-5.541 0-10.034-4.492-10.034-10.034v-82.2c0-5.541 4.492-10.034 10.034-10.034 5.541 0 10.034 4.492 10.034 10.034v82.2c0 5.542-4.493 10.034-10.034 10.034z" fill="#ff75c0"/></g><g><path d="m285.999 167.92c-3.006 0-5.98-1.346-7.956-3.912-3.381-4.39-2.562-10.69 1.827-14.071 41.185-31.716 33.465-89.495 33.383-90.075-.782-5.477 3.016-10.565 8.492-11.358 5.473-.797 10.559 2.984 11.364 8.458.417 2.835 9.634 69.886-40.995 108.874-1.825 1.404-3.978 2.084-6.115 2.084z" fill="#ff75c0"/></g><g><path d="m216.001 167.92c3.006 0 5.98-1.346 7.956-3.912 3.381-4.39 2.562-10.69-1.827-14.071-41.185-31.716-33.465-89.495-33.383-90.075.782-5.477-3.016-10.565-8.492-11.358-5.473-.797-10.559 2.984-11.364 8.458-.417 2.835-9.634 69.886 40.995 108.874 1.824 1.404 3.978 2.084 6.115 2.084z" fill="#ff75c0"/></g><path d="m453.933 122.932c-18.228-9.217-39.753-9.217-57.981 0-18.228 9.217-39.753 9.217-57.981 0-18.228-9.217-39.753-9.217-57.981 0-18.228 9.217-39.753 9.217-57.981 0-18.228-9.217-39.753-9.217-57.981 0-18.228 9.217-39.753 9.217-57.981 0-18.228-9.217-39.753-9.217-57.981 0-17.47 8.834-25.401 29.5-18.254 47.726 13.672 34.865 42.891 93.139 101.16 154.37h240.054c58.269-61.232 87.488-119.505 101.16-154.37 7.148-18.226-.783-38.892-18.253-47.726z" fill="url(#SVGID_5_)"/><g><path d="m413.42 228.576c-1.715 0-3.452-.441-5.039-1.37-4.767-2.788-6.372-8.913-3.583-13.681 1.867-3.192 3.714-6.446 5.49-9.673 2.663-4.838 8.745-6.601 13.583-3.938s6.602 8.744 3.939 13.583c-1.859 3.378-3.793 6.785-5.747 10.126-1.861 3.18-5.207 4.953-8.643 4.953z" fill="#bfe7f8"/></g><g><path d="m435.191 190.786c-1.417 0-2.856-.302-4.224-.942-5.004-2.337-7.167-8.288-4.83-13.292 3.201-6.855 6.165-13.752 8.811-20.498 2.016-5.142 7.819-7.676 12.961-5.659 5.142 2.016 7.675 7.819 5.659 12.96-2.799 7.137-5.931 14.424-9.309 21.659-1.698 3.636-5.304 5.772-9.068 5.772z" fill="#bfe7f8"/></g><path d="m259.578 355.77-8.578-24.102-58.301 27.158s-24.19 17.609-35.55 71.193c9.593-.451 19.031-2.458 28.112-5.987 18.011-6.998 33.198-17.257 44.532-29.998 2.923-3.285 7.076-5.208 11.473-5.208h.07.006c10.818-.003 19.561-8.837 19.44-19.654l-.079-7.102c-.025-2.148-.405-4.276-1.125-6.3z" fill="#2ecdf9"/><path d="m219.926 351.18s-4.975 29.132-45.531 44.889c-36.628 14.231-76.772-10.639-80.397-49.768-.6-6.483-.946-13.563-.946-21.273s.346-14.79.946-21.273c3.624-39.128 43.768-63.999 80.397-49.768 40.555 15.757 45.531 44.889 45.531 44.889z" fill="url(#SVGID_6_)"/><path d="m282.074 351.18s4.975 29.132 45.531 44.889c36.628 14.231 76.772-10.639 80.397-49.768.6-6.483.946-13.563.946-21.273s-.346-14.79-.946-21.273c-3.624-39.128-43.768-63.999-80.397-49.768-40.555 15.757-45.531 44.889-45.531 44.889z" fill="url(#SVGID_7_)"/><g><path d="m216.454 339.57c-2.445.165-4.956-.56-7.005-2.227-1.118-.891-24.859-19.276-58.684-3.781-5.038 2.309-10.993.095-13.301-4.943s-.095-10.993 4.943-13.3c45.64-20.909 78.378 5.365 79.75 6.493 4.279 3.522 4.892 9.845 1.371 14.124-1.829 2.221-4.413 3.455-7.074 3.634z" fill="#8b59c5"/></g><g><path d="m285.546 339.57c2.446.165 4.956-.56 7.005-2.227 1.118-.891 24.859-19.276 58.684-3.781 5.038 2.309 10.993.095 13.301-4.943s.095-10.993-4.943-13.3c-45.64-20.909-78.378 5.365-79.75 6.493-4.279 3.522-4.892 9.845-1.371 14.124 1.829 2.221 4.413 3.455 7.074 3.634z" fill="#8b59c5"/></g><path d="m260.665 291.229h-19.331c-18.667 0-33.799 15.132-33.799 33.799 0 18.667 15.132 33.799 33.799 33.799h19.331c18.667 0 33.799-15.132 33.799-33.799 0-18.667-15.132-33.799-33.799-33.799z" fill="url(#SVGID_8_)"/><g><ellipse cx="140.642" cy="220.889" fill="#fd9bae" rx="18.756" ry="15.073"/><ellipse cx="361.358" cy="220.889" fill="#fd9bae" rx="18.756" ry="15.073"/><circle cx="172.797" cy="183.698" fill="#fff" r="37.191"/><ellipse cx="187.822" cy="183.698" fill="#383842" rx="22.166" ry="22.166" transform="matrix(.23 -.973 .973 .23 -34.114 324.29)"/><circle cx="329.203" cy="183.698" fill="#fff" r="37.191"/><g fill="#383842"><ellipse cx="344.15" cy="183.698" rx="22.166" ry="22.166" transform="matrix(.707 -.707 .707 .707 -29.095 297.155)"/><ellipse cx="251" cy="211.891" rx="16.64" ry="21.789"/></g></g></g></svg>