<svg id="Capa_1" enable-background="new 0 0 502 502" height="512" viewBox="0 0 502 502" width="512" xmlns="http://www.w3.org/2000/svg" xmlns:xlink="http://www.w3.org/1999/xlink"><linearGradient id="SVGID_1_" gradientUnits="userSpaceOnUse" x1="251" x2="251" y1="232.602" y2="13.205"><stop offset=".0212" stop-color="#f5385d"/><stop offset="1" stop-color="#ff889e"/></linearGradient><linearGradient id="lg1"><stop offset=".0005580357" stop-color="#5bd6fd"/><stop offset=".9777" stop-color="#a4e6ff"/></linearGradient><linearGradient id="SVGID_2_" gradientUnits="userSpaceOnUse" x1="430.561" x2="430.561" xlink:href="#lg1" y1="304.041" y2="161.162"/><linearGradient id="SVGID_3_" gradientTransform="matrix(-1 0 0 1 -817.298 0)" gradientUnits="userSpaceOnUse" x1="-888.737" x2="-888.737" xlink:href="#lg1" y1="304.041" y2="161.162"/><linearGradient id="lg2"><stop offset=".0223" stop-color="#8b59c5"/><stop offset="1" stop-color="#a47cd1"/></linearGradient><linearGradient id="SVGID_4_" gradientUnits="userSpaceOnUse" x1="365.952" x2="365.952" xlink:href="#lg2" y1="453.556" y2="342.518"/><linearGradient id="lg3"><stop offset=".0005103643" stop-color="#c7856a"/><stop offset="1" stop-color="#da9d81"/></linearGradient><linearGradient id="SVGID_5_" gradientUnits="userSpaceOnUse" x1="371.73" x2="472.668" xlink:href="#lg3" y1="341.885" y2="341.885"/><linearGradient id="SVGID_6_" gradientUnits="userSpaceOnUse" x1="251" x2="251" xlink:href="#lg2" y1="498.77" y2="369.465"/><linearGradient id="SVGID_7_" gradientUnits="userSpaceOnUse" x1="250.999" x2="250.999" xlink:href="#lg1" y1="215.128" y2="3.23"/><linearGradient id="SVGID_8_" gradientUnits="userSpaceOnUse" x1="250.999" x2="250.999" xlink:href="#lg3" y1="144.828" y2="402.15"/><linearGradient id="SVGID_9_" gradientUnits="userSpaceOnUse" x1="250.999" x2="250.999" y1="63.052" y2="187.919"><stop offset="0" stop-color="#4f4c5f"/><stop offset=".9783" stop-color="#6a647f"/></linearGradient><linearGradient id="SVGID_10_" gradientUnits="userSpaceOnUse" x1="219.232" x2="219.232" y1="448.86" y2="319.389"><stop offset=".0217" stop-color="#6a647f"/><stop offset="1" stop-color="#4f4c5f"/></linearGradient><linearGradient id="SVGID_11_" gradientUnits="userSpaceOnUse" x1="141.886" x2="218.567" xlink:href="#lg3" y1="402.997" y2="402.997"/><linearGradient id="SVGID_12_" gradientUnits="userSpaceOnUse" x1="112.917" x2="112.917" xlink:href="#lg2" y1="440.336" y2="365.659"/><g><path d="m21.588 232.602c0-61.423 24.374-117.746 68.633-158.594 42.483-39.21 99.582-60.803 160.779-60.803 61.198 0 118.297 21.593 160.778 60.802 44.259 40.848 68.633 97.172 68.633 158.594h-458.823z" fill="url(#SVGID_1_)"/><circle cx="430.561" cy="232.601" fill="url(#SVGID_2_)" r="71.439"/><circle cx="71.439" cy="232.601" fill="url(#SVGID_3_)" r="71.439"/><path d="m415.848 401.591c-6.82 6.75-13.859 13.121-21.097 19.103-27.897 23.041-49.093 31.925-51.427 32.862l-27.209-67.509-.06.02c2.203-1.007 16.271-7.747 35.075-23.779 6.082-5.194 13.081-11.715 20.599-19.771z" fill="url(#SVGID_4_)"/><path d="m466.935 338.121c-15.344 23.829-32.413 45.056-51.087 63.471l-44.118-59.074c10.608-11.356 22.254-25.733 33.819-43.59 10.269-15.853 30.848-21.356 47.568-12.582 18.863 9.89 25.344 33.868 13.818 51.775z" fill="url(#SVGID_5_)"/><path d="m122.162 498.77c0-83.467 33.181-129.305 33.181-129.305h191.313s33.181 45.838 33.181 129.305z" fill="url(#SVGID_6_)"/><path d="m356.936 25.829c-32.361-14.782-68.419-22.599-105.937-22.599s-73.576 7.817-105.937 22.598c-23.978 10.953-39.24 35.031-39.24 61.392v127.907h290.353v-127.906c.001-26.362-15.261-50.44-39.239-61.392z" fill="url(#SVGID_7_)"/><path d="m430.563 232.606c0 99.164-80.39 169.544-179.564 169.544-99.164 0-179.564-70.38-179.564-169.544 0-32.942 8.874-62.713 24.367-87.778 37.658 26.401 93.222 43.091 155.197 43.091s117.539-16.69 155.197-43.091c15.493 25.065 24.367 54.836 24.367 87.778z" fill="url(#SVGID_8_)"/><path d="m406.196 144.828c-37.658 26.401-93.222 43.091-155.197 43.091s-117.539-16.69-155.197-43.091c31.127-50.39 88.974-81.776 155.197-81.776 66.232 0 124.079 31.386 155.197 81.776z" fill="url(#SVGID_9_)"/><g><path d="m342.215 130.184c-1.954 0-3.928-.573-5.658-1.768-4.807-3.321-9.916-6.376-15.184-9.083-4.897-2.516-6.829-8.526-4.313-13.424s8.526-6.83 13.425-4.313c6.034 3.099 11.89 6.603 17.406 10.413 4.53 3.13 5.667 9.34 2.536 13.87-1.935 2.801-5.048 4.305-8.212 4.305z" fill="#938ea3"/></g><g><path d="m292.966 108.061c-.805 0-1.623-.098-2.44-.303-2.429-.611-4.921-1.174-7.405-1.674-5.398-1.085-8.895-6.341-7.81-11.739s6.341-8.897 11.739-7.81c2.795.562 5.601 1.196 8.339 1.884 5.34 1.343 8.58 6.761 7.237 12.101-1.137 4.524-5.199 7.541-9.66 7.541z" fill="#938ea3"/></g><ellipse cx="137.119" cy="270.449" fill="#fd9bae" rx="19.354" ry="15.554"/><ellipse cx="364.881" cy="270.449" fill="#fd9bae" rx="19.354" ry="15.554"/><circle cx="170.3" cy="232.071" fill="#fff" r="38.378"/><circle cx="331.7" cy="232.071" fill="#fff" r="38.378"/><path d="m182.975 243.367c-2.647.001-5.214-1.404-6.579-3.888-1.789-3.254-4.858-3.605-6.096-3.605s-4.307.352-6.096 3.605c-1.995 3.63-6.555 4.954-10.186 2.959-3.63-1.995-4.954-6.556-2.959-10.186 3.917-7.125 11.109-11.379 19.24-11.379s15.323 4.254 19.24 11.379c1.995 3.63.671 8.19-2.959 10.186-1.145.63-2.384.929-3.605.929z" fill="#383842"/><path d="m344.375 243.367c-2.647.001-5.214-1.404-6.579-3.888-1.789-3.254-4.858-3.605-6.096-3.605s-4.307.352-6.096 3.605c-1.995 3.63-6.555 4.954-10.186 2.959-3.63-1.995-4.954-6.556-2.959-10.186 3.917-7.125 11.109-11.379 19.24-11.379s15.323 4.254 19.24 11.379c1.995 3.63.671 8.19-2.959 10.186-1.145.63-2.383.929-3.605.929z" fill="#383842"/><g><path d="m266.123 283.648h-30.246c-8.433 0-15.27-6.837-15.27-15.27 0-8.433 6.837-15.27 15.27-15.27h30.246c8.433 0 15.27 6.837 15.27 15.27 0 8.434-6.837 15.27-15.27 15.27z" fill="#383842"/></g><path d="m248.231 319.389h-58c-11.008 0-19.932 8.924-19.932 19.932v89.608c0 11.008 8.924 19.932 19.932 19.932h58c11.008 0 19.932-8.924 19.932-19.932v-89.609c0-11.008-8.924-19.931-19.932-19.931z" fill="url(#SVGID_10_)"/><path d="m223.626 393.027c-4.159 0-8.201 1.369-11.504 3.897l-41.822 32.005c0 11.008 8.924 19.932 19.932 19.932h33.056c9.659-8.865 16.245-20.436 18.895-33.136 2.444-11.716-6.589-22.698-18.557-22.698z" fill="#4f4c5f"/><path d="m218.567 402.997c0 20.618-16.72 37.339-37.339 37.339h-39.343v-74.677h39.343c10.309 0 19.641 4.178 26.401 10.937 6.76 6.76 10.938 16.092 10.938 26.401z" fill="url(#SVGID_11_)"/><path d="m141.886 365.659v74.677h-20.598c-10.309 0-19.641-4.178-26.401-10.937-6.76-6.76-10.937-16.092-10.937-26.401 0-20.618 16.72-37.339 37.339-37.339z" fill="url(#SVGID_12_)"/><circle cx="219.232" cy="344.243" fill="#383842" r="6.535"/></g></svg>