<svg id="Capa_1" enable-background="new 0 0 502 502" height="512" viewBox="0 0 502 502" width="512" xmlns="http://www.w3.org/2000/svg" xmlns:xlink="http://www.w3.org/1999/xlink"><linearGradient id="SVGID_1_" gradientUnits="userSpaceOnUse" x1="251" x2="251" y1="334.51" y2="17.131"><stop offset="0" stop-color="#d0d7d7"/><stop offset="1" stop-color="#efefef"/></linearGradient><linearGradient id="SVGID_2_" gradientUnits="userSpaceOnUse" x1="251" x2="251" y1="378.779" y2="65.182"><stop offset=".0212" stop-color="#f5385d"/><stop offset="1" stop-color="#ff889e"/></linearGradient><linearGradient id="SVGID_3_" gradientUnits="userSpaceOnUse" x1="0" x2="199.587" y1="347.388" y2="347.388"><stop offset="0" stop-color="#a47cd1"/><stop offset=".9777" stop-color="#8b59c5"/></linearGradient><linearGradient id="lg1"><stop offset=".0223" stop-color="#8b59c5"/><stop offset="1" stop-color="#a47cd1"/></linearGradient><linearGradient id="SVGID_4_" gradientUnits="userSpaceOnUse" x1="302.413" x2="502" xlink:href="#lg1" y1="347.388" y2="347.388"/><linearGradient id="SVGID_5_" gradientUnits="userSpaceOnUse" x1="251" x2="251" xlink:href="#lg1" y1="484.869" y2="273.513"/><g><path d="m298.855 34.901c-27.504-23.694-68.206-23.694-95.71 0l-203.145 175.006 63.396 124.603h349.365l89.239-124.603z" fill="url(#SVGID_1_)"/><path d="m251 103.482c-129.325-126.39-341.65 85.323-28.788 267.517 17.812 10.373 39.765 10.373 57.577 0 312.861-182.194 100.536-393.907-28.789-267.517z" fill="url(#SVGID_2_)"/><g><path d="m398.404 131.103c-2.794 0-5.573-1.164-7.55-3.438-2.507-2.883-5.288-5.533-8.266-7.877-4.34-3.416-5.088-9.704-1.672-14.043 3.416-4.34 9.703-5.089 14.043-1.672 3.961 3.118 7.658 6.64 10.986 10.468 3.624 4.167 3.184 10.484-.984 14.108-1.893 1.646-4.23 2.454-6.557 2.454z" fill="#ffb2c1"/></g><g><path d="m360.185 107.599c-.975 0-1.967-.144-2.947-.446-6.396-1.97-13.106-2.97-19.943-2.971-5.523-.001-9.999-4.479-9.998-10.002.001-5.522 4.478-9.998 10-9.998h.002c8.834.002 17.523 1.3 25.827 3.857 5.278 1.626 8.239 7.223 6.613 12.501-1.324 4.298-5.281 7.059-9.554 7.059z" fill="#ffb2c1"/></g><path d="m220.911 247.909c-15.604 4.681-29.992 13.007-42.051 24.532l-40.585 38.787c22.336 19.959 50.051 40.038 83.937 59.771l27.836-94.261c.631-2.139.952-4.358.952-6.588 0-15.644-15.105-26.736-30.089-22.241z" fill="#f5385d"/><path d="m0 484.869v-274.962l199.587 84.222-59.55 129.41z" fill="url(#SVGID_3_)"/><path d="m502 484.869v-274.962l-199.587 84.222 59.55 129.41z" fill="url(#SVGID_4_)"/><path d="m119.995 328.697 49.471-47.278 30.121 12.711-1.731 61.417-61.776 7.301c-6.052.715-12.098-1.382-16.408-5.691-7.896-7.897-7.751-20.745.323-28.46z" fill="#8b59c5"/><path d="m502 484.869-199.587-190.74c-28.764-27.489-74.062-27.489-102.826 0l-199.587 190.74z" fill="url(#SVGID_5_)"/><g><ellipse cx="148.257" cy="223.297" fill="#fd9bae" rx="17.462" ry="14.033"/><ellipse cx="353.743" cy="223.297" fill="#fd9bae" rx="17.462" ry="14.033"/><circle cx="178.193" cy="188.672" fill="#fff" r="34.625"/><ellipse cx="164.204" cy="188.672" fill="#383842" rx="20.637" ry="20.637" transform="matrix(.707 -.707 .707 .707 -85.317 171.371)"/><circle cx="323.807" cy="188.672" fill="#fff" r="34.625"/><g fill="#383842"><ellipse cx="309.819" cy="188.672" rx="20.637" ry="20.637" transform="matrix(.23 -.973 .973 .23 55.013 446.855)"/><path d="m259.874 197.082h-17.747c-3.516 0-6.614 2.311-7.606 5.684-3.124 10.626-6.713 32.439 16.48 32.439 23.192 0 19.604-21.813 16.48-32.439-.993-3.374-4.092-5.684-7.607-5.684z"/></g></g></g></svg>