<svg id="Capa_1" enable-background="new 0 0 502 502" height="512" viewBox="0 0 502 502" width="512" xmlns="http://www.w3.org/2000/svg" xmlns:xlink="http://www.w3.org/1999/xlink"><linearGradient id="lg1"><stop offset=".0005580357" stop-color="#f6e66a"/><stop offset=".9777" stop-color="#f9f2ab"/></linearGradient><linearGradient id="SVGID_1_" gradientUnits="userSpaceOnUse" x1="31.676" x2="101.89" xlink:href="#lg1" y1="98.01" y2="98.01"/><linearGradient id="SVGID_2_" gradientUnits="userSpaceOnUse" x1="251" x2="251" xlink:href="#lg1" y1="417.998" y2="181.51"/><linearGradient id="lg2"><stop offset=".0212" stop-color="#f5385d"/><stop offset="1" stop-color="#ff889e"/></linearGradient><linearGradient id="SVGID_3_" gradientUnits="userSpaceOnUse" x1="251" x2="251" xlink:href="#lg2" y1="198.032" y2="0"/><linearGradient id="lg3"><stop offset="0" stop-color="#ff88ca"/><stop offset=".9788" stop-color="#ffb3dd"/></linearGradient><linearGradient id="SVGID_4_" gradientUnits="userSpaceOnUse" x1="133.137" x2=".674" xlink:href="#lg3" y1="424.218" y2="424.218"/><linearGradient id="lg4"><stop offset=".0212" stop-color="#ffb3dd"/><stop offset="1" stop-color="#ff88ca"/></linearGradient><linearGradient id="SVGID_5_" gradientUnits="userSpaceOnUse" x1="501.326" x2="368.863" xlink:href="#lg4" y1="424.218" y2="424.218"/><linearGradient id="lg5"><stop offset=".0005580357" stop-color="#5bd6fd"/><stop offset=".9777" stop-color="#a4e6ff"/></linearGradient><linearGradient id="SVGID_6_" gradientUnits="userSpaceOnUse" x1="133.137" x2="368.863" xlink:href="#lg5" y1="438.673" y2="438.673"/><linearGradient id="SVGID_7_" gradientUnits="userSpaceOnUse" x1="413.017" x2="324.708" xlink:href="#lg4" y1="424.218" y2="424.218"/><linearGradient id="SVGID_8_" gradientUnits="userSpaceOnUse" x1="177.292" x2="88.983" xlink:href="#lg3" y1="424.218" y2="424.218"/><linearGradient id="SVGID_9_" gradientUnits="userSpaceOnUse" x1="152.794" x2="152.794" xlink:href="#lg5" y1="315.177" y2="234.504"/><linearGradient id="SVGID_10_" gradientUnits="userSpaceOnUse" x1="349.206" x2="349.206" xlink:href="#lg5" y1="315.177" y2="234.504"/><linearGradient id="SVGID_11_" gradientUnits="userSpaceOnUse" x1="152.852" x2="152.852" xlink:href="#lg3" y1="330.707" y2="299.646"/><linearGradient id="SVGID_12_" gradientUnits="userSpaceOnUse" x1="349.148" x2="349.148" xlink:href="#lg3" y1="330.707" y2="299.646"/><linearGradient id="SVGID_13_" gradientUnits="userSpaceOnUse" x1="66.783" x2="66.783" xlink:href="#lg2" y1="54.1" y2="3.943"/><g><path d="m31.676 166.998h70.214v-112.898l-35.107-25.078-35.107 25.078z" fill="url(#SVGID_1_)"/><path d="m42.667 181.51h416.667v236.488h-416.667z" fill="url(#SVGID_2_)"/><path d="m475.228 155.469-145.079-125.913c-45.408-39.409-112.89-39.409-158.297 0l-145.08 125.913c-16.947 14.708-6.545 42.563 15.894 42.563h416.667c22.44 0 32.842-27.855 15.895-42.563z" fill="url(#SVGID_3_)"/><g><path d="m310.481 62.214c-2.322 0-4.655-.804-6.547-2.445-4.861-4.215-10.232-7.852-15.965-10.807-4.909-2.531-6.836-8.563-4.305-13.471s8.562-6.836 13.471-4.305c7.145 3.684 13.841 8.217 19.902 13.474 4.172 3.618 4.622 9.934 1.003 14.106-1.978 2.28-4.761 3.448-7.559 3.448z" fill="#ffb2c1"/></g><g><path d="m262.45 40.002c-.492 0-.989-.036-1.489-.111-3.941-.588-7.968-.888-11.967-.891-5.523-.003-9.997-4.484-9.993-10.006.004-5.521 4.48-9.994 10-9.994h.007c4.981.003 9.996.377 14.908 1.11 5.462.815 9.229 5.905 8.413 11.367-.742 4.962-5.01 8.525-9.879 8.525z" fill="#ffb2c1"/></g><g><ellipse cx="143.35" cy="152.295" fill="#fd9bae" rx="18.295" ry="14.703"/><ellipse cx="358.65" cy="152.295" fill="#fd9bae" rx="18.295" ry="14.703"/><circle cx="174.716" cy="116.017" fill="#fff" r="36.279"/><circle cx="327.284" cy="116.017" fill="#fff" r="36.279"/><g fill="#383842"><circle cx="174.715" cy="116.017" r="21.622"/><circle cx="327.284" cy="116.017" r="21.622"/></g><path d="m237.065 141.665c8.144 7.551 19.725 7.551 27.87 0" fill="none" stroke="#383842" stroke-linecap="round" stroke-miterlimit="10" stroke-width="10"/></g><path d="m44.828 346.436c-24.386 0-44.154 19.769-44.154 44.154v111.41h88.309l44.154-55.875-44.154-55.535c0-24.386-19.769-44.154-44.155-44.154z" fill="url(#SVGID_4_)"/><path d="m457.172 346.436c24.386 0 44.155 19.769 44.155 44.154v111.41h-88.309l-44.154-50.068 44.154-61.342c-.001-24.386 19.768-44.154 44.154-44.154z" fill="url(#SVGID_5_)"/><path d="m325.039 385.265c-7.403-6.189-16.933-9.918-27.336-9.918h-93.406c-10.404 0-19.934 3.729-27.336 9.918.21 1.747-43.823 60.861-43.823 60.861l44.154 55.874h147.417l44.154-50.068s-44.034-64.92-43.824-66.667z" fill="url(#SVGID_6_)"/><path d="m368.863 346.436c24.386 0 44.155 19.769 44.155 44.154v111.41h-88.309v-111.41c-.001-24.386 19.768-44.154 44.154-44.154z" fill="url(#SVGID_7_)"/><path d="m133.137 346.436c-24.386 0-44.154 19.769-44.154 44.154v111.41h88.309v-111.41c0-24.386-19.769-44.154-44.155-44.154z" fill="url(#SVGID_8_)"/><circle cx="44.828" cy="396.839" fill="#ff75c0" r="11.601"/><circle cx="133.137" cy="396.839" fill="#ff75c0" r="11.601"/><circle cx="213.951" cy="446.125" fill="#fff" r="11.601"/><circle cx="457.172" cy="396.839" fill="#ff75c0" r="11.601"/><circle cx="368.863" cy="396.839" fill="#ff75c0" r="11.601"/><path d="m152.794 234.504c-18.624 0-33.722 15.098-33.722 33.722v46.951h67.444v-46.951c0-18.624-15.098-33.722-33.722-33.722z" fill="url(#SVGID_9_)"/><path d="m349.206 234.504c18.624 0 33.722 15.098 33.722 33.722v46.951h-67.444v-46.951c0-18.624 15.098-33.722 33.722-33.722z" fill="url(#SVGID_10_)"/><path d="m181.476 299.646h-57.248c-8.577 0-15.53 6.953-15.53 15.53 0 8.577 6.953 15.53 15.53 15.53h57.248c8.577 0 15.53-6.953 15.53-15.53 0-8.576-6.953-15.53-15.53-15.53z" fill="url(#SVGID_11_)"/><path d="m320.524 299.646h57.248c8.577 0 15.53 6.953 15.53 15.53 0 8.577-6.953 15.53-15.53 15.53h-57.248c-8.577 0-15.53-6.953-15.53-15.53 0-8.576 6.953-15.53 15.53-15.53z" fill="url(#SVGID_12_)"/><path d="m68.21 49.847-39.328-14.551 2.794 18.804v25h29.676c8.522 0 15.431-6.908 15.431-15.43 0-5.862-3.322-11.218-8.573-13.823z" fill="#f0e02c"/><path d="m101.89 3.943h-70.214c-10.072 0-18.236 8.165-18.236 18.236v13.685c0 10.072 8.165 18.236 18.236 18.236h70.213c10.072 0 18.236-8.165 18.236-18.236v-13.685c.001-10.071-8.164-18.236-18.235-18.236z" fill="url(#SVGID_13_)"/><path d="m118.276 198.032h-75.609v29.723h75.609c8.208 0 14.861-6.654 14.861-14.861 0-8.208-6.654-14.862-14.861-14.862z" fill="#f0e02c"/></g></svg>