<svg id="Capa_1" enable-background="new 0 0 502 502" height="512" viewBox="0 0 502 502" width="512" xmlns="http://www.w3.org/2000/svg" xmlns:xlink="http://www.w3.org/1999/xlink"><linearGradient id="SVGID_1_" gradientUnits="userSpaceOnUse" x1=".645" x2="191.424" y1="398.181" y2="398.181"><stop offset="0" stop-color="#4f4c5f"/><stop offset=".9783" stop-color="#6a647f"/></linearGradient><linearGradient id="lg1"><stop offset="0" stop-color="#d0d7d7"/><stop offset="1" stop-color="#efefef"/></linearGradient><linearGradient id="SVGID_2_" gradientUnits="userSpaceOnUse" x1="6.194" x2="261.644" xlink:href="#lg1" y1="158.712" y2="158.712"/><linearGradient id="SVGID_3_" gradientUnits="userSpaceOnUse" x1="199.019" x2="441.921" y1="248.736" y2="248.736"><stop offset=".0223" stop-color="#a4e6ff"/><stop offset=".9994" stop-color="#5bd6fd"/></linearGradient><linearGradient id="SVGID_4_" gradientUnits="userSpaceOnUse" x1="245.906" x2="245.906" y1="295.623" y2="52.721"><stop offset="0" stop-color="#ff889e"/><stop offset=".9788" stop-color="#f5385d"/></linearGradient><linearGradient id="SVGID_5_" gradientUnits="userSpaceOnUse" x1="386.832" x2="489.935" y1="130.823" y2="130.823"><stop offset=".0223" stop-color="#f9f2ab"/><stop offset=".9994" stop-color="#f6e66a"/></linearGradient><linearGradient id="SVGID_6_" gradientUnits="userSpaceOnUse" x1="269.049" x2="458.589" y1="56.259" y2="56.259"><stop offset="0" stop-color="#00c4a2"/><stop offset=".9794" stop-color="#76e6d5"/></linearGradient><linearGradient id="lg2"><stop offset="0" stop-color="#d86743"/><stop offset=".9788" stop-color="#e99780"/></linearGradient><radialGradient id="SVGID_7_" cx="355.484" cy="139.158" gradientUnits="userSpaceOnUse" r="122.491" xlink:href="#lg2"/><linearGradient id="SVGID_8_" gradientUnits="userSpaceOnUse" x1="162.966" x2="494.642" xlink:href="#lg2" y1="165.838" y2="165.838"/><linearGradient id="SVGID_9_" gradientUnits="userSpaceOnUse" x1="245.906" x2="501.355" xlink:href="#lg1" y1="348.424" y2="348.424"/><g><path d="m177.006 294.363c-41.157 15.732-55.946 47.198-70.282 77.717-16.3 34.699-33.156 70.58-93.847 93.394-9.752 3.666-14.686 14.543-11.021 24.295.977 2.598 2.465 4.854 4.308 6.697 5.074 5.074 12.833 7.012 19.987 4.323 75.043-28.208 97.043-75.039 114.72-112.668 13.063-27.809 22.807-48.507 50.553-58.849z" fill="url(#SVGID_1_)"/><path d="m209.915 235.576c28.569 0 51.728-23.159 51.728-51.728s-23.159-51.728-51.728-51.728c-6.366 0-12.46 1.156-18.092 3.259-9.88-31.041-38.933-53.531-73.247-53.531-42.451 0-76.864 34.413-76.864 76.864 0 .805.036 1.601.061 2.4-19.797.876-35.579 17.198-35.579 37.211 0 20.574 16.679 37.253 37.253 37.253z" fill="url(#SVGID_2_)"/><path d="m414.376 198.048-58.891-27.545-80.841 49.494-75.625 106.972 242.902-70.029z" fill="url(#SVGID_3_)"/><path d="m205.358 187.515c-.915-9.644-9.014-17.011-18.701-17.011-8.371 0-15.731 5.538-18.05 13.581l-14.845 51.491h56.153z" fill="#d3d1d8"/><path d="m296.594 80.265-58.892-27.544-70.029 242.902 106.971-75.626 49.495-80.84z" fill="url(#SVGID_4_)"/><path d="m422.71 71.932-35.878 67.225 27.544 58.891 58.892 27.545 16.667-189.539z" fill="url(#SVGID_5_)"/><g><path d="m448.733 173.698c-.302 0-.607-.014-.914-.042-5.5-.498-9.555-5.361-9.057-10.861.394-4.354.775-8.708 1.147-13.064.47-5.502 5.31-9.572 10.815-9.113 5.503.47 9.583 5.312 9.113 10.815-.375 4.39-.758 8.779-1.156 13.167-.471 5.193-4.833 9.098-9.948 9.098z" fill="#fffcdc"/></g><g><path d="m452.131 128.652c-.279 0-.56-.012-.843-.035-5.504-.459-9.593-5.294-9.133-10.797.54-6.465 1.089-12.928 1.667-19.39.492-5.5 5.349-9.56 10.851-9.07 5.501.492 9.562 5.35 9.07 10.851-.574 6.422-1.12 12.847-1.657 19.272-.436 5.221-4.809 9.169-9.955 9.169z" fill="#fffcdc"/></g><path d="m269.049 21.374 27.545 58.891 58.891 27.545 67.225-35.878 35.879-67.225z" fill="url(#SVGID_6_)"/><path d="m473.268 225.593-204.219-204.219c-6.276-6.276-16.454-6.276-22.729 0l-8.617 8.617c-6.282 6.283-6.276 16.454 0 22.729l204.218 204.22c6.276 6.276 16.447 6.283 22.73 0l8.617-8.617c6.276-6.276 6.276-16.454 0-22.73z" fill="url(#SVGID_7_)"/><path d="m177.006 294.363c-18.12 6.926-31.125 16.904-41.235 28.506 2.272 6.201 5.88 11.888 10.689 16.698l8.616 8.615c1.632 1.633 3.366 3.128 5.187 4.479 7.603-10.188 17.053-18.13 31.162-23.389z" fill="#5c586f"/><path d="m489.935 13.324-8.617-8.617c-6.276-6.276-16.454-6.276-22.729 0l-290.916 290.916c-6.276 6.276-6.276 16.454 0 22.729l8.617 8.617c6.276 6.276 16.453 6.276 22.729 0l290.916-290.915c6.276-6.276 6.276-16.454 0-22.73z" fill="url(#SVGID_8_)"/><path d="m258.656 309.776 163.505-47.139c-17.979-13.383-40.177-21.077-63.873-21.077-45.303 0-84.109 28.337-99.632 68.216z" fill="#2ecdf9"/><path d="m449.627 425.288c28.569 0 51.728-23.159 51.728-51.728s-23.159-51.728-51.728-51.728c-6.366 0-12.46 1.156-18.092 3.259-9.88-31.041-38.933-53.531-73.247-53.531-42.451 0-76.864 34.413-76.864 76.864 0 .805.036 1.601.061 2.4-19.797.876-35.579 17.198-35.579 37.211 0 20.574 16.679 37.253 37.253 37.253z" fill="url(#SVGID_9_)"/></g></svg>