<svg id="Capa_1" enable-background="new 0 0 502 502" height="512" viewBox="0 0 502 502" width="512" xmlns="http://www.w3.org/2000/svg" xmlns:xlink="http://www.w3.org/1999/xlink"><linearGradient id="SVGID_1_" gradientUnits="userSpaceOnUse" x1="39.281" x2="188.102" y1="407.949" y2="407.949"><stop offset=".0005580357" stop-color="#f6e66a"/><stop offset=".9777" stop-color="#f9f2ab"/></linearGradient><linearGradient id="SVGID_2_" gradientUnits="userSpaceOnUse" x1="70.949" x2="70.949" y1="312.951" y2="128.36"><stop offset="0" stop-color="#4f4c5f"/><stop offset=".9783" stop-color="#6a647f"/></linearGradient><linearGradient id="lg1"><stop offset=".0212" stop-color="#ffb3dd"/><stop offset="1" stop-color="#ff88ca"/></linearGradient><linearGradient id="SVGID_3_" gradientUnits="userSpaceOnUse" x1="84.826" x2="179.281" xlink:href="#lg1" y1="261.645" y2="261.645"/><linearGradient id="SVGID_4_" gradientUnits="userSpaceOnUse" x1="179.281" x2="354.167" xlink:href="#lg1" y1="258.458" y2="258.458"/><linearGradient id="SVGID_5_" gradientUnits="userSpaceOnUse" x1="354.167" x2="441.537" xlink:href="#lg1" y1="242.931" y2="242.931"/><linearGradient id="lg2"><stop offset="0" stop-color="#a47cd1"/><stop offset=".9777" stop-color="#8b59c5"/></linearGradient><linearGradient id="SVGID_6_" gradientUnits="userSpaceOnUse" x1="136.403" x2="220.205" xlink:href="#lg2" y1="261.641" y2="261.641"/><linearGradient id="SVGID_7_" gradientUnits="userSpaceOnUse" x1="304" x2="387.802" xlink:href="#lg2" y1="257.623" y2="257.623"/><linearGradient id="SVGID_8_" gradientUnits="userSpaceOnUse" x1="289.892" x2="545.986" y1="-24.345" y2="231.749"><stop offset="0" stop-color="#ff889e"/><stop offset=".9788" stop-color="#f5385d"/></linearGradient><g><path d="m183.922 349.601-11.882-11.882c-5.572-5.572-14.607-5.572-20.179 0l-108.4 108.4c-5.572 5.572-5.572 14.607 0 20.179l11.882 11.882c5.572 5.572 14.607 5.572 20.179 0l108.4-108.4c5.573-5.573 5.573-14.607 0-20.179z" fill="url(#SVGID_1_)"/><path d="m136.734 262.073c-6.886-6.886-18.051-6.886-24.937 0l-3.032 3.032c-16.795 16.795-44.124 16.795-60.919 0s-16.795-44.124 0-60.919l45.724-45.724c6.886-6.886 6.886-18.051 0-24.937s-18.051-6.886-24.937 0l-45.724 45.724c-30.545 30.546-30.545 80.247 0 110.793 30.546 30.546 80.248 30.546 110.793 0l3.032-3.032c6.886-6.886 6.886-18.051 0-24.937z" fill="url(#SVGID_2_)"/><path d="m136.734 262.073c-6.886-6.886-18.051-6.886-24.937 0l-3.032 3.032c-12.885 12.885-31.965 15.873-47.736 8.988 2.424 12.397 8.46 23.797 17.591 32.927l5.682 5.681c18.019-1.371 35.651-8.91 49.401-22.66l3.032-3.032c6.885-6.885 6.885-18.05-.001-24.936z" fill="#423e4f"/><path d="m136.403 193.834-40.098 40.098c-15.304 15.304-15.304 40.113-.007 55.41l40.113 40.113 42.87-73.961z" fill="url(#SVGID_3_)"/><path d="m304 106.206-53.863-26.105-29.931 29.931-40.925 145.461 40.925 157.756 12.091 12.091c15.304 15.304 40.105 15.297 55.41-.007l16.293-16.294 50.167-165.045z" fill="url(#SVGID_4_)"/><path d="m387.802 160.626-33.635 83.368 33.635 81.243 53.735-53.735z" fill="url(#SVGID_5_)"/><path d="m172.04 337.718c-5.572-5.572-14.607-5.572-20.179 0l-24.807 24.807 32.062 32.062 24.807-24.807c5.572-5.572 5.572-14.607 0-20.179z" fill="#f0e02c"/><path d="m136.403 193.834.007 135.621 83.795 83.795v-303.218z" fill="url(#SVGID_6_)"/><path d="m387.795 160.618-8.742-18.032-75.053-36.38v302.833l83.802-83.802v-164.611z" fill="url(#SVGID_7_)"/><path d="m297.383 121.527-14.494-30.132-32.753-11.295-21.214 21.214 40.232 40.232c6.854 6.854 17.968 6.854 24.822 0 5.274-5.271 6.639-13.299 3.407-20.019z" fill="#ff88ca"/><path d="m461.166 19.641h-203.517c-25.084 0-37.646 30.327-19.909 48.064l216.196 216.196c17.737 17.737 48.064 5.175 48.064-19.909v-203.517c0-22.552-18.282-40.834-40.834-40.834z" fill="url(#SVGID_8_)"/><g><path d="m472.105 129.795c-5.492 0-9.962-4.434-9.998-9.934-.032-4.865-.068-9.729-.107-14.594-.044-5.522 4.397-10.036 9.919-10.08h.082c5.485 0 9.954 4.424 9.998 9.92.039 4.874.075 9.749.107 14.623.036 5.522-4.411 10.029-9.934 10.065-.022 0-.045 0-.067 0z" fill="#ffb2c1"/></g><g><path d="m472.23 84.38c-.096 0-.193-.001-.29-.004-5.521-.157-9.869-4.76-9.711-10.281.152-5.349.08-10.755-.214-16.068-.305-5.515 3.918-10.232 9.432-10.538 5.516-.306 10.232 3.917 10.537 9.432.325 5.868.404 11.837.236 17.743-.154 5.424-4.599 9.716-9.99 9.716z" fill="#ffb2c1"/></g><g fill="#f0e02c"><path d="m141.722 85.373c-3.935-3.935-10.315-3.935-14.25 0l-16.09 16.09c-3.935 3.935-3.935 10.315 0 14.25s10.315 3.935 14.25 0l16.09-16.09c3.935-3.936 3.935-10.315 0-14.25z"/><path d="m78.608 66.14c-5.565 0-10.076 4.511-10.076 10.076v22.755c0 5.565 4.511 10.076 10.076 10.076s10.076-4.511 10.076-10.076v-22.755c0-5.565-4.511-10.076-10.076-10.076z"/><path d="m150.878 138.411h-22.755c-5.565 0-10.076 4.511-10.076 10.076s4.511 10.076 10.076 10.076h22.755c5.565 0 10.076-4.511 10.076-10.076s-4.511-10.076-10.076-10.076z"/></g><ellipse cx="306.775" cy="82.453" fill="#fd9bae" rx="12.788" ry="15.912" transform="matrix(.707 -.707 .707 .707 31.549 241.071)"/><ellipse cx="439.185" cy="214.863" fill="#fd9bae" rx="12.788" ry="15.912" transform="matrix(.707 -.707 .707 .707 -23.298 373.481)"/><circle cx="348.376" cy="79.432" fill="#fff" r="31.553"/><circle cx="442.207" cy="173.262" fill="#fff" r="31.553"/><path d="m353.538 96.505c-.693 0-1.397-.097-2.097-.3-3.978-1.156-6.266-5.317-5.109-9.295.653-2.247-.559-3.772-1.11-4.324s-2.076-1.767-4.323-1.11c-3.978 1.155-8.14-1.132-9.295-5.11s1.132-8.139 5.109-9.294c6.793-1.973 14.116-.093 19.116 4.909 5 5 6.881 12.325 4.907 19.115-.953 3.278-3.948 5.409-7.198 5.409z" fill="#383842"/><path d="m447.369 190.335c-.693 0-1.397-.097-2.096-.3-3.978-1.155-6.266-5.316-5.11-9.294.652-2.248-.56-3.773-1.11-4.325-.553-.552-2.076-1.766-4.324-1.11-3.979 1.155-8.14-1.132-9.295-5.11s1.132-8.139 5.109-9.294c6.793-1.971 14.114-.092 19.116 4.908 5 5 6.881 12.325 4.908 19.115-.952 3.279-3.947 5.41-7.198 5.41z" fill="#383842"/><g><path d="m374.098 165.123-17.583-17.583c-4.903-4.903-4.903-12.852 0-17.754 4.903-4.903 12.852-4.903 17.754 0l17.583 17.583c4.903 4.903 4.903 12.852 0 17.754-4.902 4.903-12.851 4.903-17.754 0z" fill="#383842"/></g></g></svg>