<svg id="Capa_1" enable-background="new 0 0 502 502" height="512" viewBox="0 0 502 502" width="512" xmlns="http://www.w3.org/2000/svg" xmlns:xlink="http://www.w3.org/1999/xlink"><linearGradient id="lg1"><stop offset="0" stop-color="#4f4c5f"/><stop offset=".9783" stop-color="#6a647f"/></linearGradient><linearGradient id="SVGID_1_" gradientUnits="userSpaceOnUse" x1="321.75" x2="447.155" xlink:href="#lg1" y1="366.727" y2="366.727"/><linearGradient id="SVGID_2_" gradientUnits="userSpaceOnUse" x1="54.845" x2="180.25" y1="366.727" y2="366.727"><stop offset=".0217" stop-color="#6a647f"/><stop offset="1" stop-color="#4f4c5f"/></linearGradient><linearGradient id="SVGID_3_" gradientUnits="userSpaceOnUse" x1="251" x2="251" y1="180.077" y2="22.936"><stop offset=".0005580357" stop-color="#f7ac3e"/><stop offset=".9777" stop-color="#fccb88"/></linearGradient><linearGradient id="SVGID_4_" gradientUnits="userSpaceOnUse" x1="251" x2="251" xlink:href="#lg1" y1="246.109" y2="158.307"/><linearGradient id="lg2"><stop offset="0" stop-color="#da9d81"/><stop offset=".9995" stop-color="#c7856a"/></linearGradient><linearGradient id="SVGID_5_" gradientUnits="userSpaceOnUse" x1="47.881" x2="107.181" xlink:href="#lg2" y1="274.909" y2="215.609"/><linearGradient id="lg3"><stop offset=".0005103643" stop-color="#c7856a"/><stop offset="1" stop-color="#da9d81"/></linearGradient><linearGradient id="SVGID_6_" gradientUnits="userSpaceOnUse" x1="394.819" x2="454.119" xlink:href="#lg3" y1="274.909" y2="215.609"/><linearGradient id="SVGID_7_" gradientUnits="userSpaceOnUse" x1="251" x2="251" y1="502" y2="368.817"><stop offset="0" stop-color="#ff88ca"/><stop offset=".9788" stop-color="#ffb3dd"/></linearGradient><linearGradient id="SVGID_8_" gradientUnits="userSpaceOnUse" x1="251" x2="251" xlink:href="#lg2" y1="430.929" y2="346.265"/><linearGradient id="SVGID_9_" gradientUnits="userSpaceOnUse" x1="251" x2="251" xlink:href="#lg3" y1="398.664" y2="158.307"/><linearGradient id="lg4"><stop offset=".0223" stop-color="#f9f2ab"/><stop offset=".9994" stop-color="#f6e66a"/></linearGradient><radialGradient id="SVGID_10_" cx="251" cy="25.947" gradientUnits="userSpaceOnUse" r="25.947" xlink:href="#lg4"/><radialGradient id="SVGID_11_" cx="50.404" cy="62.075" gradientUnits="userSpaceOnUse" r="25.947" xlink:href="#lg4"/><radialGradient id="SVGID_12_" cx="451.596" cy="62.075" gradientUnits="userSpaceOnUse" r="25.947" xlink:href="#lg4"/><linearGradient id="SVGID_13_" gradientUnits="userSpaceOnUse" x1="109.889" x2="171.207" xlink:href="#lg2" y1="475.355" y2="475.355"/><linearGradient id="SVGID_14_" gradientUnits="userSpaceOnUse" x1="330.794" x2="392.111" xlink:href="#lg3" y1="475.355" y2="475.355"/><g><path d="m444.926 265.946c-22.828 46.954 49.313 180.985-62.389 201.562l-60.788-68.844v-58.458l90.172-74.26z" fill="url(#SVGID_1_)"/><g><path d="m416.423 412.42c-.552 0-1.111-.046-1.674-.141-5.446-.918-9.117-6.077-8.199-11.523.525-3.117.864-6.621 1.035-10.713.231-5.518 4.89-9.8 10.41-9.573 5.518.231 9.804 4.892 9.573 10.41-.207 4.935-.631 9.252-1.296 13.201-.824 4.883-5.057 8.339-9.849 8.339z" fill="#938ea3"/></g><g><path d="m415.513 371.122c-5.075 0-9.422-3.848-9.938-9.005-.28-2.8-.587-5.598-.894-8.396-.448-4.089-.911-8.318-1.289-12.535-.493-5.501 3.567-10.36 9.067-10.853 5.502-.499 10.36 3.566 10.853 9.067.36 4.02.813 8.148 1.25 12.141.313 2.86.627 5.72.913 8.582.55 5.495-3.459 10.396-8.954 10.946-.339.037-.675.053-1.008.053z" fill="#938ea3"/></g><path d="m57.074 265.946c22.828 46.954-49.313 180.985 62.389 201.562l60.788-68.844v-58.458l-90.172-74.26z" fill="url(#SVGID_2_)"/><path d="m457.244 71.341-12.08-17.538s-47.475-8.869-81.286 18.23c-9.095 7.289-21.438 9.046-32.024 4.168-18.817-8.669-46.715-25.29-65.109-53.265h-31.489c-18.394 27.975-46.292 44.596-65.109 53.265-10.586 4.877-22.93 3.121-32.024-4.168-33.811-27.098-81.286-18.23-81.286-18.23l-12.08 17.538c39.081 35.076 19.002 86.966 19.002 86.966l187.241 21.769 187.241-21.77c0 .001-20.078-51.889 19.003-86.965z" fill="url(#SVGID_3_)"/><path d="m63.759 158.307c-12.318 26.607-18.88 55.828-19.002 86.102v1.7l412.487-.85c0-30.511-6.605-60.048-19.125-86.952z" fill="url(#SVGID_4_)"/><circle cx="77.531" cy="245.259" fill="url(#SVGID_5_)" r="41.932"/><circle cx="424.469" cy="245.259" fill="url(#SVGID_6_)" r="41.932"/><path d="m330.793 502h-159.586l-52.667-53.289c16.89-50.851 52.617-79.894 52.617-79.894h159.687s35.727 29.043 52.617 79.894z" fill="url(#SVGID_7_)"/><circle cx="251" cy="388.597" fill="url(#SVGID_8_)" r="42.332"/><path d="m189.322 384.22-18.166-15.403s-12.949 10.539-26.94 30.011c9.384 4.951 19.309 9.201 29.675 12.713 7.616 2.58 15.964-.939 19.472-8.174 3.18-6.557 1.517-14.435-4.041-19.147z" fill="#ff75c0"/><path d="m135.602 158.307c-23.848 0-44.779 15.825-51.346 38.751-4.315 15.064-6.656 30.988-6.723 47.483v1.435c.393 96.998 79.351 154.229 176.337 152.656 94.483-1.533 170.598-58.525 170.598-153.373 0-16.727-2.37-32.899-6.79-48.202-6.618-22.911-27.497-38.751-51.345-38.751h-230.731z" fill="url(#SVGID_9_)"/><g><ellipse cx="129.369" cy="290.309" fill="#fd9bae" rx="20.671" ry="16.612"/><ellipse cx="372.631" cy="290.309" fill="#fd9bae" rx="20.671" ry="16.612"/><circle cx="164.809" cy="249.319" fill="#fff" r="40.99"/><circle cx="337.191" cy="249.319" fill="#fff" r="40.99"/><g fill="#383842"><g><circle cx="164.808" cy="249.319" r="24.43"/><circle cx="337.192" cy="249.319" r="24.43"/></g><path d="m251 289.679c-6.799 0-13.598-2.571-19.144-7.713-2.025-1.878-2.145-5.041-.267-7.066s5.042-2.143 7.066-.268c7.269 6.74 17.422 6.74 24.69 0 2.025-1.875 5.189-1.758 7.066.268 1.877 2.025 1.758 5.188-.267 7.066-5.546 5.141-12.345 7.713-19.144 7.713z"/></g></g><path d="m251 76.894c18.189 0 34.172-9.588 43.188-23.969-9.918-8.089-19.555-17.992-27.443-29.989h-31.489c-7.888 11.997-17.525 21.9-27.443 29.989 9.015 14.381 24.998 23.969 43.187 23.969z" fill="#f7ac3e"/><circle cx="251" cy="25.947" fill="url(#SVGID_10_)" r="25.947"/><path d="m101.351 62.075c0-2.399-.179-4.756-.501-7.068-23.593-5.018-44.013-1.204-44.013-1.204l-12.08 17.538c13.26 11.901 19.704 25.736 22.438 38.824 19.865-6.956 34.156-25.88 34.156-48.09z" fill="#f7ac3e"/><circle cx="50.404" cy="62.075" fill="url(#SVGID_11_)" r="25.947"/><path d="m401.151 55.007c-.322 2.312-.501 4.669-.501 7.068 0 22.21 14.291 41.134 34.156 48.09 2.734-13.088 9.179-26.924 22.438-38.824l-12.08-17.538s-20.42-3.814-44.013 1.204z" fill="#f7ac3e"/><circle cx="451.596" cy="62.075" fill="url(#SVGID_12_)" r="25.947"/><path d="m171.207 448.711v53.289h-61.318c0-19.71 3.422-37.543 8.651-53.289z" fill="url(#SVGID_13_)"/><path d="m392.111 502h-61.318v-53.289h52.667c5.229 15.746 8.651 33.579 8.651 53.289z" fill="url(#SVGID_14_)"/></g></svg>