<svg id="Capa_1" enable-background="new 0 0 502 502" height="512" viewBox="0 0 502 502" width="512" xmlns="http://www.w3.org/2000/svg" xmlns:xlink="http://www.w3.org/1999/xlink"><linearGradient id="SVGID_1_" gradientUnits="userSpaceOnUse" x1="86.926" x2="171.972" y1="432.46" y2="432.46"><stop offset="0" stop-color="#ffdcce"/><stop offset=".9788" stop-color="#ffcabd"/></linearGradient><linearGradient id="lg1"><stop offset=".0212" stop-color="#ffcabd"/><stop offset="1" stop-color="#ffdcce"/></linearGradient><linearGradient id="SVGID_2_" gradientUnits="userSpaceOnUse" x1="331.119" x2="415.074" xlink:href="#lg1" y1="432.46" y2="432.46"/><linearGradient id="SVGID_3_" gradientUnits="userSpaceOnUse" x1="251" x2="251" y1="478.818" y2="392.303"><stop offset=".0223" stop-color="#8b59c5"/><stop offset="1" stop-color="#a47cd1"/></linearGradient><linearGradient id="SVGID_4_" gradientUnits="userSpaceOnUse" x1="251" x2="251" y1="409.284" y2="362.92"><stop offset=".0212" stop-color="#ffb3dd"/><stop offset="1" stop-color="#ff88ca"/></linearGradient><linearGradient id="SVGID_5_" gradientUnits="userSpaceOnUse" x1="251" x2="251" xlink:href="#lg1" y1="438.407" y2="330.087"/><linearGradient id="SVGID_6_" gradientUnits="userSpaceOnUse" x1="251" x2="251" y1="216.792" y2="48.59"><stop offset="0" stop-color="#4f4c5f"/><stop offset=".9783" stop-color="#6a647f"/></linearGradient><linearGradient id="SVGID_7_" gradientUnits="userSpaceOnUse" x1="70.453" x2="70.453" xlink:href="#lg1" y1="264.076" y2="179.577"/><linearGradient id="SVGID_8_" gradientUnits="userSpaceOnUse" x1="431.547" x2="431.547" xlink:href="#lg1" y1="264.076" y2="179.577"/><linearGradient id="SVGID_9_" gradientUnits="userSpaceOnUse" x1="251" x2="251" y1="154.464" y2="0"><stop offset=".0223" stop-color="#f9f2ab"/><stop offset=".9994" stop-color="#f6e66a"/></linearGradient><linearGradient id="SVGID_10_" gradientUnits="userSpaceOnUse" x1="251" x2="251" xlink:href="#lg1" y1="392.303" y2="114.489"/><linearGradient id="SVGID_11_" gradientUnits="userSpaceOnUse" x1="251" x2="251" y1="502" y2="455.637"><stop offset=".0005580357" stop-color="#5bd6fd"/><stop offset=".9777" stop-color="#a4e6ff"/></linearGradient><g><path d="m147.307 362.92 24.665 75.487-24.665 63.593h-60.381c0-104.499 60.381-139.08 60.381-139.08z" fill="url(#SVGID_1_)"/><path d="m415.074 502h-60.381l-23.574-63.593 23.574-75.487s60.381 34.581 60.381 139.08z" fill="url(#SVGID_2_)"/><path d="m354.693 409.284v46.353l-103.693 23.181-103.693-23.181v-46.353l103.693-16.981z" fill="url(#SVGID_3_)"/><path d="m147.307 362.92h207.386v46.363h-207.386z" fill="url(#SVGID_4_)"/><circle cx="251" cy="384.247" fill="url(#SVGID_5_)" r="54.16"/><path d="m453.441 130.057v86.735h-404.882v-86.735l202.441-81.467z" fill="url(#SVGID_6_)"/><circle cx="70.453" cy="221.827" fill="url(#SVGID_7_)" r="42.25"/><circle cx="431.547" cy="221.827" fill="url(#SVGID_8_)" r="42.25"/><path d="m453.441 21.46v108.597h-135.119l-67.322 24.407-63.354-24.408h-139.087v-108.596c0-9.939 8.157-17.099 17.089-17.099 2.739 0 5.549.675 8.217 2.145 7.875 4.33 16.586 6.505 25.306 6.505 8.711 0 17.432-2.175 25.306-6.505 7.876-4.341 16.587-6.506 25.297-6.506 8.721 0 17.432 2.165 25.306 6.505 7.885 4.33 16.596 6.505 25.306 6.505 8.721 0 17.432-2.175 25.306-6.505 7.887-4.34 16.597-6.505 25.308-6.505s17.421 2.165 25.306 6.505c7.875 4.33 16.586 6.505 25.306 6.505 8.711 0 17.421-2.175 25.306-6.505 7.876-4.34 16.587-6.505 25.308-6.505 8.711 0 17.421 2.165 25.296 6.505 15.76 8.67 34.863 8.67 50.613 0 11.379-6.273 25.306 1.964 25.306 14.955z" fill="url(#SVGID_9_)"/><g><path d="m423.442 105.577c-5.523 0-10-4.477-10-10v-15.4c0-5.523 4.477-10 10-10s10 4.477 10 10v15.4c0 5.523-4.478 10-10 10z" fill="#fffcdc"/></g><g><path d="m423.442 60.688c-5.523 0-10-4.477-10-10v-6.182c0-5.523 4.477-10 10-10s10 4.477 10 10v6.182c0 5.523-4.478 10-10 10z" fill="#fffcdc"/></g><path d="m415.048 146.699c-8.569-18.412-26.615-30.586-46.888-31.784-26.806-1.583-66.612.454-100.267 20.054-10.442 6.081-23.345 6.081-33.787 0-33.655-19.6-73.46-21.637-100.267-20.054-20.273 1.197-38.318 13.372-46.888 31.784-10.59 22.753-16.499 48.176-16.499 75.128 0 99.713 80.834 170.477 180.547 170.477s180.547-70.763 180.547-170.477c.001-26.952-5.908-52.375-16.498-75.128z" fill="url(#SVGID_10_)"/><g><ellipse cx="126.233" cy="271.871" fill="#fd9bae" rx="21.205" ry="17.041"/><ellipse cx="375.767" cy="271.871" fill="#fd9bae" rx="21.205" ry="17.041"/><circle cx="162.586" cy="229.823" fill="#fff" r="42.047"/><circle cx="339.414" cy="229.823" fill="#fff" r="42.047"/><g fill="#383842"><g><circle cx="162.586" cy="229.823" r="25.06"/><circle cx="339.414" cy="229.823" r="25.06"/></g><path d="m251 271.095c-6.943 0-13.886-2.626-19.55-7.878-2.025-1.877-2.145-5.041-.267-7.065 1.878-2.025 5.041-2.144 7.066-.267 7.508 6.961 17.994 6.961 25.502 0 2.023-1.879 5.188-1.759 7.066.267 1.877 2.024 1.758 5.188-.267 7.065-5.664 5.252-12.607 7.878-19.55 7.878z"/></g></g><path d="m147.307 455.637h207.386v46.363h-207.386z" fill="url(#SVGID_11_)"/></g></svg>