<svg id="Capa_1" enable-background="new 0 0 502 502" height="512" viewBox="0 0 502 502" width="512" xmlns="http://www.w3.org/2000/svg" xmlns:xlink="http://www.w3.org/1999/xlink"><linearGradient id="SVGID_1_" gradientUnits="userSpaceOnUse" x1="251" x2="251" y1="502" y2="0"><stop offset=".0212" stop-color="#ffb3dd"/><stop offset="1" stop-color="#ff88ca"/></linearGradient><g><path d="m428.484 73.516c-47.408-47.408-110.44-73.516-177.484-73.516-67.045 0-130.076 26.108-177.484 73.516s-73.516 110.439-73.516 177.484c0 67.044 26.108 130.076 73.516 177.484s110.439 73.516 177.484 73.516c67.044 0 130.076-26.108 177.484-73.516s73.516-110.44 73.516-177.484c0-67.045-26.108-130.076-73.516-177.484zm-8.471 177.484c0 17.024-2.54 33.463-7.244 48.971l-120.775-72.221v-140.725c73.449 18.369 128.019 84.915 128.019 163.975zm-210.007-163.975v140.724l-120.775 72.221c-4.703-15.508-7.244-31.947-7.244-48.97 0-79.061 54.57-145.606 128.019-163.975zm-78.62 283.265 78.621-47.013v91.698c-30.237-7.562-57.275-23.281-78.621-44.685zm160.608 44.685v-91.698l78.621 47.013c-21.348 21.404-48.386 37.123-78.621 44.685z" fill="url(#SVGID_1_)"/><g><path d="m421.981 120.961c-2.892 0-5.759-1.248-7.736-3.657-5.098-6.212-10.608-12.202-16.377-17.801-3.963-3.846-4.058-10.177-.211-14.141 3.847-3.962 10.177-4.058 14.141-.211 6.309 6.123 12.334 12.672 17.909 19.466 3.503 4.269 2.882 10.57-1.387 14.074-1.862 1.526-4.108 2.27-6.339 2.27z" fill="#ffc8e5"/></g><g><path d="m380.379 81.225c-2.08 0-4.177-.646-5.972-1.985-3.481-2.597-7.111-5.129-10.791-7.526-4.628-3.014-5.935-9.209-2.921-13.837 3.015-4.628 9.21-5.936 13.837-2.921 4.033 2.627 8.015 5.404 11.834 8.253 4.427 3.303 5.338 9.568 2.035 13.995-1.963 2.632-4.973 4.021-8.022 4.021z" fill="#ffc8e5"/></g></g></svg>