<svg id="Capa_1" enable-background="new 0 0 502 502" height="512" viewBox="0 0 502 502" width="512" xmlns="http://www.w3.org/2000/svg" xmlns:xlink="http://www.w3.org/1999/xlink"><linearGradient id="SVGID_1_" gradientUnits="userSpaceOnUse" x1="366.322" x2="458.497" y1="115.006" y2="115.006"><stop offset="0" stop-color="#d0d7d7"/><stop offset="1" stop-color="#efefef"/></linearGradient><linearGradient id="SVGID_2_" gradientUnits="userSpaceOnUse" x1="371.298" x2="470.324" y1="210.306" y2="111.28"><stop offset=".0212" stop-color="#ffb3dd"/><stop offset="1" stop-color="#ffc8e5"/></linearGradient><linearGradient id="lg1"><stop offset="0" stop-color="#efefef"/><stop offset="1" stop-color="#d0d7d7"/></linearGradient><linearGradient id="SVGID_3_" gradientUnits="userSpaceOnUse" x1="43.503" x2="135.679" xlink:href="#lg1" y1="115.006" y2="115.006"/><linearGradient id="lg2"><stop offset="0" stop-color="#ffc8e5"/><stop offset=".9788" stop-color="#ffb3dd"/></linearGradient><linearGradient id="SVGID_4_" gradientUnits="userSpaceOnUse" x1="31.677" x2="130.702" xlink:href="#lg2" y1="111.28" y2="210.306"/><linearGradient id="SVGID_5_" gradientUnits="userSpaceOnUse" x1="251" x2="251" xlink:href="#lg1" y1="407.508" y2="140.516"/><linearGradient id="SVGID_6_" gradientUnits="userSpaceOnUse" x1="68.175" x2="392.766" y1="154.855" y2="154.855"><stop offset="0" stop-color="#a47cd1"/><stop offset=".9777" stop-color="#8b59c5"/></linearGradient><linearGradient id="SVGID_7_" gradientUnits="userSpaceOnUse" x1="251" x2="251" xlink:href="#lg2" y1="502" y2="339.492"/><linearGradient id="lg3"><stop offset=".0005580357" stop-color="#f6e66a"/><stop offset=".9777" stop-color="#f9f2ab"/></linearGradient><linearGradient id="SVGID_8_" gradientUnits="userSpaceOnUse" x1="253.798" x2="253.798" xlink:href="#lg3" y1="164.457" y2="76.407"/><linearGradient id="SVGID_9_" gradientUnits="userSpaceOnUse" x1="246.854" x2="246.854" y1="134.142" y2="27.998"><stop offset=".0005580357" stop-color="#5bd6fd"/><stop offset=".9777" stop-color="#a4e6ff"/></linearGradient><linearGradient id="SVGID_10_" gradientUnits="userSpaceOnUse" x1="244.408" x2="244.408" xlink:href="#lg3" y1="67.906" y2="0"/><g><path d="m377.278 167.4-10.957-62.657s14.824-34.52 64.466-41.867c14.158-2.098 27.003 8.61 27.52 22.907.149 4.176.229 8.759.169 13.651z" fill="url(#SVGID_1_)"/><path d="m458.477 99.434c-.447 43.776-11.096 111.891-70.829 127.222l-10.37-59.256c14.546-33.864 44.592-59.496 81.199-67.966z" fill="url(#SVGID_2_)"/><path d="m124.722 167.4 10.957-62.657s-14.824-34.52-64.466-41.867c-14.158-2.098-27.003 8.61-27.52 22.907-.149 4.176-.229 8.759-.169 13.651z" fill="url(#SVGID_3_)"/><path d="m120.661 114.841c-.428-5.545-3.22-10.639-7.664-13.984-8.485-6.386-20.523-4.745-27.008 3.665-4.76 6.174-9.218 12.612-13.347 19.286l52.08 43.592z" fill="#d3d1d8"/><path d="m43.523 99.434c.447 43.776 11.096 111.891 70.829 127.222l10.37-59.256c-14.546-33.864-44.591-59.496-81.199-67.966z" fill="url(#SVGID_4_)"/><path d="m87.836 407.508c-8.352-20.282-13.104-44.283-13.104-72.42 0-122.947 46.958-194.572 46.958-194.572h258.62s46.958 71.625 46.958 194.572c0 28.137-4.752 52.138-13.104 72.42z" fill="url(#SVGID_5_)"/><path d="m78.965 114.133c-10.512 15.241-19.268 31.862-26.015 49.433 9.381 28.637 27.47 54.381 61.402 63.09l10.37-59.256c-9.486-22.084-25.566-40.662-45.757-53.267z" fill="#ff88ca"/><path d="m370.615 94.991c-32.445-29.132-74.14-46.462-119.615-46.462-88.419 0-162.529 65.508-182.164 155.886-3.793 17.457 9.198 34.063 27.058 34.472 47.646 1.092 114.007-6.59 150.952-51.237.772-.932 2.264-.129 1.9 1.025-2.244 7.121-5.742 20.331-8.487 40.277-2.702 19.631 15.139 35.98 34.436 31.476 33.485-7.816 81.448-28.777 110.534-84.778 14.045-27.043 8.061-60.301-14.614-80.659z" fill="url(#SVGID_6_)"/><g><path d="m330.897 208.618c-2.613 0-5.222-1.018-7.184-3.042-3.843-3.967-3.742-10.297.225-14.14 1.418-1.373 2.821-2.801 4.17-4.245 3.771-4.034 10.099-4.249 14.134-.476 4.034 3.771 4.248 10.1.476 14.134-1.574 1.684-3.211 3.35-4.865 4.952-1.941 1.881-4.45 2.817-6.956 2.817z" fill="#d5c3e9"/></g><g><path d="m354.524 179.995c-2.1 0-4.216-.658-6.021-2.021-4.406-3.329-5.28-9.601-1.951-14.007 2.909-3.85 4.921-8.59 5.821-13.708.956-5.439 6.139-9.078 11.58-8.118 5.439.956 9.074 6.141 8.118 11.58-1.446 8.224-4.752 15.936-9.561 22.302-1.965 2.602-4.958 3.972-7.986 3.972z" fill="#d5c3e9"/></g><path d="m414.164 407.508c-28.147 68.344-97.186 94.492-163.164 94.492s-135.017-26.148-163.164-94.492c36.379-41.181 95.904-68.016 163.164-68.016s126.785 26.835 163.164 68.016z" fill="url(#SVGID_7_)"/><g><ellipse cx="129.828" cy="337.216" fill="#fd9bae" rx="20.594" ry="16.55"/><ellipse cx="372.173" cy="337.216" fill="#fd9bae" rx="20.594" ry="16.55"/><circle cx="165.133" cy="296.38" fill="#fff" r="40.836"/><circle cx="336.867" cy="296.38" fill="#fff" r="40.836"/><g fill="#383842"><circle cx="165.133" cy="296.38" r="24.338"/><circle cx="336.867" cy="296.38" r="24.338"/></g></g><g fill="#383842"><path d="m251 445.974c-6.778 0-13.556-2.563-19.085-7.689-2.025-1.878-2.145-5.041-.268-7.066 1.879-2.025 5.041-2.143 7.066-.268 7.234 6.707 17.338 6.707 24.572 0 2.024-1.874 5.188-1.757 7.066.268 1.877 2.025 1.758 5.188-.268 7.066-5.527 5.125-12.305 7.689-19.083 7.689z"/><ellipse cx="191.549" cy="404.292" rx="19.983" ry="28.93" transform="matrix(.422 -.907 .907 .422 -255.813 407.523)"/><ellipse cx="310.451" cy="404.292" rx="28.93" ry="19.983" transform="matrix(.907 -.422 .422 .907 -141.517 168.587)"/></g><path d="m297.192 76.407 5.508 16.683c11.523 34.878-14.168 71.068-50.895 71.366h-1.611c-21.645-.179-39.461-12.816-48.081-30.314z" fill="url(#SVGID_8_)"/><path d="m281.205 27.998 15.987 48.409c-14.486 21.227-43.249 50.12-95.079 57.735-6.005-12.189-7.546-26.735-2.814-41.052l8.312-25.184z" fill="url(#SVGID_9_)"/><path d="m281.205 27.998c-10.141 15.331-31.925 37.652-73.593 39.909l15.858-48.012c3.927-11.872 15.022-19.895 27.53-19.895s23.603 8.023 27.53 19.895z" fill="url(#SVGID_10_)"/></g></svg>