<svg id="Capa_1" enable-background="new 0 0 502 502" height="512" viewBox="0 0 502 502" width="512" xmlns="http://www.w3.org/2000/svg" xmlns:xlink="http://www.w3.org/1999/xlink"><linearGradient id="lg1"><stop offset=".0217" stop-color="#6a647f"/><stop offset="1" stop-color="#4f4c5f"/></linearGradient><linearGradient id="SVGID_1_" gradientUnits="userSpaceOnUse" x1="497.513" x2="373.701" xlink:href="#lg1" y1="406.486" y2="406.486"/><linearGradient id="lg2"><stop offset="0" stop-color="#4f4c5f"/><stop offset=".9783" stop-color="#6a647f"/></linearGradient><linearGradient id="SVGID_2_" gradientUnits="userSpaceOnUse" x1="128.299" x2="4.487" xlink:href="#lg2" y1="406.486" y2="406.486"/><linearGradient id="SVGID_3_" gradientUnits="userSpaceOnUse" x1="386.623" x2="386.623" xlink:href="#lg2" y1="339.616" y2="473.355"/><linearGradient id="SVGID_4_" gradientUnits="userSpaceOnUse" x1="115.377" x2="115.377" xlink:href="#lg2" y1="339.616" y2="473.355"/><linearGradient id="SVGID_5_" gradientUnits="userSpaceOnUse" x1="251" x2="251" y1="365.086" y2="48.293"><stop offset=".0212" stop-color="#f5385d"/><stop offset="1" stop-color="#ff889e"/></linearGradient><linearGradient id="SVGID_6_" gradientUnits="userSpaceOnUse" x1="138.28" x2="222.118" xlink:href="#lg1" y1="126.915" y2="126.915"/><linearGradient id="SVGID_7_" gradientUnits="userSpaceOnUse" x1="279.882" x2="363.72" xlink:href="#lg2" y1="126.915" y2="126.915"/><linearGradient id="SVGID_8_" gradientUnits="userSpaceOnUse" x1="251" x2="251" xlink:href="#lg2" y1="376.361" y2="152.084"/><linearGradient id="SVGID_9_" gradientUnits="userSpaceOnUse" x1="192.391" x2="109.993" xlink:href="#lg1" y1="69.844" y2="69.844"/><linearGradient id="SVGID_10_" gradientUnits="userSpaceOnUse" x1="392.007" x2="309.609" xlink:href="#lg2" y1="69.844" y2="69.844"/><linearGradient id="SVGID_11_" gradientUnits="userSpaceOnUse" x1="1.013" x2="89.003" xlink:href="#lg1" y1="210.35" y2="210.35"/><linearGradient id="SVGID_12_" gradientUnits="userSpaceOnUse" x1="412.997" x2="500.987" xlink:href="#lg2" y1="210.35" y2="210.35"/><g><g><path d="m469.584 473.355h-11.634c-26.409 0-48.738-19.855-51.94-46.183-4.692-38.578-23.105-52.358-23.29-52.595l-9.019-15.323 52.582-19.638c2.852 3.526 27.649 25.335 34.798 77.881h8.502c15.424 0 27.929 12.505 27.929 27.929s-12.504 27.929-27.928 27.929z" fill="url(#SVGID_1_)"/></g><g><path d="m32.416 473.355h11.634c26.409 0 48.738-19.855 51.94-46.183 4.692-38.578 23.105-52.358 23.29-52.595l9.019-15.323-52.582-19.638c-2.852 3.526-27.649 25.335-34.798 77.881h-8.502c-15.424 0-27.929 12.505-27.929 27.929s12.504 27.929 27.928 27.929z" fill="url(#SVGID_2_)"/></g><g><path d="m416.09 473.355h-11.634c-26.409 0-48.738-19.855-51.94-46.183-4.692-38.578-23.105-52.358-23.29-52.595l.137.173 43.427-35.134c2.852 3.526 27.649 25.335 34.798 77.881h8.502c15.424 0 27.929 12.505 27.929 27.929s-12.504 27.929-27.929 27.929z" fill="url(#SVGID_3_)"/></g><g><path d="m85.91 473.355h11.634c26.409 0 48.738-19.855 51.94-46.183 4.692-38.578 23.105-52.358 23.29-52.595l-.137.173-43.427-35.134c-2.852 3.526-27.649 25.335-34.798 77.881h-8.502c-15.424 0-27.929 12.505-27.929 27.929s12.504 27.929 27.929 27.929z" fill="url(#SVGID_4_)"/></g><path d="m500.987 276.599c.668 7.473 1.013 15.048 1.013 22.704 0 36.324-29.448 65.783-65.773 65.783h-370.454c-18.157 0-34.603-7.362-46.512-19.271-11.899-11.899-19.261-28.345-19.261-46.512 0-7.656.344-15.231 1.013-22.704l43.995-66.249 9.868-67.697c45.985-57.52 116.751-94.36 196.123-94.36 69.307 0 132.062 28.102 177.48 73.52 6.592 6.592 12.82 13.55 18.643 20.841l9.868 67.697z" fill="url(#SVGID_5_)"/><g><path d="m186.918 196.163c-8.265-70.25-48.235-113.75-48.638-114.181l25.786-24.316c1.97 2.083 48.357 51.953 58.051 134.356z" fill="url(#SVGID_6_)"/></g><g><path d="m315.082 196.163c8.265-70.25 48.235-113.75 48.638-114.181l-25.786-24.316c-1.97 2.083-48.357 51.953-58.051 134.356z" fill="url(#SVGID_7_)"/></g><path d="m251 152.084c-85.848 0-155.442 69.594-155.442 155.442 0 38.017 30.818 68.835 68.835 68.835h173.214c38.017 0 68.835-30.818 68.835-68.835 0-85.848-69.594-155.442-155.442-155.442z" fill="url(#SVGID_8_)"/><g><path d="m357.227 246.195c-3.036 0-6.035-1.377-8-3.991-3.563-4.739-7.51-9.227-11.729-13.337-3.956-3.854-4.038-10.185-.184-14.141s10.185-4.038 14.141-.185c4.951 4.824 9.58 10.087 13.758 15.643 3.319 4.414 2.431 10.683-1.983 14.002-1.802 1.355-3.912 2.009-6.003 2.009z" fill="#938ea3"/></g><g><path d="m317.481 211.202c-1.817 0-3.656-.495-5.308-1.533-3.864-2.426-7.903-4.641-12.005-6.583-4.992-2.363-7.123-8.325-4.76-13.317 2.363-4.991 8.325-7.124 13.317-4.76 4.814 2.279 9.552 4.877 14.083 7.722 4.677 2.937 6.088 9.109 3.151 13.787-1.899 3.025-5.152 4.684-8.478 4.684z" fill="#938ea3"/></g><g><ellipse cx="150.986" cy="333.87" fill="#fd9bae" rx="16.998" ry="13.66"/><ellipse cx="351.014" cy="333.87" fill="#fd9bae" rx="16.998" ry="13.66"/><circle cx="180.127" cy="300.165" fill="#fff" r="33.705"/><circle cx="321.873" cy="300.165" fill="#fff" r="33.705"/><g fill="#383842"><g><circle cx="180.127" cy="300.165" r="20.088"/><circle cx="321.873" cy="300.165" r="20.088"/></g><path d="m251 334.247c-5.805 0-11.61-2.195-16.346-6.587-2.025-1.877-2.145-5.041-.267-7.065 1.878-2.025 5.042-2.144 7.066-.267 5.621 5.211 13.473 5.211 19.094 0 2.024-1.877 5.188-1.759 7.066.267 1.877 2.024 1.758 5.188-.267 7.065-4.736 4.392-10.541 6.587-16.346 6.587z"/></g></g><path d="m138.28 81.982c.268.287 18.039 19.633 32.344 53.225 11.813-3.519 22.292-10.154 30.48-18.955-16.372-36.396-35.778-57.254-37.037-58.585z" fill="#4f4c5f"/><circle cx="151.192" cy="69.844" fill="url(#SVGID_9_)" r="41.199"/><path d="m300.896 116.252c8.189 8.801 18.667 15.437 30.48 18.955 14.305-33.592 32.076-52.938 32.343-53.225l-25.787-24.316c-1.257 1.331-20.664 22.189-37.036 58.586z" fill="#4f4c5f"/><circle cx="350.808" cy="69.844" fill="url(#SVGID_10_)" r="41.199"/><path d="m89.003 204.659c0 40.537-32.861 73.388-73.388 73.388-5.003 0-9.884-.496-14.603-1.448 4.516-50.421 23.95-96.558 53.864-133.946 20.507 13.013 34.127 35.92 34.127 62.006z" fill="url(#SVGID_11_)"/><path d="m500.987 276.599c-4.719.952-9.6 1.448-14.603 1.448-40.527 0-73.388-32.851-73.388-73.388 0-26.086 13.62-48.993 34.127-62.006 29.915 37.388 49.348 83.525 53.864 133.946z" fill="url(#SVGID_12_)"/></g></svg>