<svg id="Capa_1" enable-background="new 0 0 502 502" height="512" viewBox="0 0 502 502" width="512" xmlns="http://www.w3.org/2000/svg" xmlns:xlink="http://www.w3.org/1999/xlink"><linearGradient id="lg1"><stop offset="0" stop-color="#00c4a2"/><stop offset=".9794" stop-color="#76e6d5"/></linearGradient><linearGradient id="SVGID_1_" gradientUnits="userSpaceOnUse" x1="9.127" x2="172.535" xlink:href="#lg1" y1="414.008" y2="414.008"/><linearGradient id="SVGID_2_" gradientUnits="userSpaceOnUse" x1="14.842" x2="275.576" xlink:href="#lg1" y1="130.367" y2="130.367"/><linearGradient id="SVGID_3_" gradientUnits="userSpaceOnUse" x1="232.139" x2="492.873" y1="347.664" y2="347.664"><stop offset=".0206" stop-color="#76e6d5"/><stop offset="1" stop-color="#00c4a2"/></linearGradient><linearGradient id="SVGID_4_" gradientUnits="userSpaceOnUse" x1="362.506" x2="362.506" xlink:href="#lg1" y1="260.734" y2="0"/><linearGradient id="SVGID_5_" gradientUnits="userSpaceOnUse" x1="145.209" x2="145.209" xlink:href="#lg1" y1="478.031" y2="217.297"/><g><path d="m172.428 377.505-17.38-51.488c-1.612.544-39.921 13.721-77.822 47.863-24.767 22.312-52.872 56.902-67.414 106.525-3.163 10.798 5.022 21.595 16.274 21.595h21.387c7.305 0 13.807-4.68 16.067-11.627 9.283-28.535 25.509-53.551 48.572-74.764 29.638-27.261 60.119-38.035 60.424-38.141z" fill="url(#SVGID_1_)"/><path d="m112.749 97.907c-144.019 1.653-154.139 233.429 141.109 141.108 92.32-295.247-139.456-285.127-141.109-141.108z" fill="url(#SVGID_2_)"/><path d="m253.858 239.015c-92.32 295.247 139.456 285.127 141.109 141.109 144.018-1.653 154.138-233.429-141.109-141.109z" fill="url(#SVGID_3_)"/><path d="m394.966 97.907c-1.653-144.019-233.429-154.139-141.108 141.108 295.247 92.321 285.127-139.455 141.108-141.108z" fill="url(#SVGID_4_)"/><g><path d="m464.309 185.952c-4.797 0-9.031-3.461-9.85-8.349-1.102-6.578-4.252-13.065-9.109-18.758-3.584-4.202-3.084-10.513 1.117-14.098 4.202-3.585 10.514-3.083 14.098 1.117 7.208 8.449 11.918 18.281 13.619 28.434.913 5.447-2.763 10.602-8.21 11.515-.559.094-1.116.139-1.665.139z" fill="#afefe5"/></g><g><path d="m424.447 141.897c-1.36 0-2.743-.279-4.065-.869-3.483-1.552-7.226-2.831-11.125-3.801-5.359-1.333-8.623-6.759-7.29-12.119 1.333-5.359 6.76-8.624 12.119-7.29 5.031 1.252 9.889 2.915 14.438 4.942 5.045 2.248 7.311 8.16 5.063 13.205-1.66 3.722-5.313 5.932-9.14 5.932z" fill="#afefe5"/></g><path d="m172.428 377.505-17.38-51.489c-1.612.544-39.921 13.721-77.822 47.864-6.877 6.195-14.011 13.341-21.041 21.489 4.096 1.817 8.347 3.464 12.772 4.893 11.253 3.633 20.042 12.431 23.689 23.679.959 2.958 2.02 5.834 3.155 8.646 4.992-5.903 10.425-11.565 16.309-16.978 29.638-27.261 60.12-38.035 60.424-38.141z" fill="#00ad8d"/><path d="m253.858 239.015c-295.248-92.32-285.128 139.456-141.109 141.109 1.653 144.019 233.429 154.138 141.109-141.109z" fill="url(#SVGID_5_)"/></g></svg>