<svg id="Capa_1" enable-background="new 0 0 502 502" height="512" viewBox="0 0 502 502" width="512" xmlns="http://www.w3.org/2000/svg" xmlns:xlink="http://www.w3.org/1999/xlink"><linearGradient id="SVGID_1_" gradientUnits="userSpaceOnUse" x1="251" x2="251" y1="502" y2="178.387"><stop offset=".0005580357" stop-color="#5bd6fd"/><stop offset=".9777" stop-color="#a4e6ff"/></linearGradient><linearGradient id="lg1"><stop offset="0" stop-color="#ff889e"/><stop offset=".9788" stop-color="#f5385d"/></linearGradient><linearGradient id="SVGID_2_" gradientUnits="userSpaceOnUse" x1="46.396" x2="455.604" xlink:href="#lg1" y1="380.22" y2="380.22"/><linearGradient id="lg2"><stop offset=".0212" stop-color="#f5385d"/><stop offset="1" stop-color="#ff889e"/></linearGradient><linearGradient id="SVGID_3_" gradientUnits="userSpaceOnUse" x1="251" x2="251" xlink:href="#lg2" y1="502" y2="231.99"/><linearGradient id="SVGID_4_" gradientUnits="userSpaceOnUse" x1="294.285" x2="424.969" xlink:href="#lg2" y1="56.672" y2="56.672"/><linearGradient id="SVGID_5_" gradientUnits="userSpaceOnUse" x1="77.031" x2="207.715" xlink:href="#lg1" y1="56.672" y2="56.672"/><linearGradient id="SVGID_6_" gradientUnits="userSpaceOnUse" x1="251" x2="251" xlink:href="#lg2" y1="118.613" y2="35.599"/><linearGradient id="SVGID_7_" gradientUnits="userSpaceOnUse" x1="251" x2="251" y1="258.439" y2="98.334"><stop offset=".0005580357" stop-color="#f6e66a"/><stop offset=".9777" stop-color="#f9f2ab"/></linearGradient><g><path d="m455.604 178.387h-409.208v161.807l30.635 40.026-30.635 40.026v21.08c0 33.51 27.165 60.674 60.674 60.674h80.763l63.167-22.566 63.167 22.566h80.763c33.509 0 60.674-27.165 60.674-60.674v-21.08l-26.385-40.026 26.385-40.026z" fill="url(#SVGID_1_)"/><path d="m46.396 340.193h409.208v80.052h-409.208z" fill="url(#SVGID_2_)"/><path d="m187.833 231.99h126.334v270.01h-126.334z" fill="url(#SVGID_3_)"/><path d="m294.285 44.798s6.865-13.046 19.845-25.823c44.963-44.26 119.632-5.273 109.99 57.078-1.764 11.41-5.46 23.931-12.03 37.29h-117.805z" fill="url(#SVGID_4_)"/><g><path d="m400.527 74.736c-4.859 0-9.121-3.548-9.874-8.499-.267-1.756-.718-3.46-1.34-5.065-1.997-5.149.559-10.942 5.708-12.939 5.15-1.996 10.942.558 12.939 5.708 1.15 2.965 1.98 6.091 2.466 9.291.83 5.46-2.924 10.56-8.384 11.389-.509.077-1.015.115-1.515.115z" fill="#ffb2c1"/></g><g><path d="m375.83 44.183c-1.56 0-3.143-.366-4.621-1.138-3.803-1.986-7.968-3.039-12.045-3.044-5.523-.007-9.994-4.491-9.987-10.014.008-5.518 4.483-9.986 10-9.986h.014c7.279.01 14.636 1.848 21.277 5.317 4.895 2.557 6.791 8.598 4.234 13.493-1.784 3.416-5.266 5.372-8.872 5.372z" fill="#ffb2c1"/></g><path d="m207.715 44.798s-6.865-13.046-19.845-25.823c-44.963-44.26-119.632-5.273-109.99 57.078 1.764 11.41 5.46 23.931 12.03 37.29h117.804v-68.545z" fill="url(#SVGID_5_)"/><path d="m265.98 35.599h-29.96c-26.613 0-48.187 21.574-48.187 48.187v34.827h126.334v-34.827c0-26.613-21.574-48.187-48.187-48.187z" fill="url(#SVGID_6_)"/><path d="m149.868 252.226-73.791-73.839h-29.682v109.365c3.114.444 6.292.687 9.526.687h78.939c11.717 0 21.216-9.499 21.216-21.216.001-5.624-2.232-11.019-6.208-14.997z" fill="#2ecdf9"/><path d="m410.827 98.334h-319.654c-40.037 0-72.493 32.456-72.493 72.493v50.37c0 20.568 16.674 37.242 37.242 37.242h390.155c20.568 0 37.242-16.674 37.242-37.242v-50.37c.001-40.037-32.455-72.493-72.492-72.493z" fill="url(#SVGID_7_)"/><g><ellipse cx="129.903" cy="218.179" fill="#fd9bae" rx="20.581" ry="16.539"/><ellipse cx="372.097" cy="218.179" fill="#fd9bae" rx="20.581" ry="16.539"/><circle cx="165.187" cy="177.369" fill="#fff" r="40.81"/><circle cx="336.813" cy="177.369" fill="#fff" r="40.81"/><g fill="#383842"><g><circle cx="165.187" cy="177.369" r="24.323"/><circle cx="336.813" cy="177.369" r="24.323"/></g><path d="m251 217.573c-6.774 0-13.549-2.562-19.075-7.685-2.025-1.878-2.145-5.041-.268-7.066 1.878-2.025 5.041-2.144 7.066-.268 7.229 6.701 17.324 6.701 24.553 0 2.025-1.875 5.188-1.757 7.066.268 1.877 2.025 1.758 5.188-.268 7.066-5.525 5.124-12.3 7.685-19.074 7.685z"/></g></g></g></svg>