<svg id="Capa_1" enable-background="new 0 0 502 502" height="512" viewBox="0 0 502 502" width="512" xmlns="http://www.w3.org/2000/svg" xmlns:xlink="http://www.w3.org/1999/xlink"><linearGradient id="SVGID_1_" gradientUnits="userSpaceOnUse" x1="226.996" x2="275.004" y1="161.789" y2="161.789"><stop offset=".0212" stop-color="#ffb3dd"/><stop offset="1" stop-color="#ffc8e5" stop-opacity=".9"/></linearGradient><linearGradient id="SVGID_2_" gradientUnits="userSpaceOnUse" x1="251" x2="251" y1="502" y2="283.95"><stop offset="0" stop-color="#ffc8e5"/><stop offset=".9788" stop-color="#ffb3dd"/></linearGradient><linearGradient id="SVGID_3_" gradientUnits="userSpaceOnUse" x1="251" x2="251" y1="343.34" y2="201.794"><stop offset=".0212" stop-color="#f5385d"/><stop offset="1" stop-color="#ff889e"/></linearGradient><linearGradient id="SVGID_4_" gradientUnits="userSpaceOnUse" x1="251" x2="251" y1="163.689" y2="0"><stop offset=".0005580357" stop-color="#f6e66a"/><stop offset=".9777" stop-color="#f9f2ab"/></linearGradient><linearGradient id="SVGID_5_" gradientUnits="userSpaceOnUse" x1="251" x2="251" y1="163.689" y2="64.187"><stop offset=".0005580357" stop-color="#f7ac3e"/><stop offset=".9777" stop-color="#fccb88"/></linearGradient><g><path d="m226.996 111.884h48.009v99.809h-48.009z" fill="url(#SVGID_1_)"/><path d="m42.172 283.949v143.154c0 41.364 33.532 74.896 74.896 74.896h267.863c41.364 0 74.896-33.532 74.896-74.896v-143.154z" fill="url(#SVGID_2_)"/><g><path d="m429.828 399.691c-5.523 0-10-4.477-10-10v-15.851c0-5.523 4.477-10 10-10s10 4.477 10 10v15.851c0 5.523-4.477 10-10 10z" fill="#ffdcef"/></g><g><path d="m429.828 439.691c-5.523 0-10-4.477-10-10v-6.851c0-5.523 4.477-10 10-10s10 4.477 10 10v6.851c0 5.523-4.477 10-10 10z" fill="#ffdcef"/></g><path d="m68.172 283.949h-26v77.851c12.508 7.555 26.75 11.539 41.431 11.539 8.456 0 16.769-1.319 24.689-3.882 11.831-3.828 19.881-14.802 19.881-27.236 0-9.135-4.366-17.719-11.748-23.1z" fill="#ff88ca"/><path d="m419.518 201.794h-337.036c-30.198 0-54.678 24.48-54.678 54.678v26.198c0 20.968 10.467 40.553 27.9 52.204 16.887 11.287 38.912 11.287 55.799 0 16.887-11.287 38.912-11.287 55.799 0 16.887 11.287 38.912 11.287 55.799 0 16.887-11.287 38.912-11.287 55.799 0 16.887 11.287 38.912 11.287 55.799 0 16.887-11.287 38.912-11.287 55.799 0 16.887 11.287 38.912 11.287 55.799 0 17.433-11.651 27.9-31.236 27.9-52.204v-26.198c0-30.198-24.481-54.678-54.679-54.678z" fill="url(#SVGID_3_)"/><g><ellipse cx="129.249" cy="451.053" fill="#fd9bae" rx="20.692" ry="16.629"/><ellipse cx="372.751" cy="451.053" fill="#fd9bae" rx="20.692" ry="16.629"/><circle cx="164.723" cy="410.023" fill="#fff" r="41.031"/><circle cx="337.277" cy="410.023" fill="#fff" r="41.031"/><g fill="#383842"><g><circle cx="164.723" cy="410.023" r="24.454"/><circle cx="337.277" cy="410.023" r="24.454"/></g><path d="m251 450.418c-6.805 0-13.608-2.573-19.159-7.72-2.025-1.878-2.145-5.041-.268-7.066 1.878-2.025 5.043-2.143 7.066-.268 7.277 6.748 17.443 6.748 24.721 0 2.024-1.875 5.189-1.758 7.066.268s1.758 5.188-.268 7.066c-5.55 5.147-12.353 7.72-19.158 7.72z"/></g></g><circle cx="251" cy="273.491" fill="#fdd89f" r="24.004"/><circle cx="98.555" cy="273.491" fill="#76e6d5" r="24.004"/><circle cx="403.444" cy="273.491" fill="#bc9bdd" r="24.004"/><circle cx="157.596" cy="211.693" fill="#a4e6ff" r="24.004"/><circle cx="344.404" cy="211.693" fill="#ffc8e5" r="24.004"/><path d="m226.996 185.996c7.545 1.769 15.58 2.692 24.004 2.692s16.459-.924 24.004-2.692v-74.112h-48.009v74.112z" fill="#ff88ca"/><path d="m255.411 1.793c-2.458-2.391-6.365-2.391-8.823 0-87.935 85.518-64.277 161.896 4.412 161.896s92.347-76.378 4.411-161.896z" fill="url(#SVGID_4_)"/><path d="m253.682 65.277c-1.494-1.453-3.869-1.453-5.363 0-53.453 51.984-39.072 98.411 2.682 98.411 41.753.001 56.134-46.427 2.681-98.411z" fill="url(#SVGID_5_)"/></g></svg>