<svg id="Capa_1" enable-background="new 0 0 502 502" height="512" viewBox="0 0 502 502" width="512" xmlns="http://www.w3.org/2000/svg" xmlns:xlink="http://www.w3.org/1999/xlink"><linearGradient id="lg1"><stop offset="0" stop-color="#d0d7d7"/><stop offset="1" stop-color="#efefef"/></linearGradient><linearGradient id="SVGID_1_" gradientUnits="userSpaceOnUse" x1="167.455" x2="167.455" xlink:href="#lg1" y1="116.088" y2="21.551"/><linearGradient id="SVGID_2_" gradientUnits="userSpaceOnUse" x1="167.455" x2="167.455" y1="470.617" y2="139.218"><stop offset=".0212" stop-color="#e99780"/><stop offset="1" stop-color="#d86743"/></linearGradient><linearGradient id="SVGID_3_" gradientUnits="userSpaceOnUse" x1="167.455" x2="167.455" y1="361.707" y2="233.478"><stop offset="0" stop-color="#00c4a2"/><stop offset=".9794" stop-color="#76e6d5"/></linearGradient><linearGradient id="lg2"><stop offset=".0223" stop-color="#fccb88"/><stop offset=".9994" stop-color="#f7ac3e"/></linearGradient><linearGradient id="SVGID_4_" gradientUnits="userSpaceOnUse" x1="359.841" x2="502" xlink:href="#lg2" y1="226.13" y2="226.13"/><linearGradient id="SVGID_5_" gradientUnits="userSpaceOnUse" x1="180.747" x2="314.614" xlink:href="#lg2" y1="409.37" y2="409.37"/><linearGradient id="SVGID_6_" gradientUnits="userSpaceOnUse" x1="167.455" x2="167.455" xlink:href="#lg1" y1="177.584" y2="100.852"/><linearGradient id="SVGID_7_" gradientUnits="userSpaceOnUse" x1="302.626" x2="302.626" xlink:href="#lg2" y1="403.707" y2="158.444"/><g><path d="m294.639 61.224c-5.511-23.253-26.277-39.673-50.175-39.673h-154.019c-23.897 0-44.663 16.42-50.174 39.673l-13.003 54.864h280.374z" fill="url(#SVGID_1_)"/><path d="m167.455 139.218-143.969 38.366 32.757 248.604c3.35 25.424 25.023 44.429 50.667 44.429h165.903l38.611-293.033z" fill="url(#SVGID_2_)"/><path d="m113.853 355.646-35.003-44.583-39.762-15.072 12.458 94.549c3.754.758 7.624 1.167 11.576 1.167h33.196c12.313 0 22.294-9.981 22.294-22.294 0-4.992-1.676-9.84-4.759-13.767z" fill="#da6743"/><path d="m281.083 233.478h-227.256c-17.422 0-30.865 15.33-28.59 32.603l9.295 70.555c1.89 14.346 14.119 25.07 28.59 25.07h208.667c14.47 0 26.7-10.724 28.59-25.07l9.295-70.555c2.274-17.272-11.169-32.603-28.591-32.603z" fill="url(#SVGID_3_)"/><path d="m484.653 191.321c-64.874-51.022-124.812-25.98-124.812-25.98l65.366 127.723c16.717-12.052 31.197-18.37 42.937-21.499 20.016-5.335 33.856-23.582 33.856-44.297 0-13.999-6.343-27.293-17.347-35.947z" fill="url(#SVGID_4_)"/><path d="m186.892 338.29s-25.042 59.938 25.98 124.812c8.654 11.004 21.948 17.347 35.947 17.347 20.715 0 38.962-13.84 44.296-33.856 3.129-11.741 9.447-26.22 21.499-42.937z" fill="url(#SVGID_5_)"/><path d="m248.47 372.518-26.27-41.813-35.309 7.585s-6.387 15.303-6.133 38.807c5.339 4.445 11.282 8.285 17.758 11.379l25.067 11.976c9.506 4.542 20.9.701 25.717-8.668 3.145-6.118 2.829-13.441-.83-19.266z" fill="#f7ac3e"/><path d="m446.932 254.212-10.502-21.981c-4.397-9.203-15.64-12.798-24.561-7.853-6.002 3.327-9.542 9.823-9.083 16.671l1.689 25.206 20.73 26.809c10.53-7.592 20.171-12.905 28.8-16.582-1.299-7.595-3.642-15.09-7.073-22.27z" fill="#f7ac3e"/><path d="m311.423 177.584c15.329 0 26.545-14.453 22.739-29.302l-3.622-14.131c-5.022-19.595-22.681-33.299-42.909-33.299h-240.353c-20.229 0-37.887 13.704-42.909 33.299l-3.622 14.131c-3.806 14.849 7.41 29.302 22.739 29.302z" fill="url(#SVGID_6_)"/><path d="m419.863 267.145-36.906-77.247c-10.669-22.331-34.919-34.969-59.278-30.594-34.025 6.111-67.287 20.405-94.853 47.971s-41.86 60.828-47.971 94.853c-4.375 24.359 8.263 48.609 30.594 59.278l77.247 36.906c21.112 10.087 46.29 5.769 62.835-10.776l28.778-28.778 28.778-28.778c16.545-16.545 20.863-41.723 10.776-62.835z" fill="url(#SVGID_7_)"/><g><path d="m375.261 331.381c-2.551 0-5.103-.97-7.054-2.912-3.914-3.896-3.929-10.228-.033-14.142 1.276-1.283 2.555-2.563 3.837-3.84 3.912-3.897 10.244-3.887 14.142.025 3.899 3.912 3.888 10.244-.024 14.142-1.262 1.258-2.522 2.518-3.779 3.781-1.955 1.964-4.522 2.946-7.089 2.946z" fill="#ffe9cc"/></g><g><path d="m395.242 301.414c-.059 0-.117 0-.176-.001-5.522-.095-9.921-4.649-9.826-10.171.041-2.383-.468-4.755-1.471-6.858-2.378-4.985-.265-10.954 4.719-13.332 4.985-2.378 10.953-.265 13.331 4.719 2.33 4.884 3.512 10.353 3.418 15.815-.094 5.464-4.553 9.828-9.995 9.828z" fill="#ffe9cc"/></g><g><ellipse cx="241.645" cy="345.241" fill="#ff748f" rx="15.039" ry="12.086" transform="matrix(.707 -.707 .707 .707 -173.346 271.988)"/><ellipse cx="366.792" cy="220.095" fill="#ff748f" rx="15.039" ry="12.086" transform="matrix(.707 -.707 .707 .707 -48.2 323.825)"/><circle cx="238.79" cy="305.922" fill="#fff" r="29.822"/><circle cx="327.473" cy="217.239" fill="#fff" r="29.822"/><g fill="#383842"><ellipse cx="238.79" cy="305.922" rx="17.774" ry="17.774" transform="matrix(.707 -.707 .707 .707 -146.38 258.452)"/><ellipse cx="327.473" cy="217.239" rx="17.774" ry="17.774" transform="matrix(.707 -.707 .707 .707 -57.697 295.186)"/></g><path d="m289.94 284.589c9.123-.345 15.855-7.077 16.2-16.2" fill="none" stroke="#383842" stroke-linecap="round" stroke-miterlimit="10" stroke-width="10"/></g></g></svg>