<svg id="Capa_1" enable-background="new 0 0 502 502" height="512" viewBox="0 0 502 502" width="512" xmlns="http://www.w3.org/2000/svg" xmlns:xlink="http://www.w3.org/1999/xlink"><linearGradient id="lg1"><stop offset="0" stop-color="#d0d7d7"/><stop offset="1" stop-color="#efefef"/></linearGradient><linearGradient id="SVGID_1_" gradientUnits="userSpaceOnUse" x1="325.39" x2="383.213" xlink:href="#lg1" y1="355.663" y2="355.663"/><linearGradient id="lg2"><stop offset=".0212" stop-color="#ffb3dd"/><stop offset="1" stop-color="#ff88ca"/></linearGradient><linearGradient id="SVGID_2_" gradientUnits="userSpaceOnUse" x1="361.211" x2="361.211" xlink:href="#lg2" y1="318.455" y2="272.185"/><linearGradient id="SVGID_3_" gradientUnits="userSpaceOnUse" x1="231.973" x2="490.449" xlink:href="#lg2" y1="143.57" y2="143.57"/><linearGradient id="SVGID_4_" gradientUnits="userSpaceOnUse" x1="133.881" x2="133.881" xlink:href="#lg1" y1="502" y2="323.978"/><linearGradient id="lg3"><stop offset="0" stop-color="#a47cd1"/><stop offset=".9777" stop-color="#8b59c5"/></linearGradient><linearGradient id="SVGID_5_" gradientUnits="userSpaceOnUse" x1="140.789" x2="140.789" xlink:href="#lg3" y1="375.781" y2="329.511"/><linearGradient id="SVGID_6_" gradientUnits="userSpaceOnUse" x1="11.551" x2="270.028" xlink:href="#lg3" y1="200.896" y2="200.896"/><g><g><path d="m355.494 444.674c-6.933 0-13.621-3.784-17.01-10.375-23.086-44.899-10.474-72.405-1.264-92.49 7.553-16.474 12.113-26.417 1.3-47.237-4.864-9.366-1.215-20.901 8.151-25.765 9.364-4.867 20.901-1.215 25.765 8.151 19.418 37.391 8.387 61.449-.477 80.78-8.174 17.826-14.08 30.706.513 59.085 4.826 9.385 1.129 20.906-8.256 25.731-2.795 1.439-5.781 2.12-8.722 2.12z" fill="url(#SVGID_1_)"/></g><path d="m346.671 268.807c-9.366 4.864-13.015 16.399-8.151 25.765 10.813 20.82 6.253 30.763-1.3 47.237-.544 1.187-1.101 2.403-1.661 3.644.01 0 .019.001.029.001h.006c7.374-.001 14.767-1.844 21.36-5.322l.569-.304c1.092-.591 2.367-.903 3.688-.903s2.596.312 3.626.869l.614.329c3.857 2.035 7.984 3.491 12.214 4.367 6.498-17.076 10.003-38.202-5.229-67.532-4.864-9.365-16.401-13.017-25.765-8.151z" fill="#d3d1d8"/><path d="m396.549 272.185 7.731 23.82c4.801 14.79-11.928 27.781-26.234 20.237-.103-.054-.205-.109-.308-.164-5.119-2.768-10.824-4.151-16.528-4.151s-11.409 1.384-16.528 4.151c-.102.055-.205.11-.308.164-14.306 7.545-31.034-5.446-26.234-20.237l7.731-23.82z" fill="url(#SVGID_2_)"/><path d="m490.449 129.238c0 71.376-57.862 157.901-129.238 157.901s-129.238-86.525-129.238-157.901 57.861-129.238 129.238-129.238 129.238 57.862 129.238 129.238z" fill="url(#SVGID_3_)"/><g><path d="m420.956 237.457c-2.27 0-4.552-.769-6.426-2.343-4.229-3.552-4.778-9.86-1.226-14.089 2.868-3.415 5.614-6.982 8.161-10.603 3.177-4.518 9.415-5.604 13.932-2.426 4.517 3.177 5.604 9.415 2.426 13.932-2.874 4.086-5.971 8.11-9.205 11.96-1.978 2.355-4.81 3.569-7.662 3.569z" fill="#ffc8e5"/></g><g><path d="m446.127 198.184c-1.448 0-2.917-.316-4.31-.982-4.982-2.384-7.087-8.355-4.703-13.337.793-1.656 1.568-3.359 2.304-5.062 2.192-5.07 8.078-7.402 13.148-5.209 5.069 2.192 7.402 8.079 5.21 13.147-.837 1.936-1.719 3.873-2.621 5.758-1.719 3.588-5.298 5.685-9.028 5.685z" fill="#ffc8e5"/></g><g><path d="m135.073 502c-6.933 0-13.621-3.784-17.01-10.375-23.086-44.899-10.474-72.405-1.264-92.49 7.553-16.474 12.113-26.417 1.3-47.237-4.864-9.366-1.215-20.901 8.151-25.765 9.364-4.867 20.901-1.215 25.765 8.151 19.418 37.391 8.387 61.449-.477 80.78-8.174 17.826-14.08 30.705.513 59.085 4.826 9.385 1.129 20.906-8.256 25.731-2.796 1.439-5.781 2.12-8.722 2.12z" fill="url(#SVGID_4_)"/></g><path d="m126.25 326.134c-9.366 4.864-13.015 16.399-8.151 25.765 10.813 20.82 6.253 30.763-1.3 47.237-.245.533-.492 1.074-.741 1.617 6.755-.142 13.499-1.877 19.546-5.066l.547-.292c1.383-.748 2.987-1.143 4.639-1.143s3.255.396 4.668 1.159l.505.27c3.781 1.994 7.831 3.413 11.981 4.243 6.028-16.742 8.746-37.382-5.929-65.639-4.864-9.366-16.401-13.018-25.765-8.151z" fill="#d3d1d8"/><path d="m176.128 329.511 7.731 23.82c4.801 14.79-11.928 27.781-26.234 20.237-.103-.054-.205-.109-.308-.164-5.119-2.768-10.824-4.151-16.528-4.151s-11.409 1.384-16.528 4.151c-.102.055-.205.11-.308.164-14.306 7.545-31.034-5.446-26.234-20.237l7.731-23.82z" fill="url(#SVGID_5_)"/><g><ellipse cx="277.242" cy="117.587" fill="#ff748f" rx="14.271" ry="11.468"/><ellipse cx="445.18" cy="117.587" fill="#ff748f" rx="14.271" ry="11.468"/><circle cx="301.707" cy="89.289" fill="#fff" r="28.298"/><ellipse cx="290.275" cy="89.289" fill="#383842" rx="16.866" ry="16.866" transform="matrix(.707 -.707 .707 .707 21.883 231.408)"/><circle cx="420.714" cy="89.289" fill="#fff" r="28.298"/><g fill="#383842"><ellipse cx="409.282" cy="89.289" rx="16.866" ry="16.866" transform="matrix(.23 -.973 .973 .23 228.348 467.107)"/><path d="m368.463 96.162h-14.504c-2.873 0-5.406 1.888-6.216 4.645-2.553 8.685-5.486 26.512 13.468 26.512s16.022-17.827 13.468-26.512c-.811-2.757-3.343-4.645-6.216-4.645z"/></g></g><path d="m270.028 186.564c0 71.376-57.862 157.901-129.238 157.901s-129.239-86.525-129.239-157.901 57.862-129.238 129.238-129.238 129.239 57.862 129.239 129.238z" fill="url(#SVGID_6_)"/><g><path d="m212.956 129.223c-2.718 0-5.425-1.101-7.398-3.269-4.888-5.37-10.363-10.186-16.274-14.313-4.528-3.163-5.635-9.396-2.473-13.924s9.396-5.635 13.924-2.473c7.128 4.978 13.726 10.781 19.613 17.248 3.718 4.084 3.42 10.409-.664 14.127-1.916 1.744-4.326 2.604-6.728 2.604z" fill="#d5c3e9"/></g><g><path d="m164.158 97.763c-.983 0-1.983-.146-2.971-.453-3.562-1.107-7.256-1.998-10.98-2.648-5.441-.95-9.081-6.131-8.131-11.571s6.13-9.082 11.571-8.131c4.564.797 9.097 1.891 13.475 3.251 5.274 1.639 8.221 7.243 6.582 12.517-1.331 4.286-5.282 7.035-9.546 7.035z" fill="#d5c3e9"/></g><g><ellipse cx="56.82" cy="236.991" fill="#fd9bae" rx="14.271" ry="11.468"/><ellipse cx="224.758" cy="236.991" fill="#fd9bae" rx="14.271" ry="11.468"/><circle cx="81.286" cy="208.693" fill="#fff" r="28.298"/><ellipse cx="92.718" cy="208.693" fill="#383842" rx="16.866" ry="16.866" transform="matrix(.23 -.973 .973 .23 -131.695 250.984)"/><circle cx="200.293" cy="208.693" fill="#fff" r="28.298"/><g fill="#383842"><ellipse cx="211.666" cy="208.693" rx="16.866" ry="16.866" transform="matrix(.707 -.707 .707 .707 -85.573 210.795)"/><ellipse cx="140.789" cy="230.145" rx="12.661" ry="16.579"/></g></g></g></svg>