<svg id="Capa_1" enable-background="new 0 0 502 502" height="512" viewBox="0 0 502 502" width="512" xmlns="http://www.w3.org/2000/svg" xmlns:xlink="http://www.w3.org/1999/xlink"><linearGradient id="SVGID_1_" gradientUnits="userSpaceOnUse" x1="127.78" x2="127.78" y1="502" y2="246.44"><stop offset="0" stop-color="#d0d7d7"/><stop offset="1" stop-color="#efefef"/></linearGradient><linearGradient id="lg1"><stop offset="0" stop-color="#ff889e"/><stop offset=".9788" stop-color="#f5385d"/></linearGradient><linearGradient id="SVGID_2_" gradientUnits="userSpaceOnUse" x1="148.467" x2="502" xlink:href="#lg1" y1="176.766" y2="176.766"/><linearGradient id="SVGID_3_" gradientUnits="userSpaceOnUse" x1="280.72" x2="369.746" xlink:href="#lg1" y1="221.28" y2="132.255"/><g><path d="m215.573 246.44-207.291 207.292c-11.042 11.042-11.042 28.945 0 39.987s28.945 11.042 39.987 0l207.291-207.292z" fill="url(#SVGID_1_)"/><path d="m160.393 301.621c5.679 7.466 11.889 14.604 18.635 21.351 6.747 6.747 13.886 12.957 21.352 18.636l55.181-55.181-39.987-39.987z" fill="#d3d1d8"/><circle cx="325.234" cy="176.766" fill="url(#SVGID_2_)" r="176.766"/><g><path d="m472 186.766c-5.522 0-9.999-4.476-10-9.999-.001-8.963-.884-17.97-2.622-26.77-1.071-5.418 2.454-10.678 7.872-11.749 5.418-1.068 10.678 2.454 11.749 7.872 1.99 10.074 3 20.384 3.002 30.644.001 5.523-4.476 10-9.999 10.001-.001.001-.002.001-.002.001z" fill="#ffb2c1"/></g><g><path d="m461.028 122.893c-3.937 0-7.669-2.339-9.255-6.207-1.598-3.895-3.405-7.766-5.371-11.505-2.571-4.888-.692-10.935 4.196-13.505 4.888-2.572 10.935-.691 13.505 4.196 2.259 4.296 4.336 8.745 6.173 13.223 2.096 5.11-.347 10.951-5.457 13.047-1.242.509-2.527.751-3.791.751z" fill="#ffb2c1"/></g><path d="m257.616 190.581-35.75-123.073-24.909-12.332c-22.25 23.453-36.846 51.502-43.772 80.995l72.999 72.998c7.362 7.362 19.298 7.362 26.66 0 4.862-4.861 6.691-11.985 4.772-18.588z" fill="#f9496e"/><path d="m477.817 240.326-216.143-216.143c-12.662-12.662-32.662-14.564-47.279-4.219-8.752 6.194-17.097 13.207-24.928 21.038s-14.844 16.176-21.038 24.928c-10.344 14.617-8.443 34.617 4.219 47.279l216.144 216.144c12.662 12.662 32.662 14.564 47.279 4.219 8.752-6.194 17.097-13.207 24.928-21.038s14.844-16.176 21.038-24.928c10.344-14.618 8.442-34.618-4.22-47.28z" fill="url(#SVGID_3_)"/><g><ellipse cx="218.245" cy="112.283" fill="#fd9bae" rx="16.56" ry="20.607" transform="matrix(.707 -.707 .707 .707 -15.473 187.209)"/><ellipse cx="389.717" cy="283.755" fill="#fd9bae" rx="16.56" ry="20.607" transform="matrix(.707 -.707 .707 .707 -86.5 358.682)"/><circle cx="272.119" cy="108.37" fill="#fff" r="40.862"/><circle cx="393.63" cy="229.881" fill="#fff" r="40.862"/><g fill="#383842"><ellipse cx="272.119" cy="108.37" rx="24.354" ry="24.354" transform="matrix(.707 -.707 .707 .707 3.073 224.158)"/><ellipse cx="393.63" cy="229.881" rx="24.354" ry="24.354" transform="matrix(.707 -.707 .707 .707 -47.259 345.669)"/></g><path d="m301.349 178.455c.472 12.5 9.696 21.724 22.196 22.196" fill="none" stroke="#383842" stroke-linecap="round" stroke-miterlimit="10" stroke-width="10"/></g></g></svg>