<svg id="Capa_1" enable-background="new 0 0 502 502" height="512" viewBox="0 0 502 502" width="512" xmlns="http://www.w3.org/2000/svg" xmlns:xlink="http://www.w3.org/1999/xlink"><linearGradient id="lg1"><stop offset=".0223" stop-color="#a4e6ff"/><stop offset=".9994" stop-color="#5bd6fd"/></linearGradient><linearGradient id="SVGID_1_" gradientUnits="userSpaceOnUse" x1="365.718" x2="365.718" xlink:href="#lg1" y1="221.236" y2="13.093"/><linearGradient id="SVGID_2_" gradientUnits="userSpaceOnUse" x1="0" x2="243.812" xlink:href="#lg1" y1="124.011" y2="124.011"/><linearGradient id="lg2"><stop offset=".0005580357" stop-color="#5bd6fd"/><stop offset=".9777" stop-color="#a4e6ff"/></linearGradient><linearGradient id="SVGID_3_" gradientUnits="userSpaceOnUse" x1="375.032" x2="112.592" xlink:href="#lg2" y1="124.011" y2="124.011"/><linearGradient id="SVGID_4_" gradientUnits="userSpaceOnUse" x1=".245" x2="220.267" xlink:href="#lg2" y1="341.175" y2="341.175"/><linearGradient id="SVGID_5_" gradientUnits="userSpaceOnUse" x1="267.357" x2="487.378" xlink:href="#lg1" y1="341.175" y2="341.175"/><linearGradient id="SVGID_6_" gradientUnits="userSpaceOnUse" x1="4.31" x2="90.341" y1="283.211" y2="283.211"><stop offset=".0005580357" stop-color="#f6e66a"/><stop offset=".9777" stop-color="#f9f2ab"/></linearGradient><linearGradient id="SVGID_7_" gradientUnits="userSpaceOnUse" x1="415.969" x2="502" y1="94.934" y2="94.934"><stop offset=".0223" stop-color="#f9f2ab"/><stop offset=".9994" stop-color="#f6e66a"/></linearGradient><linearGradient id="SVGID_8_" gradientUnits="userSpaceOnUse" x1="243.812" x2="243.812" xlink:href="#lg2" y1="488.907" y2="196.528"/><g><path d="m487.378 196.528-56.395 24.707-55.951-24.707-131.22-91.718 44.448-91.718h60.3c33.637 0 64.559 18.451 80.537 48.041l48.696 90.175c7.62 14.119 10.779 29.834 9.585 45.22z" fill="url(#SVGID_1_)"/><path d="m199.364 13.093 44.448 91.718-131.22 91.718-49.399 38.401-62.948-38.402c-1.194-15.387 1.966-31.101 9.585-45.22l48.696-90.175c15.978-29.59 46.9-48.041 80.537-48.041h60.301z" fill="url(#SVGID_2_)"/><path d="m375.032 196.528-131.22 38.401-131.22-38.401 86.772-183.435h88.896z" fill="url(#SVGID_3_)"/><path d="m220.267 485.822c-6.309-1.659-12.396-3.995-18.177-6.943-12.734-6.51-23.957-16-32.581-27.92l-153.972-212.804c-9.014-12.449-14.15-26.884-15.292-41.627h112.346l85.159 129.103z" fill="url(#SVGID_4_)"/><path d="m487.378 196.528c-1.141 14.742-6.277 29.178-15.292 41.627l-153.972 212.803c-12.533 17.321-30.551 29.516-50.757 34.863l20.098-168.164 87.577-121.129z" fill="url(#SVGID_5_)"/><g><path d="m390.163 309.712c-2.007 0-4.032-.602-5.791-1.854-4.499-3.203-5.55-9.447-2.346-13.946 4.457-6.26 8.538-12.085 12.479-17.811 3.131-4.549 9.357-5.7 13.907-2.568 4.55 3.131 5.699 9.358 2.568 13.907-4.001 5.813-8.142 11.725-12.661 18.071-1.952 2.74-5.031 4.201-8.156 4.201z" fill="#bfe7f8"/></g><g><path d="m423.592 263.152c-2.097 0-4.21-.656-6.013-2.016-4.41-3.325-5.289-9.595-1.964-14.005 2.373-3.146 4.271-5.708 5.975-8.062 3.238-4.474 9.49-5.475 13.964-2.237 4.474 3.239 5.475 9.491 2.237 13.964-1.782 2.461-3.754 5.123-6.207 8.375-1.966 2.608-4.961 3.981-7.992 3.981z" fill="#bfe7f8"/></g><g><ellipse cx="100.997" cy="152.553" fill="#fd9bae" rx="24.272" ry="19.506"/><ellipse cx="386.627" cy="152.553" fill="#fd9bae" rx="24.272" ry="19.506"/><path d="m142.608 110.868c11.672 0 22.445 2.582 31.133 6.944 7.384 3.707 16.188-1.302 16.844-9.538.184-2.313.204-4.672.047-7.066-1.61-24.612-22.103-44.266-46.76-44.898-27.159-.696-49.393 21.112-49.393 48.113 0 1.37.058 2.727.17 4.068.685 8.141 9.517 12.991 16.818 9.324 8.689-4.362 19.465-6.947 31.141-6.947z" fill="#fff"/><path d="m243.812 169.106c-10.477 0-20.953-3.502-29.695-10.505-8.108-6.495-9.415-18.333-2.919-26.441 6.495-8.109 18.334-9.414 26.441-2.919 3.635 2.912 8.712 2.912 12.347 0 8.105-6.495 19.944-5.189 26.441 2.919 6.495 8.108 5.188 19.945-2.919 26.441-8.744 7.003-19.22 10.505-29.696 10.505z" fill="#383842"/><path d="m142.608 110.868c9.629 0 18.644 1.758 26.386 4.821 1.48-3.46 2.3-7.264 2.3-11.266 0-15.842-12.843-28.685-28.685-28.685s-28.685 12.843-28.685 28.685c0 4.002.819 7.806 2.3 11.266 7.74-3.062 16.755-4.821 26.384-4.821z" fill="#383842"/><path d="m345.015 110.868c11.672 0 22.445 2.582 31.133 6.944 7.384 3.707 16.188-1.302 16.844-9.538.184-2.313.204-4.672.047-7.066-1.61-24.612-22.103-44.266-46.76-44.898-27.159-.696-49.393 21.112-49.393 48.113 0 1.37.058 2.727.17 4.068.685 8.141 9.517 12.991 16.818 9.324 8.689-4.362 19.466-6.947 31.141-6.947z" fill="#fff"/><path d="m345.015 110.868c9.629 0 18.644 1.758 26.386 4.821 1.48-3.46 2.3-7.264 2.3-11.266 0-15.842-12.843-28.685-28.685-28.685-15.843 0-28.685 12.843-28.685 28.685 0 4.002.819 7.806 2.3 11.266 7.74-3.062 16.755-4.821 26.384-4.821z" fill="#383842"/></g><path d="m87.507 248.718c-3.255-.688-5.008-2.454-5.686-5.727-3.332-16.106-17.758-27.795-34.302-27.795h-.63c-14.204 0-26.883 8.853-32.186 21.766.278.398.548.8.833 1.194l65.005 89.842c.524-1.476.956-2.999 1.28-4.565.677-3.273 2.431-5.04 5.686-5.727 16.128-3.405 27.834-17.729 27.834-34.058v-.872c0-16.332-11.707-30.655-27.834-34.058z" fill="#2ecdf9"/><path d="m37.294 248.183c-2.705 12.833-11.979 22.294-25.126 25.013-4.587.949-7.859 5.015-7.859 9.802v.528c0 4.7 3.3 8.751 7.902 9.708 13.12 2.73 22.376 12.179 25.081 24.993.973 4.609 4.886 7.999 9.719 7.999h.63c4.683 0 8.75-3.272 9.699-7.858 2.718-13.143 12.174-22.416 25.002-25.124 4.609-.973 7.999-4.887 7.999-9.598v-.871c0-4.711-3.39-8.625-7.999-9.598-12.828-2.708-22.284-11.98-25.002-25.123-.949-4.587-5.015-7.859-9.821-7.859h-.631c-4.706 0-8.623 3.383-9.594 7.988z" fill="url(#SVGID_6_)"/><path d="m469.015 59.906c2.705 12.833 11.979 22.294 25.126 25.013 4.587.949 7.859 5.015 7.859 9.802v.528c0 4.7-3.3 8.751-7.902 9.708-13.12 2.73-22.376 12.179-25.081 24.993-.973 4.609-4.886 7.999-9.719 7.999h-.63c-4.683 0-8.75-3.272-9.699-7.858-2.718-13.143-12.174-22.416-25.002-25.124-4.609-.973-7.999-4.887-7.999-9.598v-.871c0-4.711 3.39-8.625 7.999-9.598 12.828-2.708 22.284-11.98 25.002-25.123.949-4.587 5.015-7.859 9.821-7.859h.631c4.706 0 8.624 3.383 9.594 7.988z" fill="url(#SVGID_7_)"/><path d="m375.032 196.528-107.675 289.294c-7.598 2.029-15.503 3.086-23.545 3.086s-15.947-1.057-23.545-3.086l-107.675-289.294z" fill="url(#SVGID_8_)"/></g></svg>